<svg width="29" height="18" viewBox="0 0 29 18" fill="none" xmlns="http://www.w3.org/2000/svg">
<path d="M0.5 14.3336V14.8333L0.999689 14.8336L3.69969 14.8353H3.7C4.71882 14.8353 5.55 14.0234 5.55 13.0035V3.70598V3.20598H5.05H1H0.5V3.70598V14.3336ZM21.9436 11.8C22.0515 11.8926 22.1413 11.978 22.2189 12.0665L23.0947 13.0645V11.7367V3.65608V3.44678L22.9456 3.29989C21.1222 1.50368 18.6544 0.5 16.081 0.5H16.0589L16.0368 0.501952L15.6912 0.532584C15.243 0.538318 14.8071 0.705645 14.4724 1.0073L14.4724 1.00731L10.322 4.74828L10.2529 4.81053L10.2447 4.82674C9.39225 5.67544 9.42886 6.98712 10.1892 7.80516L10.1944 7.81069L10.1997 7.81607C10.5638 8.18476 11.096 8.40967 11.6331 8.45617C12.1658 8.50229 12.754 8.37651 13.2252 7.97904C13.2307 7.97515 13.2364 7.97094 13.2423 7.96639C13.2538 7.95756 13.2652 7.94801 13.2765 7.93768L16.6415 4.90271C16.6417 4.90247 16.642 4.90224 16.6423 4.902C16.6768 4.87165 16.7244 4.85468 16.7755 4.85678C16.8265 4.85889 16.8677 4.87919 16.8947 4.90873L16.8947 4.90875L16.8984 4.91273C16.9563 4.97449 16.9571 5.07502 16.8852 5.14098C16.885 5.14115 16.8848 5.14133 16.8846 5.1415L15.7845 6.13233L15.3468 6.52657L15.807 6.8944L21.9436 11.8ZM13.1689 8.01364C13.1672 8.01456 13.1659 8.01523 13.1651 8.01563L13.1655 8.01542L13.1689 8.01364ZM10.1855 4.95145C10.1835 4.95697 10.1841 4.95488 10.1867 4.9484C10.186 4.95003 10.1857 4.95107 10.1855 4.95145ZM15.4286 7.02048L15.0965 6.75448L14.7808 7.03962L13.5162 8.18171C13.516 8.18189 13.5158 8.18206 13.5156 8.18224C12.4653 9.12501 10.8575 9.03338 9.92167 8.03136C8.98219 7.01774 9.05464 5.44604 10.0807 4.51771C10.0807 4.51765 10.0808 4.51758 10.0809 4.51752L13.5314 1.40363L14.4968 0.532432H13.1964H12.918C10.349 0.532432 7.87723 1.54321 6.05781 3.33289L5.90863 3.47964L5.90844 3.68889L5.9 12.9985L5.89955 13.4979L6.399 13.4989L6.97905 13.5001L10.6553 16.7758L10.665 16.7845L10.6751 16.7926C11.9143 17.7861 13.6721 17.7136 14.8213 16.6977L15.2301 17.0367L15.2394 17.0443L15.249 17.0515C16.1124 17.7 17.4094 17.6313 18.1435 16.748L18.1447 16.7466L19.1597 15.5161C19.939 16.0083 20.991 15.8654 21.5943 15.1304C21.5944 15.1304 21.5944 15.1303 21.5945 15.1302L21.9967 14.6406L21.9969 14.6404C22.6434 13.8525 22.5206 12.7017 21.7248 12.0647L15.4286 7.02048ZM23.9485 3.21014L23.45 3.21167V3.71014V13.0073C23.45 14.0113 24.2703 14.8399 25.262 14.8399H25.2624L28.0004 14.8378L28.5 14.8374V14.3378V3.69766V3.19612L27.9985 3.19767L23.9485 3.21014ZM3.025 12.1809C3.12778 12.1809 3.2 12.2627 3.2 12.3457C3.2 12.426 3.12512 12.5106 3.025 12.5106C2.92533 12.5106 2.85 12.4251 2.85 12.3462C2.85 12.2621 2.92205 12.1809 3.025 12.1809ZM25.975 12.5073C25.8748 12.5073 25.8 12.4227 25.8 12.3424C25.8 12.2593 25.8722 12.1776 25.975 12.1776C26.0747 12.1776 26.15 12.2589 26.15 12.3462C26.15 12.4229 26.079 12.5073 25.975 12.5073Z" fill="white" stroke="#024F9D"/>
</svg>
