<svg width="23" height="23" viewBox="0 0 23 23" fill="none" xmlns="http://www.w3.org/2000/svg">
<path d="M1.2156 20.1063L1.216 20.1063C2.32604 20.1632 4.0783 20.3065 5.89838 20.6684C7.39532 20.966 8.97326 21.418 10.2812 22.1135V11.2862C9.06631 10.529 7.44501 10.0218 5.81806 9.68812C4.10092 9.33595 2.42516 9.18635 1.31282 9.12424L1.2156 20.1063ZM1.2156 20.1063C0.800441 20.0854 0.5 19.754 0.5 19.3928V9.84688M1.2156 20.1063L0.5 9.84688M21.7827 20.1073C20.6724 20.1647 18.9234 20.3113 17.1054 20.6751C15.6081 20.9746 14.0296 21.4278 12.7188 22.1212V11.311C13.9213 10.5397 15.5527 10.025 17.1952 9.68778C18.9051 9.3367 20.578 9.18741 21.6895 9.12421C22.1468 9.09902 22.5 9.44937 22.5 9.84688V19.3928C22.5 19.7508 22.2011 20.0839 21.7827 20.1073ZM21.7827 20.1073C21.7831 20.1073 21.7834 20.1072 21.7838 20.1072L21.8096 20.6066M21.7827 20.1073C21.7825 20.1073 21.7823 20.1073 21.7821 20.1073L21.8096 20.6066M21.8096 20.6066C19.7474 20.7131 15.4646 21.1316 12.7188 22.6912L23 9.84688V19.3928C23 20.0307 22.4789 20.5697 21.8096 20.6066ZM0.5 9.84688C0.5 9.44969 0.852525 9.09886 1.3126 9.12422L0.5 9.84688ZM11.5 0.5C13.6047 0.5 15.3125 2.20778 15.3125 4.3125C15.3125 6.41722 13.6047 8.125 11.5 8.125C9.39528 8.125 7.6875 6.41722 7.6875 4.3125C7.6875 2.20778 9.39528 0.5 11.5 0.5Z" fill="white" stroke="#024F9D"/>
</svg>
