<svg width="25" height="18" viewBox="0 0 25 18" fill="none" xmlns="http://www.w3.org/2000/svg">
<path d="M2.59523 1.0197C2.93958 0.689128 3.41082 0.5 3.90625 0.5H21.0938C21.5892 0.5 22.0604 0.689128 22.4048 1.0197C22.7484 1.34961 22.9375 1.79261 22.9375 2.25V14.5H2.0625V2.25C2.0625 1.79261 2.25158 1.34961 2.59523 1.0197ZM24.4231 16.25C24.3377 16.5217 24.1829 16.7733 23.9673 16.9803C23.6229 17.3109 23.1517 17.5 22.6562 17.5H2.34375C1.84832 17.5 1.37708 17.3109 1.03273 16.9803C0.81708 16.7733 0.662297 16.5217 0.576911 16.25H24.4231Z" fill="white" stroke="#024F9D"/>
</svg>
