<svg width="13" height="13" viewBox="0 0 13 13" fill="none" xmlns="http://www.w3.org/2000/svg">
<path d="M7.1331 2.16668L9.74935 4.78293V10.8333H3.24935V2.16668H7.1331ZM7.58268 1.08334H3.24935C2.65352 1.08334 2.16602 1.57084 2.16602 2.16668V10.8333C2.16602 11.4292 2.65352 11.9167 3.24935 11.9167H9.74935C10.3452 11.9167 10.8327 11.4292 10.8327 10.8333V4.33334L7.58268 1.08334ZM6.49935 7.58334C7.09518 7.58334 7.58268 7.09584 7.58268 6.50001C7.58268 5.90418 7.09518 5.41668 6.49935 5.41668C5.90352 5.41668 5.41602 5.90418 5.41602 6.50001C5.41602 7.09584 5.90352 7.58334 6.49935 7.58334ZM8.66602 9.44126C8.66602 9.00251 8.40601 8.61251 8.00518 8.43918C7.54476 8.23876 7.0356 8.12501 6.49935 8.12501C5.9631 8.12501 5.45393 8.23876 4.99352 8.43918C4.59268 8.61251 4.33268 9.00251 4.33268 9.44126V9.75001H8.66602V9.44126Z" fill="#EE5B3A"/>
</svg>
