<svg width="65" height="65" viewBox="0 0 65 65" fill="none" xmlns="http://www.w3.org/2000/svg">
<g clip-path="url(#clip0_2408_1765)">
<path d="M65 32.5C64.9933 28.8565 63.5825 25.3369 61.0251 22.5841C58.4678 19.8313 54.9348 18.0291 51.0714 17.5067V7.58333C51.0714 6.72138 50.7046 5.89473 50.0515 5.28524C49.3985 4.67574 48.5128 4.33333 47.5893 4.33333H37.1429V2.16667C37.1429 1.59203 36.8983 1.04093 36.4629 0.634602C36.0276 0.228273 35.4371 0 34.8214 0L16.25 0C15.6343 0 15.0439 0.228273 14.6085 0.634602C14.1732 1.04093 13.9286 1.59203 13.9286 2.16667V4.33333H3.48214C2.55862 4.33333 1.67292 4.67574 1.0199 5.28524C0.366868 5.89473 0 6.72138 0 7.58333V56.3333C0 57.1953 0.366868 58.0219 1.0199 58.6314C1.67292 59.2409 2.55862 59.5833 3.48214 59.5833H44.1071V60.6667C44.1071 61.8159 44.5963 62.9181 45.467 63.7308C46.3377 64.5435 47.5186 65 48.75 65C49.9814 65 51.1623 64.5435 52.033 63.7308C52.9037 62.9181 53.3929 61.8159 53.3929 60.6667V49.8333C53.3929 49.546 53.2706 49.2705 53.0529 49.0673C52.8352 48.8641 52.54 48.75 52.2321 48.75V47.3065C55.8479 46.5628 59.0837 44.6903 61.4051 41.9983C63.7265 39.3062 64.9946 35.9556 65 32.5V32.5ZM62.6786 32.5C62.6786 35.0712 61.8617 37.5846 60.3312 39.7224C58.8007 41.8603 56.6253 43.5265 54.0802 44.5104C51.5351 45.4944 48.7345 45.7518 46.0327 45.2502C43.3308 44.7486 40.849 43.5105 38.901 41.6924C36.9531 39.8743 35.6265 37.5579 35.0891 35.0362C34.5516 32.5144 34.8275 29.9006 35.8817 27.5251C36.9359 25.1497 38.7212 23.1194 41.0117 21.6909C43.3022 20.2624 45.9952 19.5 48.75 19.5C52.4441 19.5 55.9869 20.8696 58.599 23.3076C61.2111 25.7456 62.6786 29.0522 62.6786 32.5V32.5ZM47.5893 6.5C47.8971 6.5 48.1924 6.61414 48.41 6.8173C48.6277 7.02047 48.75 7.29602 48.75 7.58333V17.3333C47.9727 17.3389 47.1969 17.3968 46.4286 17.5067V10.8333C46.4286 10.2587 46.184 9.7076 45.7486 9.30127C45.3133 8.89494 44.7228 8.66667 44.1071 8.66667H37.1429V6.5H47.5893ZM16.25 2.16667H34.8214V13H16.25V2.16667ZM34.8214 15.1667C35.4371 15.1667 36.0276 14.9384 36.4629 14.5321C36.8983 14.1257 37.1429 13.5746 37.1429 13V10.8333H44.1071V17.9725C40.6557 18.9314 37.6436 20.9337 35.5445 23.6647C33.4455 26.3957 32.3785 29.7004 32.5114 33.0592C32.6443 36.4179 33.9695 39.6402 36.2787 42.2192C38.5879 44.7983 41.75 46.5878 45.2679 47.3065V48.75C44.96 48.75 44.6648 48.8641 44.4471 49.0673C44.2294 49.2705 44.1071 49.546 44.1071 49.8333V53.0833H6.96429V10.8333H13.9286V13C13.9286 13.5746 14.1732 14.1257 14.6085 14.5321C15.0439 14.9384 15.6343 15.1667 16.25 15.1667H34.8214ZM3.48214 57.4167C3.1743 57.4167 2.87907 57.3025 2.66139 57.0994C2.44372 56.8962 2.32143 56.6207 2.32143 56.3333V7.58333C2.32143 7.29602 2.44372 7.02047 2.66139 6.8173C2.87907 6.61414 3.1743 6.5 3.48214 6.5H13.9286V8.66667H6.96429C6.3486 8.66667 5.75814 8.89494 5.32279 9.30127C4.88744 9.7076 4.64286 10.2587 4.64286 10.8333V53.0833C4.64286 53.658 4.88744 54.2091 5.32279 54.6154C5.75814 55.0217 6.3486 55.25 6.96429 55.25H44.1071V57.4167H3.48214ZM51.0714 60.6667C51.0714 61.2413 50.8269 61.7924 50.3915 62.1987C49.9561 62.6051 49.3657 62.8333 48.75 62.8333C48.1343 62.8333 47.5439 62.6051 47.1085 62.1987C46.6731 61.7924 46.4286 61.2413 46.4286 60.6667V50.9167H51.0714V60.6667ZM49.9107 48.75H47.5893V47.6111C47.9752 47.6382 48.3583 47.6667 48.75 47.6667C49.1417 47.6667 49.5248 47.6382 49.9107 47.6111V48.75Z" fill="black"/>
<path d="M37.1431 32.5C37.1465 35.3721 38.3705 38.1258 40.5465 40.1567C42.7225 42.1877 45.6729 43.3301 48.7502 43.3333V41.1666C46.2875 41.1666 43.9256 40.2535 42.1842 38.6282C40.4428 37.0029 39.4645 34.7985 39.4645 32.5C39.4645 30.2014 40.4428 27.997 42.1842 26.3717C43.9256 24.7464 46.2875 23.8333 48.7502 23.8333V21.6666C45.6729 21.6699 42.7225 22.8123 40.5465 24.8432C38.3705 26.8741 37.1465 29.6278 37.1431 32.5V32.5Z" fill="black"/>
<path d="M11.6069 21.6666V30.3333C11.6069 30.6206 11.7292 30.8962 11.9469 31.0993C12.1646 31.3025 12.4598 31.4166 12.7676 31.4166H22.0534C22.3612 31.4166 22.6564 31.3025 22.8741 31.0993C23.0918 30.8962 23.2141 30.6206 23.2141 30.3333V22.425L25.2555 20.2014L23.4941 18.7931L21.8517 20.5833H12.7676C12.4598 20.5833 12.1646 20.6974 11.9469 20.9006C11.7292 21.1038 11.6069 21.3793 11.6069 21.6666ZM13.9284 22.75H19.8611L17.3438 25.4894L15.9103 24.1502L14.2679 25.6831L16.5893 27.8498C16.6972 27.9503 16.8252 28.0301 16.9661 28.0844C17.107 28.1388 17.258 28.1667 17.4105 28.1666H17.4555C17.6151 28.1607 17.7718 28.1241 17.9156 28.0591C18.0594 27.9941 18.1873 27.9021 18.2912 27.7888L20.8926 24.9559V29.25H13.9284V22.75Z" fill="black"/>
</g>
<defs>
<clipPath id="clip0_2408_1765">
<rect width="65" height="65" fill="white"/>
</clipPath>
</defs>
</svg>
