<svg width="18" height="18" viewBox="0 0 18 18" fill="none" xmlns="http://www.w3.org/2000/svg">
<g clip-path="url(#clip0_2848_1807)">
<path d="M16.1963 3.88125C16.1963 3.855 16.1888 3.82875 16.1813 3.8025C16.1775 3.79125 16.1738 3.78375 16.17 3.77625C16.155 3.7425 16.1363 3.7125 16.11 3.69L12.51 0.09C12.4838 0.06375 12.4538 0.045 12.4238 0.03C12.4125 0.02625 12.405 0.0225 12.3938 0.01875C12.3675 0.01125 12.345 0.00375 12.3188 0.00375C12.315 0.00375 12.3075 0 12.3 0H2.10005C1.93505 0 1.80005 0.135 1.80005 0.3V17.7C1.80005 17.865 1.93505 18 2.10005 18H15.9C16.065 18 16.2 17.865 16.2 17.7V3.9C16.2 3.8925 16.1963 3.88875 16.1963 3.88125ZM12.6 1.02375L15.1763 3.6H12.6V1.02375ZM15.6 17.4H2.40005V0.6H12V3.9C12 4.065 12.135 4.2 12.3 4.2H15.6V17.4Z" fill="black"/>
<path d="M14.1 5.69995C13.6013 5.69995 13.2 6.1012 13.2 6.59995V6.89995H12.6C12.435 6.89995 12.3 7.03495 12.3 7.19995V8.99995H12.9V7.49995H13.2V15.3C13.2 15.3787 13.23 15.4575 13.2863 15.5137L13.8863 16.1137C14.0025 16.23 14.1938 16.23 14.31 16.1137L14.91 15.5137C14.9663 15.4575 14.9963 15.3825 14.9963 15.3V6.59995C15 6.1012 14.5988 5.69995 14.1 5.69995ZM14.4 15.1762L14.1 15.4762L13.8 15.1762V8.39995H14.4V15.1762ZM14.4 7.79995H13.8V6.59995C13.8 6.43495 13.935 6.29995 14.1 6.29995C14.265 6.29995 14.4 6.43495 14.4 6.59995V7.79995Z" fill="black"/>
<path d="M10.8 1.80005H3.59998V2.40005H10.8V1.80005Z" fill="black"/>
<path d="M4.79998 3.59998H3.59998V4.19998H4.79998V3.59998Z" fill="black"/>
<path d="M10.8 3.59998H5.40002V4.19998H10.8V3.59998Z" fill="black"/>
<path d="M11.1 6.30005H9.29998V6.90005H10.3762L8.27623 9.00005H6.59998C6.52123 9.00005 6.44248 9.03005 6.38623 9.0863L4.88623 10.5863L5.30998 11.01L6.72373 9.5963H8.39998C8.47873 9.5963 8.55748 9.5663 8.61373 9.51005L10.8 7.3238V8.40005H11.4V6.60005C11.4 6.43505 11.265 6.30005 11.1 6.30005Z" fill="black"/>
<path d="M4.19998 11.7V5.40002H3.59998V12C3.59998 12.165 3.73498 12.3 3.89998 12.3H11.4V11.7H4.19998Z" fill="black"/>
<path d="M4.79998 13.5H3.59998V14.1H4.79998V13.5Z" fill="black"/>
<path d="M8.40002 13.5H5.40002V14.1H8.40002V13.5Z" fill="black"/>
<path d="M8.39998 15.3H3.59998V15.9H8.39998V15.3Z" fill="black"/>
</g>
<defs>
<clipPath id="clip0_2848_1807">
<rect width="18" height="18" fill="white"/>
</clipPath>
</defs>
</svg>
