<svg width="65" height="65" viewBox="0 0 65 65" fill="none" xmlns="http://www.w3.org/2000/svg">
<g clip-path="url(#clip0_2408_1769)">
<path d="M63.9168 0H15.1668C14.571 0 14.0835 0.4875 14.0835 1.08333V17.3333H16.2502V2.16667H62.8335V61.75C62.847 62.3188 62.4002 62.7927 61.8314 62.8333C61.7366 62.8333 61.6418 62.8198 61.547 62.8198C61.3575 62.8198 61.1679 62.8063 60.9783 62.7927C60.9647 62.7927 60.9512 62.7927 60.9241 62.7927C57.3897 62.4 54.5866 59.6104 54.2075 56.076C54.2075 56.0625 54.2075 56.049 54.1939 56.0354C54.1668 55.7781 54.1533 55.5208 54.1533 55.2635V53.0969C54.1533 52.501 53.6658 52.0135 53.07 52.0135H16.2502V32.5H14.0835V52H5.41683C4.821 52 4.3335 52.4875 4.3335 53.0833V55.25C4.3335 60.626 8.70745 65 14.0835 65H61.8585C63.6189 64.9594 65.0137 63.5104 65.0002 61.75V1.08333C65.0002 0.4875 64.5127 0 63.9168 0ZM14.0835 62.8333C9.89912 62.8333 6.50016 59.4344 6.50016 55.25V54.1667H52.0002V55.25C52.0002 55.6021 52.0272 55.9677 52.0679 56.3198C52.0814 56.4146 52.095 56.5094 52.1085 56.6042C52.1491 56.8615 52.1897 57.1323 52.2439 57.3896C52.2575 57.4844 52.2845 57.5656 52.3116 57.6604C52.3793 57.9177 52.447 58.175 52.5418 58.4323C52.5689 58.5 52.596 58.5813 52.6231 58.649C52.7179 58.9198 52.8397 59.1771 52.9616 59.4344C52.9887 59.4885 53.0158 59.5427 53.0429 59.5969C53.1783 59.8677 53.3272 60.1385 53.4897 60.3958C53.5168 60.4365 53.5304 60.4635 53.5575 60.5042C53.7335 60.775 53.9231 61.0458 54.1262 61.3031L54.1668 61.3438C54.397 61.6417 54.6543 61.926 54.9252 62.1969C55.1554 62.4271 55.3991 62.6438 55.6564 62.8469L14.0835 62.8333Z" fill="black"/>
<path d="M35.75 30.3333C36.0344 30.3333 36.3188 30.225 36.5219 30.0219L40.8552 25.6885C41.275 25.2688 41.275 24.5781 40.8552 24.1583L36.5219 19.825C36.3188 19.6219 36.0479 19.5135 35.75 19.5135H5.41667C2.42396 19.5135 0 21.9375 0 24.9302C0 27.9229 2.42396 30.3469 5.41667 30.3469L35.75 30.3333ZM35.4656 21.8292L38.5531 24.9167L35.4656 28.0042L34.6938 24.9167L35.4656 21.8292ZM8.66667 21.6667H33.2854L32.7438 23.8333H10.8333V26H32.7438L33.2854 28.1667H8.66667V21.6667ZM2.16667 24.9167C2.16667 23.1156 3.61563 21.6667 5.41667 21.6667H6.5V28.1667H5.41667C3.61563 28.1667 2.16667 26.7177 2.16667 24.9167Z" fill="black"/>
<path d="M24.9168 46.5833H57.4168C58.0126 46.5833 58.5001 46.0958 58.5001 45.5V13C58.5001 12.4041 58.0126 11.9166 57.4168 11.9166C57.1324 11.9166 56.848 12.025 56.6449 12.2281L24.1449 44.7281C23.7251 45.1479 23.7251 45.8385 24.1449 46.2583C24.348 46.475 24.6324 46.5833 24.9168 46.5833ZM56.3335 15.6135V18.4166H54.1668V20.5833H56.3335V22.75H54.1668V24.9166H56.3335V27.0833H54.1668V29.25H56.3335V31.4166H54.1668V33.5833H56.3335V35.75H54.1668V37.9166H56.3335V40.0833H54.1668V42.25H56.3335V44.4166H54.1668V42.25H52.0001V44.4166H49.8335V42.25H47.6668V44.4166H45.5001V42.25H43.3335V44.4166H41.1668V42.25H39.0001V44.4166H36.8335V42.25H34.6668V44.4166H32.5001V42.25H30.3335V44.4166H27.5303L56.3335 15.6135Z" fill="black"/>
<path d="M40.6116 40.0833H50.9168C51.5127 40.0833 52.0002 39.5958 52.0002 39V28.6948C52.0002 28.099 51.5127 27.6115 50.9168 27.6115C50.6325 27.6115 50.3481 27.7198 50.1449 27.9229L39.8397 38.2281C39.42 38.6479 39.42 39.3385 39.8397 39.7583C40.0429 39.975 40.3272 40.0833 40.6116 40.0833ZM49.8335 31.3083V37.9167H43.2252L49.8335 31.3083Z" fill="black"/>
<path d="M49.8332 6.5H28.1665V8.66667H49.8332V6.5Z" fill="black"/>
<path d="M53.0832 10.8334H24.9165V13H53.0832V10.8334Z" fill="black"/>
<path d="M24.9165 33.5834H18.4165V35.75H24.9165V33.5834Z" fill="black"/>
<path d="M22.7498 37.9166H18.4165V40.0833H22.7498V37.9166Z" fill="black"/>
</g>
<defs>
<clipPath id="clip0_2408_1769">
<rect width="65" height="65" fill="white"/>
</clipPath>
</defs>
</svg>
