<svg width="18" height="18" viewBox="0 0 18 18" fill="none" xmlns="http://www.w3.org/2000/svg">
<path d="M17.1175 12.5157C16.998 12.4349 16.8327 12.463 16.7519 12.586L16.1472 13.472C15.9503 13.7602 15.8413 14.0942 15.8272 14.4423L15.764 16.1087C15.7569 16.2563 15.8765 16.3829 16.0276 16.3829C16.1683 16.3829 16.2843 16.2704 16.2913 16.1298L16.3546 14.4634C16.3651 14.2173 16.4425 13.9782 16.5831 13.7708L17.1878 12.8849C17.2687 12.7618 17.237 12.5966 17.1175 12.5157Z" fill="black"/>
<path d="M17.6308 9.73479L16.0417 7.26682V2.68596C16.0417 2.09885 15.5636 1.62073 14.9765 1.62073H3.02337C2.43626 1.62073 1.95813 2.09885 1.95813 2.68596V4.71096C1.95813 4.8551 2.07766 4.97463 2.2218 4.97463C2.36594 4.97463 2.48547 4.8551 2.48547 4.71096V2.68596C2.48547 2.38713 2.72805 2.14456 3.02337 2.14456H14.973C15.2718 2.14456 15.5109 2.38713 15.5109 2.68245V10.6524C15.5109 10.7262 15.4968 10.8 15.4652 10.8668L14.9273 10.2867V3.03752C14.9273 2.86526 14.7902 2.72815 14.6214 2.72815H12.832C12.6878 2.72815 12.5683 2.84768 12.5683 2.99182C12.5683 3.13596 12.6878 3.25549 12.832 3.25549H14.4034V9.7137L13.5245 8.76096C13.2222 8.43049 12.723 8.41643 12.3995 8.69417H8.18079C8.03665 8.69417 7.91712 8.8137 7.91712 8.95784C7.91712 9.10198 8.03665 9.22151 8.18079 9.22151H12.1183C12.1007 9.38674 12.1288 9.55549 12.2132 9.70667L12.4241 10.0864H5.57571L5.78665 9.70667C5.81126 9.66096 5.83235 9.61526 5.84641 9.56604L5.9343 9.63284C5.98001 9.66799 6.03626 9.68557 6.09251 9.68557C6.16633 9.68557 6.24016 9.65393 6.2929 9.59416L7.09094 8.66604C7.18587 8.55706 7.1718 8.38831 7.06282 8.29338C6.95383 8.19846 6.78508 8.21252 6.69016 8.32151L6.05032 9.06331L5.71633 8.8137C5.69524 8.78557 5.67063 8.75745 5.64251 8.72932C5.31555 8.4094 4.78821 8.41995 4.47532 8.76096L3.89524 9.38674V3.25549H11.7808C11.9249 3.25549 12.0445 3.13596 12.0445 2.99182C12.0445 2.84768 11.9249 2.72815 11.7808 2.72815H3.67376C3.50501 2.72815 3.3679 2.86877 3.3679 3.03752V9.95979L2.53118 10.8668C2.50305 10.8 2.48547 10.7262 2.48547 10.6524V5.76565C2.48547 5.62151 2.36594 5.50198 2.2218 5.50198C2.07766 5.50198 1.95813 5.62151 1.95813 5.76565V7.27034L0.369069 9.73831C-0.133666 10.5188 -0.119603 11.5172 0.404225 12.2836L1.42024 13.7707C1.56087 13.9746 1.63821 14.2137 1.64876 14.4633L1.71204 16.1297C1.71907 16.2703 1.83508 16.3864 1.98626 16.3828C2.1304 16.3758 2.24641 16.2563 2.23938 16.1086L2.1761 14.4422C2.16204 14.0942 2.05305 13.7602 1.85618 13.4719L0.840163 11.9848C0.435866 11.3942 0.425319 10.6207 0.815553 10.0196L1.96165 8.24065V10.6524C1.96165 10.8774 2.03196 11.0918 2.15852 11.2711L2.01438 11.4258C1.91594 11.5313 1.92297 11.7 2.02844 11.7985C2.13391 11.8969 2.30266 11.8899 2.4011 11.7844L4.86204 9.11604C4.97102 9.00002 5.15735 8.98948 5.27337 9.10549C5.36477 9.1969 5.38587 9.33752 5.32258 9.45002L3.84251 12.1219C3.73352 12.3188 3.75462 12.5578 3.89876 12.7301C4.18704 13.0781 4.27141 13.5633 4.12376 13.9887C4.04993 14.1996 4.01126 14.4176 4.00422 14.6426L3.9761 15.866C3.97258 16.0137 4.09212 16.1367 4.23977 16.1367C4.38391 16.1367 4.49993 16.0242 4.50344 15.8801L4.53157 14.6567C4.53508 14.4879 4.56672 14.3227 4.61946 14.1645C4.8304 13.5633 4.70735 12.8883 4.30305 12.3961C4.29954 12.3891 4.29954 12.3821 4.30305 12.3785L4.66516 11.7211H13.3277L13.6898 12.3785C13.6933 12.3856 13.6933 12.3926 13.6863 12.3961C13.282 12.8883 13.1624 13.5633 13.3698 14.1645C13.4261 14.3227 13.4542 14.4879 13.4577 14.6567L13.4859 15.8801C13.4894 16.0207 13.6054 16.1403 13.7566 16.1367C13.9007 16.1332 14.0167 16.0137 14.0132 15.866L13.9851 14.6426C13.9816 14.4211 13.9394 14.1996 13.8656 13.9887C13.7179 13.5633 13.8023 13.0781 14.0906 12.7301C14.2347 12.5578 14.2558 12.3188 14.1468 12.1219L12.6667 9.45002C12.6034 9.33752 12.6245 9.1969 12.7159 9.10549C12.832 8.98948 13.0183 9.00002 13.1273 9.11604L15.5882 11.7844C15.6866 11.8899 15.8554 11.8969 15.9609 11.7985C16.0663 11.7 16.0734 11.5313 15.9749 11.4258L15.8308 11.2711C15.9573 11.0918 16.0277 10.8774 16.0277 10.6524V8.24416L17.1738 10.0231C17.5077 10.5399 17.5499 11.1832 17.2898 11.7387C17.2265 11.8723 17.2863 12.027 17.4163 12.0903C17.5464 12.15 17.7046 12.0973 17.7679 11.9637C18.1195 11.2395 18.0632 10.4063 17.6308 9.73479ZM4.96048 11.1903L5.2804 10.6102H12.7159L13.0359 11.1903H4.96048Z" fill="black"/>
<path d="M3.19556 6.85906V6.47937C3.19556 6.33523 3.07603 6.2157 2.93188 6.2157C2.78774 6.2157 2.66821 6.33523 2.66821 6.47937V6.85906C2.66821 7.0032 2.78774 7.12273 2.93188 7.12273C3.07954 7.12273 3.19556 7.0032 3.19556 6.85906Z" fill="black"/>
<path d="M7.05924 4.09923C6.95025 4.00431 6.7815 4.01837 6.68658 4.12735L6.04674 4.86915L5.66002 4.58439C5.544 4.49649 5.37877 4.5211 5.29088 4.64064C5.20299 4.75665 5.2276 4.92189 5.34713 5.00978L5.93072 5.4422C5.97643 5.47735 6.03268 5.49493 6.08893 5.49493C6.16275 5.49493 6.23658 5.46329 6.28932 5.40353L7.08736 4.4754C7.18228 4.35939 7.17174 4.19415 7.05924 4.09923Z" fill="black"/>
<path d="M13.145 4.5H8.18091C8.03677 4.5 7.91724 4.61953 7.91724 4.76367C7.91724 4.90781 8.03677 5.02734 8.18091 5.02734H13.1415C13.2856 5.02734 13.4051 4.90781 13.4051 4.76367C13.4051 4.61953 13.2891 4.5 13.145 4.5Z" fill="black"/>
<path d="M13.145 6.59534H8.18091C8.03677 6.59534 7.91724 6.71487 7.91724 6.85901C7.91724 7.00315 8.03677 7.12268 8.18091 7.12268H13.1415C13.2856 7.12268 13.4051 7.00315 13.4051 6.85901C13.4051 6.71487 13.2891 6.59534 13.145 6.59534Z" fill="black"/>
<path d="M6.78857 6.20513C6.68662 6.10317 6.51787 6.10317 6.41592 6.20513L6.13467 6.48638L5.85342 6.20513C5.75147 6.10317 5.58271 6.10317 5.48076 6.20513C5.37881 6.30708 5.37881 6.47583 5.48076 6.57778L5.76201 6.85903L5.48076 7.14028C5.37881 7.24224 5.37881 7.41099 5.48076 7.51294C5.5335 7.56567 5.60029 7.59028 5.66709 7.59028C5.73389 7.59028 5.80068 7.56567 5.85342 7.51294L6.13467 7.23169L6.41592 7.51294C6.46865 7.56567 6.53545 7.59028 6.60225 7.59028C6.66904 7.59028 6.73584 7.56567 6.78857 7.51294C6.89053 7.41099 6.89053 7.24224 6.78857 7.14028L6.50732 6.85903L6.78857 6.57778C6.89053 6.47583 6.89053 6.30708 6.78857 6.20513Z" fill="black"/>
</svg>
