<?xml version="1.0" encoding="UTF-8"?>
<svg width="62px" height="62px" viewBox="0 0 62 62" version="1.1" xmlns="http://www.w3.org/2000/svg" xmlns:xlink="http://www.w3.org/1999/xlink">
    <!-- Generator: Sketch 53.1 (72631) - https://sketchapp.com -->
    <title>T&amp;L C</title>
    <desc>Created with Sketch.</desc>
    <g id="Final" stroke="none" stroke-width="1" fill="none" fill-rule="evenodd">
        <g id="TN-Landing-page-1" transform="translate(-614.000000, -1178.000000)" fill="#0076FE" fill-rule="nonzero">
            <g id="T&amp;L-C" transform="translate(614.000000, 1178.000000)">
                <path d="M22.0080503,55.192348 C22.0080503,53.0657044 20.2692257,51.3417191 18.1242767,51.3417191 L11.6513208,51.3417191 C10.9363378,51.3417191 10.3567296,50.7670573 10.3567296,50.0581761 L10.3567296,39.7898323 C10.3567296,39.0809511 9.77712134,38.5062893 9.06213836,38.5062893 L2.58918239,38.5062893 L2.58918239,36.3242662 L10.1392382,25.0958323 C10.2799577,24.8857822 10.3555652,24.6394775 10.3567296,24.3873166 C10.3702852,12.3419074 20.2156887,2.58052595 32.3647799,2.56708595 L32.3647799,0 C18.9400686,0.0134030738 7.9997311,10.68511 7.76754717,23.9932689 L0.217491321,35.226837 C0.0760443949,35.4379807 0.000404451574,35.6857301 0,35.9392034 L0,39.7898323 C2.77055608e-15,40.4987135 0.579608221,41.0733753 1.29459119,41.0733753 L7.76754717,41.0733753 L7.76754717,50.0581761 C7.76754717,52.1848197 9.50637183,53.908805 11.6513208,53.908805 L18.1242767,53.908805 C18.8392597,53.908805 19.4188679,54.4834668 19.4188679,55.192348 L19.4188679,60.3265199 C19.4188679,61.0354011 19.9984761,61.6100629 20.7134591,61.6100629 L25.8918239,61.6100629 L25.8918239,59.0429769 L22.0080503,59.0429769 L22.0080503,55.192348 Z" id="Path"></path>
                <path d="M56.8281595,27.0643724 L50.3633589,27.0643724 L50.3633589,24.5054324 C50.3701431,22.9884742 49.4696248,21.6111457 48.0685507,20.9955592 C46.6674765,20.3799727 45.031107,20.6426752 43.8985583,21.6650089 C42.4368485,20.3342973 40.1884276,20.3342973 38.7267178,21.6650089 C37.2650081,20.3342973 35.0165871,20.3342973 33.5548774,21.6650089 C32.4223287,20.6426752 30.7859591,20.3799727 29.384885,20.9955592 C27.9838109,21.6111457 27.0832926,22.9884742 27.0900767,24.5054324 L27.0900767,27.0643724 L20.6252761,27.0643724 C20.3925964,27.0700252 20.166085,27.1395731 19.9710383,27.2652492 L19.9594017,27.2473366 L13.4946011,31.0857467 C13.1057565,31.3171205 12.8679245,31.7332588 12.8679245,32.1822525 C12.8679245,32.6312462 13.1057565,33.0473845 13.4946011,33.2787583 L19.9594017,37.1171683 L19.9710383,37.0992558 C20.166085,37.2249319 20.3925964,37.2944798 20.6252761,37.3001325 L24.5041565,37.3001325 C24.5042297,37.6394414 24.6405,37.9648265 24.8829938,38.2047179 L28.1580618,41.4456154 C26.7268227,42.0478957 25.7975039,43.437906 25.7971166,44.9769527 L25.7971166,50.0948327 C25.8039065,51.7156467 26.8387888,53.1575583 28.3830369,53.6978203 L28.3830369,60.3305929 C28.3830369,61.0372247 28.9619148,61.6100629 29.675997,61.6100629 L45.1915184,61.6100629 C45.9056006,61.6100629 46.4844786,61.0372247 46.4844786,60.3305929 L46.4844786,53.6978203 C48.0287266,53.1575583 49.063609,51.7156467 49.0703988,50.0948327 L49.0703988,44.9769527 C49.0666508,44.090683 48.7501815,43.2335454 48.1756704,42.5536364 L49.9858146,40.7623784 C50.2275178,40.5225916 50.3632862,40.1977546 50.3633589,39.8590726 L50.3633589,37.3001325 L56.8281595,37.3001325 C59.6844881,37.3001325 62,35.0087796 62,32.1822525 C62,29.3557254 59.6844881,27.0643724 56.8281595,27.0643724 Z M52.9492792,29.6233124 L52.9492792,34.7411925 L36.3437923,34.7411925 C37.2358736,34.0228954 37.9075703,33.0723908 38.2832325,31.9967293 C38.9389391,32.8349017 39.9197951,33.3625543 40.9871887,33.4513256 C42.0545824,33.5400969 43.1106772,33.1818503 43.8985583,32.4637359 C45.031107,33.4860697 46.6674765,33.7487721 48.0685507,33.1331856 C49.4696248,32.5175991 50.3701431,31.1402706 50.3633589,29.6233124 L52.9492792,29.6233124 Z M46.4844786,23.2259623 C47.1985607,23.2259623 47.7774387,23.7988006 47.7774387,24.5054324 L47.7774387,29.6233124 C47.7774387,30.3299442 47.1985607,30.9027825 46.4844786,30.9027825 C45.7703964,30.9027825 45.1915184,30.3299442 45.1915184,29.6233124 L45.1915184,24.5054324 C45.1915184,23.7988006 45.7703964,23.2259623 46.4844786,23.2259623 Z M41.3126381,23.2259623 C42.0267202,23.2259623 42.6055982,23.7988006 42.6055982,24.5054324 L42.6055982,29.6233124 C42.6055982,30.3299442 42.0267202,30.9027825 41.3126381,30.9027825 C40.5985559,30.9027825 40.019678,30.3299442 40.019678,29.6233124 L40.019678,24.5054324 C40.019678,23.7988006 40.5985559,23.2259623 41.3126381,23.2259623 Z M36.1407976,23.2259623 C36.8548797,23.2259623 37.4337577,23.7988006 37.4337577,24.5054324 L37.4337577,28.3438424 L34.8478375,28.3438424 L34.8478375,24.5054324 C34.8478375,23.7988006 35.4267154,23.2259623 36.1407976,23.2259623 Z M30.9689571,23.2259623 C31.6830393,23.2259623 32.2619172,23.7988006 32.2619172,24.5054324 L32.2619172,28.3438424 L29.675997,28.3438424 L29.675997,24.5054324 C29.675997,23.7988006 30.254875,23.2259623 30.9689571,23.2259623 Z M19.332316,30.6033865 L19.332316,33.7611185 L16.67399,32.1822525 L19.332316,30.6033865 Z M21.9182363,34.7411925 L21.9182363,29.6233124 L25.5126654,29.6233124 C24.8670231,30.3227566 24.5075229,31.2349342 24.5041565,32.1822525 L24.5041565,34.7411925 L21.9182363,34.7411925 Z M27.0900767,32.1822525 C27.0900767,31.4756207 27.6689547,30.9027825 28.3830369,30.9027825 L35.9416817,30.9027825 C35.5137778,32.5323384 33.9562331,33.6154685 32.2619172,33.4617225 L29.675997,33.4617225 L29.675997,36.0206625 L32.2619172,36.0206625 C32.9605573,35.9761877 33.6447346,36.231474 34.139769,36.7213434 C34.6348033,37.2112128 34.8927813,37.8882517 34.8478375,38.5796026 L34.8478375,41.1385426 L31.5042426,41.1385426 L27.0900767,36.770432 L27.0900767,32.1822525 Z M30.9689571,59.0511229 L30.9689571,53.9332428 L43.8985583,53.9332428 L43.8985583,59.0511229 L30.9689571,59.0511229 Z M46.4844786,50.0948327 C46.4844786,50.8014645 45.9056006,51.3743027 45.1915184,51.3743027 L29.675997,51.3743027 C28.9619148,51.3743027 28.3830369,50.8014645 28.3830369,50.0948327 L28.3830369,44.9769527 C28.3830369,44.2703209 28.9619148,43.6974826 29.675997,43.6974826 L45.1915184,43.6974826 C45.9056006,43.6974826 46.4844786,44.2703209 46.4844786,44.9769527 L46.4844786,50.0948327 Z M47.7774387,39.329372 L45.9491931,41.1385426 L37.4337577,41.1385426 L37.4337577,38.5796026 C37.4367563,38.1497763 37.3934124,37.7208598 37.3044617,37.3001325 L47.7774387,37.3001325 L47.7774387,39.329372 Z M56.8281595,34.7411925 L55.5351994,34.7411925 L55.5351994,29.6233124 L56.8281595,29.6233124 C58.2563238,29.6233124 59.4140798,30.7689889 59.4140798,32.1822525 C59.4140798,33.595516 58.2563238,34.7411925 56.8281595,34.7411925 Z" id="Shape"></path>
                <rect id="Rectangle" x="41.3333333" y="46.4025157" width="2.33962264" height="2.33962264"></rect>
                <rect id="Rectangle" x="45.2327044" y="6.62893082" width="11.6981132" height="2.33962264"></rect>
                <path d="M58.1006289,0 L38.6037736,0 C36.4502104,-1.31043497e-16 34.7044025,1.73489604 34.7044025,3.87499875 L34.7044025,11.6249963 C34.7044025,13.765099 36.4502104,15.499995 38.6037736,15.499995 L49.0020964,15.499995 L49.0020964,19.3749938 C49.0019642,19.8973812 49.3184774,20.368419 49.8040671,20.5684934 C49.9617729,20.6338332 50.1310243,20.6672084 50.3018868,20.66666 C50.6465845,20.6665869 50.9771373,20.530453 51.2208386,20.2882018 L56.0391614,15.499995 L58.1006289,15.499995 C60.2541921,15.499995 62,13.765099 62,11.6249963 L62,3.87499875 C62,1.73489604 60.2541921,1.31043497e-16 58.1006289,0 Z M59.4004193,11.6249963 C59.4004193,12.3383638 58.8184833,12.9166625 58.1006289,12.9166625 L55.5010482,12.9166625 C55.1563506,12.9167357 54.8257977,13.0528695 54.5820964,13.2951207 L51.6016771,16.2569114 L51.6016771,14.2083288 C51.6016771,13.4949612 51.0197412,12.9166625 50.3018868,12.9166625 L38.6037736,12.9166625 C37.8859192,12.9166625 37.3039832,12.3383638 37.3039832,11.6249963 L37.3039832,3.87499875 C37.3039832,3.16163118 37.8859192,2.5833325 38.6037736,2.5833325 L58.1006289,2.5833325 C58.8184833,2.5833325 59.4004193,3.16163118 59.4004193,3.87499875 L59.4004193,11.6249963 Z" id="Shape"></path>
                <rect id="Rectangle" x="40.163522" y="6.62893082" width="2.33962264" height="2.33962264"></rect>
            </g>
        </g>
    </g>
</svg>