<svg xmlns="http://www.w3.org/2000/svg" width="70" height="71" viewBox="0 0 70 71">
    <g fill="#4A4A4A" fill-rule="evenodd">
        <path fill-rule="nonzero" d="M70 23.22H54.194v-3.399c0-3.124-2.533-5.665-5.646-5.665H36.13V.558H0v55.523c0 3.124 2.532 5.665 5.645 5.665h12.42v9.065h36.129v-9.065H70V23.221zM2.258 56.08V2.826h31.613v11.33H14.677c-3.112 0-5.645 2.542-5.645 5.666v36.26c0 1.874-1.52 3.399-3.387 3.399a3.397 3.397 0 0 1-3.387-3.4zm7.874 3.4a5.62 5.62 0 0 0 1.158-3.4V19.822c0-1.874 1.52-3.4 3.387-3.4a3.397 3.397 0 0 1 3.388 3.4V59.48h-7.933zm41.803 9.065H20.323V19.82a5.62 5.62 0 0 0-1.159-3.4h29.384a3.397 3.397 0 0 1 3.387 3.4v3.4H22.581v38.525h29.354v6.799zm15.807-9.065H24.839V25.487h42.903V59.48z"/>
        <path fill-rule="nonzero" d="M46.29 57.214c8.093 0 14.678-6.609 14.678-14.73 0-8.123-6.585-14.731-14.678-14.731s-14.677 6.608-14.677 14.73 6.584 14.73 14.677 14.73zm0-27.195c6.848 0 12.42 5.592 12.42 12.464 0 6.873-5.572 12.465-12.42 12.465-6.847 0-12.419-5.592-12.419-12.465 0-6.872 5.572-12.464 12.42-12.464z"/>
        <path d="M62.37 37.171l2.145-.708a19.384 19.384 0 0 0-7.428-9.904l-1.272 1.872a17.108 17.108 0 0 1 6.555 8.74zM35.493 58.407l1.273-1.872a17.098 17.098 0 0 1-6.555-8.74l-2.146.709a19.364 19.364 0 0 0 7.428 9.903z"/>
        <path fill-rule="nonzero" d="M40.645 33.775V51.19l15.906-8.707-15.906-8.708zm2.258 3.819l8.933 4.89-8.933 4.889v-9.779z"/>
        <path d="M4.516 5.09h27.097v2.266H4.516zM29.355 9.623h2.258v2.266h-2.258zM4.516 9.623h22.581v2.266H4.516z"/>
    </g>
</svg>
