<svg xmlns="http://www.w3.org/2000/svg" width="69" height="48" viewBox="0 0 69 48">
    <g fill="#4A4A4A" fill-rule="evenodd">
        <path fill-rule="nonzero" d="M61.796 25.302c-1.79 0-3.247 1.47-3.247 3.278s1.457 3.279 3.247 3.279c1.79 0 3.247-1.471 3.247-3.28 0-1.807-1.457-3.277-3.247-3.277zm1.244 3.278c0 .692-.558 1.256-1.244 1.256a1.251 1.251 0 0 1-1.244-1.256c0-.693.558-1.256 1.244-1.256.686 0 1.244.563 1.244 1.256z"/>
        <path d="M37.47 2.541c.558 0 1.011-.448 1.011-1.001 0-.553-.453-1.002-1.01-1.002H31.5c-.559 0-1.011.449-1.011 1.002 0 .553.452 1.001 1.01 1.001h5.97z"/>
        <path fill-rule="nonzero" d="M41.153 21.018h-3.407a3.275 3.275 0 0 0-2.107-2.087v-5.52c0-.554-.452-1.002-1.011-1.002-.559 0-1.011.448-1.011 1.002v5.52c-1.314.423-2.268 1.647-2.268 3.088 0 1.79 1.471 3.247 3.279 3.247a3.28 3.28 0 0 0 3.118-2.246h3.407c.559 0 1.011-.448 1.011-1.001 0-.553-.452-1.001-1.01-1.001zm-6.525 2.245a1.251 1.251 0 0 1-1.256-1.244c0-.686.564-1.244 1.256-1.244.692 0 1.256.558 1.256 1.244 0 .686-.564 1.244-1.256 1.244z"/>
        <path fill-rule="nonzero" d="M34.628 8.222c-7.678 0-13.929 6.186-13.929 13.797 0 7.595 6.236 13.796 13.929 13.796 7.701 0 13.929-6.206 13.929-13.796 0-7.663-6.305-13.797-13.929-13.797zM46.491 23.02a11.614 11.614 0 0 1-1.084 4.006c-.591-.338-1.176-.105-1.434.337-.256.439-.17 1.059.42 1.396a11.951 11.951 0 0 1-2.96 2.931c-.34-.585-.968-.668-1.41-.415a.996.996 0 0 0-.37 1.368l.03.051c-1.246.582-2.609.955-4.044 1.075 0-.666-.485-1.063-1.011-1.063-.51 0-1.011.38-1.011 1.063a11.915 11.915 0 0 1-4.044-1.074l.03-.052a.997.997 0 0 0-.37-1.368c-.45-.258-1.073-.162-1.41.415a11.94 11.94 0 0 1-2.96-2.931c.592-.337.675-.958.42-1.396-.26-.447-.847-.672-1.434-.337a11.614 11.614 0 0 1-1.084-4.006c.672 0 1.072-.48 1.072-1.001 0-.506-.384-1.001-1.072-1.001a11.61 11.61 0 0 1 1.084-4.006c.597.34 1.18.1 1.434-.337.26-.447.163-1.063-.42-1.396a11.95 11.95 0 0 1 2.96-2.932c.34.583.965.67 1.41.416.447-.256.68-.836.34-1.42a11.903 11.903 0 0 1 4.044-1.074c0 .671.49 1.062 1.011 1.062.51 0 1.011-.38 1.011-1.062 1.435.12 2.798.493 4.044 1.074-.337.58-.111 1.162.34 1.42s1.074.162 1.41-.415a11.958 11.958 0 0 1 2.96 2.93l-.05.03a.996.996 0 0 0-.37 1.367c.255.438.838.677 1.434.337a11.614 11.614 0 0 1 1.084 4.006c-.672 0-1.072.48-1.072 1.001 0 .506.384 1.001 1.072 1.001z"/>
        <path fill-rule="nonzero" d="M.03 13.397v30.412c0 2.275 1.833 4.126 4.087 4.126H64.31c2.253 0 4.086-1.85 4.086-4.126V30.962c0-.558-.448-1.01-1.001-1.01-.554 0-1.002.452-1.002 1.01V43.81c0 1.16-.934 2.103-2.083 2.103H4.117a2.096 2.096 0 0 1-2.084-2.103V13.397c0-1.16.935-2.104 2.084-2.104h16.331c-.443.58-.944 1.334-1.353 2.06H9.8c-.905 0-1.641.743-1.641 1.656v27.188c0 .913.736 1.656 1.641 1.656H54.97c1.132 0 2.053-.93 2.053-2.073V15.426a2.066 2.066 0 0 0-2.053-2.073h-5.076a17.925 17.925 0 0 0-1.353-2.06h15.77c1.15 0 2.083.944 2.083 2.104v12.847c0 .558.449 1.01 1.002 1.01.553 0 1.001-.452 1.001-1.01V13.397c0-2.275-1.833-4.126-4.085-4.126H46.738A17.544 17.544 0 0 0 36.672 4.44a1.004 1.004 0 0 0-1.116.88 1.01 1.01 0 0 0 .872 1.127c3.536.438 6.83 2.075 9.368 4.73 9.646 10.116 2.42 26.854-11.302 26.854-8.657 0-15.701-7.111-15.701-15.852 0-7.497 5.289-14.394 13.239-15.658a1.01 1.01 0 0 0 .834-1.156 1.003 1.003 0 0 0-1.145-.841 17.625 17.625 0 0 0-9.472 4.748H4.117C1.863 9.271.03 11.122.03 13.397zm18.087 1.978a18.058 18.058 0 0 0-1.327 6.803c0 9.856 7.942 17.874 17.704 17.874 9.916 0 17.94-8.268 17.698-18.31v-.005a18.042 18.042 0 0 0-1.321-6.362h4.098c.028 0 .05.023.05.051V41.78a.05.05 0 0 1-.05.051H14.733V15.375h3.384zm-5.387 0V41.83h-2.568V15.375h2.568z"/>
    </g>
</svg>
