<svg xmlns="http://www.w3.org/2000/svg" width="68" height="75" viewBox="0 0 68 75">
    <path fill="#EF6B36" fill-rule="nonzero" d="M66.919 24.838l-2.326-3.43a1.196 1.196 0 0 0-1.021-.525l-4.507.118c-.389.01-.748.209-.964.533l-.46.688-4.675 2.998a1.2 1.2 0 0 0-.547.898l-.101 1.09h-1.815l-3.568-2.913a1.196 1.196 0 0 0-1.843.428l-1.485 3.224-14.217-6.08.816-3.114a1.2 1.2 0 0 0-.77-1.438l-1.18-.405-1.943-2.976.279-.068a1.196 1.196 0 0 0 .755-1.758l-.671-1.179 2.567-5.28a1.2 1.2 0 0 0-.458-1.551l-2.308-1.392a1.189 1.189 0 0 0-.68-.17l-4.925.26-6.14-2.695a1.195 1.195 0 0 0-1.095.07l-3.309 1.983a1.199 1.199 0 0 0-.174 1.93l1.845 1.62.102 4.107c.007.29.119.568.314.781l3.033 3.308-2.515 4.54a1.198 1.198 0 0 0-.15.559l-.01.499-4.42 4.866-2.24-.72c-.621-.198-1.288.137-1.499.756L3.38 28.025a1.2 1.2 0 0 0 .406 1.339l.635.487 1.618 3.317.012.722-4.883 1.754a1.199 1.199 0 0 0-.123 2.205l1.494.733a1.198 1.198 0 0 0-.3 1.646l1.825 2.722c.116.174.276.315.464.407l2.96 1.463a1.195 1.195 0 0 0 1.481-.348l1.304-1.713.703 1.668-.422 2.22c-.04.214-.022.435.054.64l9.8 26.533a1.194 1.194 0 0 0 1.55.704l2.4-.918c.276-.106.504-.311.639-.576l.526-1.035.818-1 2.056-2.47a1.2 1.2 0 0 0 .26-.558l1.084-6.11c.035-.196.02-.397-.042-.587l-.573-1.731 1.091-3.305.913-.564 1.141-.135c.33-.039.629-.213.825-.481l1.414-1.932c.478-.2 1.04-.353 1.424-.711.454-.424.88-.882 1.318-1.321.35-.352.69-.646.887-1.11.222-.521.434-1.046.65-1.569l4.256-2.343a1.2 1.2 0 0 0 .612-.903l.208-1.686 1.592-1.22 2.135.427a1.197 1.197 0 0 0 1.388-1.49l-2.034-7.487 2.497-1.037 1.715 1.123c.158.103.337.168.525.188l1.267.14-1.42 2.103a1.2 1.2 0 0 0 1.05 1.869l.936-.046 2.164 2.96a1.195 1.195 0 0 0 2.147-.52l.59-3.718 1.005.193a1.197 1.197 0 0 0 1.407-.989l.65-4.09.578-.763a1.2 1.2 0 0 0 .233-.566l.097-.735 3.52-1.226c.397-.137.692-.473.779-.883l.413-1.952c.068-.32.003-.652-.18-.922zm-2.434 1.715l-3.58 1.245a1.198 1.198 0 0 0-.793.975l-.153 1.153-.568.75a1.201 1.201 0 0 0-.228.536l-.504 3.164-1.005-.193a1.196 1.196 0 0 0-1.408.99l-.332 2.098-.847-1.16a1.196 1.196 0 0 0-.353-.321l1.33-1.97a1.2 1.2 0 0 0-.86-1.864l-2.956-.325-2.004-1.312a1.195 1.195 0 0 0-1.113-.104l-4.055 1.684a1.2 1.2 0 0 0-.696 1.422l1.803 6.635-.77-.153a1.194 1.194 0 0 0-.96.223l-2.42 1.855a1.199 1.199 0 0 0-.461.805l-.195 1.576-4.087 2.25c-.239.131-.425.34-.53.59L35.955 49l-1.577 1.58-1.095.458c-.2.084-.375.222-.504.398l-1.304 1.78-.887.105c-.173.02-.34.078-.488.17l-1.508.931c-.24.148-.42.376-.509.644l-1.352 4.097a1.2 1.2 0 0 0 0 .754l.602 1.82-.976 5.497-1.859 2.233-.907 1.11a1.187 1.187 0 0 0-.14.215l-.376.74-.84.32-9.265-25.085.427-2.248a1.203 1.203 0 0 0-.073-.69l-.977-2.319.056-1.915a1.195 1.195 0 1 0-2.148-.762l-2.59 3.4-1.79-.884-.818-1.391.676-.354a1.198 1.198 0 0 0-.029-2.139l-.566-.278-.495-.243 3.025-1.086c.482-.173.801-.635.793-1.149l-.031-1.848a1.2 1.2 0 0 0-.122-.506l-1.858-3.81a1.198 1.198 0 0 0-.348-.426l-.177-.135.577-1.696 1.856.595c.446.143.934.013 1.25-.335l5.24-5.77c.196-.214.307-.493.312-.783l.012-.652 2.789-5.035a1.2 1.2 0 0 0-.165-1.392l-3.312-3.613-.104-4.182a1.2 1.2 0 0 0-.407-.872l-1.004-.882 1.369-.821 5.834 2.562c.171.075.357.109.544.1l4.842-.257 1.055.636-2.364 4.862a1.2 1.2 0 0 0 .036 1.118l.199.35-.381.093a1.197 1.197 0 0 0-.717 1.82l3.093 4.738c.146.223.362.391.614.478l.517.177-.795 3.037a1.2 1.2 0 0 0 .688 1.407l16.235 6.943a1.195 1.195 0 0 0 1.556-.6l1.327-2.879 2.702 2.205c.214.175.481.27.756.27h3.33c.619 0 1.135-.471 1.192-1.087l.149-1.594 4.395-2.818c.139-.089.258-.206.35-.344l.253-.38 3.234-.085 1.672 2.465-.168.79z"/>
</svg>
