<svg xmlns="http://www.w3.org/2000/svg" width="75" height="75" viewBox="0 0 75 75">
    <path fill="#4A4A4A" fill-rule="nonzero" d="M73.535 22.557c.809 0 1.465-.656 1.465-1.465v-9.023c0-.571-.329-1.066-.807-1.307l-.021-.012L52.199.146a1.464 1.464 0 0 0-1.273 0L28.953 10.75a1.465 1.465 0 0 0 0 2.639l8.564 4.133v9.06c0 .069.006.136.015.203h-.407a4.887 4.887 0 0 0-4.881 4.882 4.887 4.887 0 0 0 4.88 4.88h.474c.445 4.153 2.707 7.77 5.973 10.037H29.924c-.857 0-1.667.204-2.385.566V25.532a2.388 2.388 0 0 1 2.385-2.385h3.784a1.465 1.465 0 0 0 0-2.93h-3.784a5.299 5.299 0 0 0-3.85 1.657 5.299 5.299 0 0 0-3.85-1.657H1.464c-.808 0-1.464.656-1.464 1.465v32.082c0 .809.656 1.465 1.465 1.465h1.757v7.173H1.465c-.809 0-1.465.656-1.465 1.465v2.637C0 71.189 3.811 75 8.496 75h58.008C71.189 75 75 71.189 75 66.504v-2.637c0-.809-.656-1.465-1.465-1.465h-1.758V40.87a1.465 1.465 0 0 0-2.93 0v21.533H6.152V55.23h44.532c.808 0 1.464-.656 1.464-1.465v-4.69c6.97-.288 12.645-5.679 13.38-12.526H66a4.887 4.887 0 0 0 4.882-4.881A4.887 4.887 0 0 0 66 26.785h-.407a1.46 1.46 0 0 0 .015-.203v-9.06l6.462-3.119v6.689c0 .81.656 1.465 1.465 1.465zM37.517 33.618h-.392a1.954 1.954 0 0 1-1.952-1.951c0-1.076.876-1.952 1.952-1.952h.392v3.903zM2.93 23.147h19.294a2.388 2.388 0 0 1 2.385 2.385V47.15a5.282 5.282 0 0 0-2.385-.566H2.93V23.147zm69.14 42.185v1.172a5.573 5.573 0 0 1-5.566 5.566H8.496a5.573 5.573 0 0 1-5.566-5.566v-1.172h69.14zM2.93 52.299v-2.785h19.294a2.388 2.388 0 0 1 2.385 2.385c0 .139.021.273.057.4H2.93zm62.678-22.584H66c1.076 0 1.952.876 1.952 1.952A1.954 1.954 0 0 1 66 33.618h-.392v-3.903zm-16.39 22.584H27.483a1.46 1.46 0 0 0 .057-.4 2.388 2.388 0 0 1 2.385-2.385H49.22v2.785zm13.46-17.258c0 6.13-4.986 11.116-11.115 11.116-6.13 0-11.116-4.987-11.116-11.116v-6.214l10.525 4.63a1.466 1.466 0 0 0 1.18 0l10.526-4.63v6.214zm0-9.415l-11.115 4.89-11.116-4.89v-6.69l10.479 5.057a1.464 1.464 0 0 0 1.273 0l10.48-5.057v6.69zm-6.996-12.092H67.13l-15.567 7.514L32.96 12.07 51.562 3.09l15.568 7.514H55.682a1.465 1.465 0 0 0 0 2.93z"/>
</svg>
