<?xml version="1.0" encoding="UTF-8"?>
<svg width="850px" height="404px" viewBox="0 0 850 404" version="1.1" xmlns="http://www.w3.org/2000/svg" xmlns:xlink="http://www.w3.org/1999/xlink">
    <!-- Generator: sketchtool 52.4 (67378) - http://www.bohemiancoding.com/sketch -->
    <title>D974E184-E97E-49CE-B974-BF3AF1F6C444</title>
    <desc>Created with sketchtool.</desc>
    <g id="Page-1" stroke="none" stroke-width="1" fill="none" fill-rule="evenodd">
        <g id="Landing-Page" transform="translate(-360.000000, -2533.000000)" fill="#000000" fill-rule="nonzero">
            <g id="Group-5" transform="translate(360.000000, 2533.000000)">
                <g id="Mobile">
                    <path d="M20,0 L830,0 C841.045695,-2.02906125e-15 850,8.954305 850,20 L850,384 C850,395.045695 841.045695,404 830,404 L20,404 C8.954305,404 1.3527075e-15,395.045695 0,384 L0,20 C-1.3527075e-15,8.954305 8.954305,2.02906125e-15 20,0 Z M24.552,9 C17.924583,9 12.552,14.372583 12.552,21 L12.552,381 C12.552,387.627417 17.924583,393 24.552,393 L827.448,393 C834.075417,393 839.448,387.627417 839.448,381 L839.448,21 C839.448,14.372583 834.075417,9 827.448,9 L24.552,9 Z" id="Combined-Shape"></path>
                    <circle id="Oval" stroke="#979797" stroke-width="0.5" cx="30.5" cy="146.5" r="6.5"></circle>
                    <rect id="Rectangle" stroke="#979797" stroke-width="0.5" x="24.25" y="162.25" width="12.5" height="76.5" rx="5.5"></rect>
                    <circle id="Oval-Copy" stroke="#979797" stroke-width="0.5" cx="30.5" cy="255.5" r="6.5"></circle>
                </g>
            </g>
        </g>
    </g>
</svg>