<svg xmlns="http://www.w3.org/2000/svg" width="70" height="66" viewBox="0 0 70 66">
    <g fill="#4A4A4A" fill-rule="evenodd">
        <path fill-rule="nonzero" d="M66.5 31.64V5.86C66.5 2.628 63.883 0 60.667 0H9.333C6.117 0 3.5 2.629 3.5 5.86v17.578c-1.93 0-3.5 1.577-3.5 3.515V62.11c0 1.939 1.57 3.516 3.5 3.516h25.667c1.93 0 3.5-1.577 3.5-3.516h9.777c1.1 0 2.114-.504 2.782-1.381a3.503 3.503 0 0 0 .595-3.059l-2.294-8.45h6.64v12.89c0 1.939 1.57 3.516 3.5 3.516H66.5c1.93 0 3.5-1.577 3.5-3.516V35.156c0-1.938-1.57-3.515-3.5-3.515zM30.333 62.11c0 .645-.523 1.171-1.166 1.171H3.5a1.171 1.171 0 0 1-1.167-1.172v-2.343h28v2.343zm0-4.688h-28V31.64h28v25.78zm0-28.125h-28v-2.344c0-.646.524-1.172 1.167-1.172h25.667c.642 0 1.166.526 1.166 1.172v2.344zM43.57 58.286c.097.355.025.726-.198 1.02-.223.292-.56.46-.928.46h-9.777v-2.344h10.669l.234.864zm-10.903-3.208v-5.86h8.442l1.591 5.86H32.667zm17.5-8.203h-17.5v-7.031h17.5v7.031zm0-11.719V37.5h-17.5V26.953c0-1.938-1.57-3.515-3.5-3.515H5.833V5.858c0-1.938 1.57-3.515 3.5-3.515h51.334c1.93 0 3.5 1.577 3.5 3.515v25.782h-10.5c-1.93 0-3.5 1.577-3.5 3.515zm17.5 26.953c0 .646-.524 1.172-1.167 1.172H53.667A1.171 1.171 0 0 1 52.5 62.11v-2.343h15.167v2.343zm0-4.687H52.5V39.844h15.167v17.578zm0-19.922H52.5v-2.344c0-.645.524-1.172 1.167-1.172H66.5c.643 0 1.167.527 1.167 1.172V37.5z"/>
        <path d="M6.172 48.389l4.665-4.688 1.65 1.658-4.665 4.687zM10.837 51.905l13.995-14.063L26.48 39.5 12.486 53.562zM13.169 41.36l6.997-7.032 1.65 1.658-6.998 7.03zM55.152 48.39l5.83-5.858 1.649 1.658-5.83 5.858zM57.484 53.083l5.83-5.858 1.649 1.657-5.83 5.859zM30.662 20.265l6.997-7.03 1.65 1.657-6.998 7.03zM41.159 17.922l6.997-7.031 1.649 1.657-6.997 7.03zM34.16 24.954l4.665-4.687 1.65 1.657-4.665 4.687zM39.985 10.905l4.676-4.699 1.65 1.657-4.677 4.7zM8.376 4.773h2.393v2.386H8.376zM13.162 4.773h2.393v2.386h-2.393zM17.35 4.773h2.393v2.386H17.35z"/>
    </g>
</svg>
