<svg xmlns="http://www.w3.org/2000/svg" width="70" height="59" viewBox="0 0 70 59">
    <g fill="#4A4A4A" fill-rule="evenodd">
        <path d="M11.83 36.291h18.416v2.31H11.83zM11.83 40.911h13.812v2.31H11.83zM41.757 31.67h2.302v2.31h-2.302zM39.455 40.911h12.66v2.31h-12.66zM41.757 13.187h2.302v2.31h-2.302zM39.455 22.428h12.66v2.31h-12.66z"/>
        <g fill-rule="nonzero">
            <path d="M19.554 14.58H12.58a.58.58 0 0 0-.581.579v6.938c0 .319.26.578.581.578h6.973a.58.58 0 0 0 .581-.578v-6.938a.58.58 0 0 0-.581-.579zm-.581 6.938h-5.81v-5.781h5.81v5.781z"/>
            <path d="M17.23 16.893h-2.325a.58.58 0 0 0-.58.578v2.313c0 .32.26.578.58.578h2.325a.58.58 0 0 0 .58-.578V17.47a.58.58 0 0 0-.58-.578zM28.851 14.58h-6.973a.58.58 0 0 0-.58.579v6.938c0 .319.26.578.58.578h6.973a.58.58 0 0 0 .581-.578v-6.938a.58.58 0 0 0-.58-.579zm-.58 6.938h-5.812v-5.781h5.811v5.781z"/>
            <path d="M26.527 16.893h-2.324a.58.58 0 0 0-.581.578v2.313c0 .32.26.578.58.578h2.325a.58.58 0 0 0 .581-.578V17.47a.58.58 0 0 0-.581-.578zM19.554 23.831H12.58a.58.58 0 0 0-.581.578v6.938c0 .32.26.578.581.578h6.973a.58.58 0 0 0 .581-.578V24.41a.58.58 0 0 0-.581-.578zm-.581 6.938h-5.81v-5.782h5.81v5.782z"/>
            <path d="M17.23 26.144h-2.325a.58.58 0 0 0-.58.578v2.313c0 .319.26.578.58.578h2.325a.58.58 0 0 0 .58-.578v-2.313a.58.58 0 0 0-.58-.578zM21.297 23.831h1.162v1.156h-1.162zM21.297 26.144h1.162V27.3h-1.162zM21.297 28.456h1.162v1.157h-1.162zM22.46 24.987h1.162v1.157h-1.163zM22.46 27.3h1.162v1.156h-1.163zM22.46 29.613h1.162v1.156h-1.163zM23.622 23.831h1.162v1.156h-1.162zM23.622 26.144h1.162V27.3h-1.162zM23.622 28.456h1.162v1.157h-1.162zM24.784 24.987h1.162v1.157h-1.162zM24.784 27.3h1.162v1.156h-1.162zM24.784 29.613h1.162v1.156h-1.162zM25.946 23.831h1.162v1.156h-1.162zM25.946 26.144h1.162V27.3h-1.162zM25.946 28.456h1.162v1.157h-1.162zM27.108 24.987h1.162v1.157h-1.162zM27.108 27.3h1.162v1.156h-1.162zM27.108 29.613h1.162v1.156h-1.162zM21.297 30.769h1.162v1.156h-1.162zM23.622 30.769h1.162v1.156h-1.162zM25.946 30.769h1.162v1.156h-1.162zM28.27 23.831h1.162v1.156H28.27zM28.27 26.144h1.162V27.3H28.27zM28.27 28.456h1.162v1.157H28.27zM28.27 30.769h1.162v1.156H28.27z"/>
        </g>
        <path fill-rule="nonzero" d="M68.23 9.722h-4.604v-4.62c0-2.553-2.061-4.622-4.604-4.622H56.72c-.636 0-1.151.518-1.151 1.156V5.1H39.454c-.305 0-.598.122-.813.339l-3.79 3.804L31.06 5.44a1.149 1.149 0 0 0-.814-.339H7.226c-.636 0-1.151.517-1.151 1.155v3.466H1.47c-.636 0-1.151.517-1.151 1.155v46.207c0 .638.515 1.155 1.15 1.155h66.76c.636 0 1.151-.517 1.151-1.155V10.877c0-.638-.515-1.155-1.151-1.155zM57.87 2.79h1.152a2.306 2.306 0 0 1 2.302 2.31v34.12a4.557 4.557 0 0 0-2.302-.62H57.87V2.791zm-21.869 8.564l3.93-3.943h15.638v5.775H46.36v2.31h9.208v2.311H39.454v2.31H55.57V31.67H46.36v2.31h9.208v2.311H39.454v2.31H55.57v1.156c0 .638.515 1.155 1.15 1.155h2.303a2.306 2.306 0 0 1 2.302 2.31c0 1.276-1.03 2.31-2.302 2.31H39.454c-.305 0-.598.122-.813.339L36 48.52V11.355zm25.323 35.867v2.931H37.629l2.302-2.31h19.09c.278-.003.554-.031.826-.085a4.679 4.679 0 0 0 .956-.27l.043-.022c.164-.072.323-.153.478-.244zM8.377 7.412H29.77l3.93 3.943V48.52l-2.64-2.65a1.149 1.149 0 0 0-.814-.338H8.376V7.412zm0 40.43H29.77l2.302 2.311H8.377v-2.31zm58.702 8.087H2.622V12.032h3.453v39.276c0 .638.515 1.156 1.15 1.156h55.25c.636 0 1.15-.518 1.15-1.156V12.032h3.454V55.93z"/>
    </g>
</svg>
