<?xml version="1.0" encoding="UTF-8"?>
<svg width="41px" height="39px" viewBox="0 0 41 39" version="1.1" xmlns="http://www.w3.org/2000/svg" xmlns:xlink="http://www.w3.org/1999/xlink">
    <!-- Generator: sketchtool 52.4 (67378) - http://www.bohemiancoding.com/sketch -->
    <title>B5D060F5-D8F6-4485-AE6E-113147AB3017</title>
    <desc>Created with sketchtool.</desc>
    <g id="Page-1" stroke="none" stroke-width="1" fill="none" fill-rule="evenodd">
        <g id="Landing-Page" transform="translate(-599.000000, -3773.000000)" fill="#D8D8D8">
            <g id="Group-12" transform="translate(185.000000, 3768.000000)">
                <g id="Group-11">
                    <path d="M430.313477,12.2666016 C426.944319,12.9013704 424.576179,15.3427522 423.208984,19.5908203 C422.525387,21.6904402 422.183594,23.7656147 422.183594,25.8164062 C422.183594,26.0605481 422.195801,26.2680656 422.220215,26.4389648 C422.244629,26.6098641 422.28125,26.9882783 422.330078,27.5742188 L430.313477,27.5742188 L430.313477,43.5410156 L414.712891,43.5410156 L414.712891,28.8193359 C414.712891,21.5927373 416.153306,16.0263867 419.03418,12.1201172 C421.915053,8.21384766 425.674781,5.96777637 430.313477,5.38183594 L430.313477,12.2666016 Z M454.996094,12.2666016 C452.310533,12.7060569 450.27198,14.2197136 448.880371,16.8076172 C447.488763,19.3955208 446.792969,22.3740066 446.792969,25.7431641 C446.792969,26.0361343 446.805176,26.3291001 446.82959,26.6220703 C446.854004,26.9150405 446.915039,27.2324202 447.012695,27.5742188 L454.996094,27.5742188 L454.996094,43.5410156 L439.322266,43.5410156 L439.322266,28.8193359 C439.322266,23.00876 440.542957,17.8208236 442.984375,13.2553711 C445.425793,8.68991858 449.42966,6.06543311 454.996094,5.38183594 L454.996094,12.2666016 Z" id="“"></path>
                </g>
            </g>
        </g>
    </g>
</svg>