<?xml version="1.0" encoding="UTF-8"?>
<svg width="41px" height="39px" viewBox="0 0 41 39" version="1.1" xmlns="http://www.w3.org/2000/svg" xmlns:xlink="http://www.w3.org/1999/xlink">
    <!-- Generator: sketchtool 52.4 (67378) - http://www.bohemiancoding.com/sketch -->
    <title>4AB43C64-4BFA-4411-AA79-60CF03AB8E2D</title>
    <desc>Created with sketchtool.</desc>
    <g id="Page-1" stroke="none" stroke-width="1" fill="none" fill-rule="evenodd">
        <g id="Landing-Page" transform="translate(-1196.000000, -4117.000000)" fill="#D8D8D8">
            <g id="Group-12" transform="translate(185.000000, 3768.000000)">
                <g id="Group-11">
                    <path d="M1027.31348,356.266602 C1023.94432,356.90137 1021.57618,359.342752 1020.20898,363.59082 C1019.52539,365.69044 1019.18359,367.765615 1019.18359,369.816406 C1019.18359,370.060548 1019.1958,370.268066 1019.22021,370.438965 C1019.24463,370.609864 1019.28125,370.988278 1019.33008,371.574219 L1027.31348,371.574219 L1027.31348,387.541016 L1011.71289,387.541016 L1011.71289,372.819336 C1011.71289,365.592737 1013.15331,360.026387 1016.03418,356.120117 C1018.91505,352.213848 1022.67478,349.967776 1027.31348,349.381836 L1027.31348,356.266602 Z M1051.99609,356.266602 C1049.31053,356.706057 1047.27198,358.219714 1045.88037,360.807617 C1044.48876,363.395521 1043.79297,366.374007 1043.79297,369.743164 C1043.79297,370.036134 1043.80518,370.3291 1043.82959,370.62207 C1043.854,370.915041 1043.91504,371.23242 1044.0127,371.574219 L1051.99609,371.574219 L1051.99609,387.541016 L1036.32227,387.541016 L1036.32227,372.819336 C1036.32227,367.00876 1037.54296,361.820824 1039.98438,357.255371 C1042.42579,352.689919 1046.42966,350.065433 1051.99609,349.381836 L1051.99609,356.266602 Z" id="“" transform="translate(1031.854492, 368.461426) rotate(-180.000000) translate(-1031.854492, -368.461426) "></path>
                </g>
            </g>
        </g>
    </g>
</svg>