<?xml version="1.0" encoding="UTF-8"?>
<svg width="18px" height="18px" viewBox="0 0 18 18" version="1.1" xmlns="http://www.w3.org/2000/svg" xmlns:xlink="http://www.w3.org/1999/xlink">
    <!-- Generator: sketchtool 52.4 (67378) - http://www.bohemiancoding.com/sketch -->
    <title>685EA1D5-9E8C-4595-A4E4-F8E788C9F11A</title>
    <desc>Created with sketchtool.</desc>
    <g id="Page-1" stroke="none" stroke-width="1" fill="none" fill-rule="evenodd">
        <g id="verticals(SLD)-Detail-Page" transform="translate(-1284.000000, -38.000000)" fill="#024F9D">
            <g id="Hedder" transform="translate(0.000000, -2.000000)">
                <g id="Group-3" transform="translate(1284.000000, 39.000000)">
                    <g id="signin" transform="translate(0.000000, 1.000000)">
                        <path d="M9,0 C7.14375,0 5.35673077,0.5625 3.84230769,1.62259615 C2.3625,2.66105769 1.2375,4.09759615 0.592788462,5.78076923 L0.432692308,6.23076923 L2.41009615,6.23076923 L2.49230769,6.01442308 C2.84711538,5.24423077 3.33173077,4.54759615 3.94182692,3.9375 C5.29182692,2.5875 7.0875,1.84326923 9,1.84326923 C10.9125,1.84326923 12.7081731,2.5875 14.0581731,3.9375 C15.4081731,5.2875 16.1524038,7.08317308 16.1524038,8.99567308 C16.1524038,10.9038462 15.4081731,12.7038462 14.0581731,14.0538462 C12.7081731,15.4038462 10.9125,16.1480769 9,16.1480769 C7.09182692,16.1480769 5.29615385,15.4038462 3.94182692,14.0538462 C3.33605769,13.4480769 2.84711538,12.7514423 2.49230769,11.98125 L2.41009615,11.7649038 L0.432692308,11.7649038 L0.588461538,12.2149038 C1.23317308,13.8980769 2.35817308,15.3346154 3.83798077,16.3730769 C5.35673077,17.4418269 7.13942308,18 9,18 C13.9629808,18 18,13.9629808 18,9 C18,4.03701923 13.9629808,0 9,0 Z" id="Path"></path>
                        <polygon id="Path" points="0 9.92596154 8.20817308 9.92596154 6.32163462 11.8600962 7.61538462 13.1538462 11.7692308 9 7.61538462 4.84615385 6.27403846 6.13990385 8.20817308 8.07403846 0 8.07403846 0 9.92596154"></polygon>
                    </g>
                </g>
            </g>
        </g>
    </g>
</svg>