<?xml version="1.0" encoding="UTF-8"?>
<svg width="514px" height="514px" viewBox="0 0 514 514" version="1.1" xmlns="http://www.w3.org/2000/svg" xmlns:xlink="http://www.w3.org/1999/xlink">
    <!-- Generator: sketchtool 52.4 (67378) - http://www.bohemiancoding.com/sketch -->
    <title>D06F967C-320D-471B-98FD-23F0A9043EA9</title>
    <desc>Created with sketchtool.</desc>
    <defs>
        <linearGradient x1="-0.256095062%" y1="50%" x2="100.254388%" y2="50%" id="linearGradient-1">
            <stop stop-color="#E55A28" offset="0%"></stop>
            <stop stop-color="#547DF9" offset="100%"></stop>
        </linearGradient>
        <linearGradient x1="100.254388%" y1="50%" x2="-0.256095062%" y2="50%" id="linearGradient-2">
            <stop stop-color="#E55A28" offset="0%"></stop>
            <stop stop-color="#547DF9" offset="100%"></stop>
        </linearGradient>
    </defs>
    <g id="Page-1" stroke="none" stroke-width="1" fill="none" fill-rule="evenodd">
        <g id="Landing-Page" transform="translate(-215.000000, -2207.000000)">
            <g id="Group-16" transform="translate(217.000000, 2209.000000)">
                <polygon id="Path" fill="#FFFFFF" points="258.5 134 163.473789 179.752909 140 282.557781 205.76663 365 311.24207 365 377 282.557781 353.534912 179.752909"></polygon>
                <g id="Group" transform="translate(228.000000, 219.000000)">
                    <g id="Group-3" transform="translate(24.400000, 0.000000)" fill="#E55A28">
                        <path d="M6.47471429,0.697247706 C9.63322642,0.716484432 12.1794824,3.29039121 12.1650768,6.4494041 C12.1506713,9.60841699 9.58104684,12.1589875 6.42249066,12.1494088 C3.26393448,12.13983 0.709822425,9.57372107 0.714571429,6.4146789 C0.728979702,3.2459907 3.3064845,0.687598183 6.47471429,0.697247706" id="Fill-1"></path>
                    </g>
                    <path d="M47.7717143,4.35779817 C46.2735275,4.35779047 45.057659,5.56994423 45.0528571,7.06834862 L45.0528571,27.7417431 L44.9395714,27.8027523 C44.3731429,28.1165138 43.8241429,28.4389908 43.2664286,28.7701835 C42.1597143,29.4412844 41.0791429,30.1472477 40.016,30.9229358 C38.9187551,31.7131715 37.8844614,32.587354 36.9224286,33.5376147 C35.990106,34.5045932 35.1444777,35.5515802 34.3952857,36.6665138 C34.1077143,37.0761468 33.8462857,37.4857798 33.5848571,37.912844 L33.5848571,20.7344037 C33.5031273,19.2899703 32.3081697,18.1605551 30.8616429,18.1605551 C29.415116,18.1605551 28.2201584,19.2899703 28.1384286,20.7344037 L28.1384286,37.9215596 C27.877,37.4915902 27.6068571,37.0732416 27.328,36.6665138 C26.5730596,35.5534377 25.7247083,34.5066888 24.7921429,33.5376147 C23.8354894,32.5848774 22.8038885,31.7105079 21.7072857,30.9229358 C20.6441429,30.1443425 19.5577619,29.4267584 18.4481429,28.7701835 C17.8991429,28.4302752 17.3327143,28.1077982 16.775,27.7940367 L16.6617143,27.7417431 L16.6617143,7.05963303 C16.5799844,5.61519969 15.3850269,4.48578442 13.9385,4.48578442 C12.4919731,4.48578442 11.2970156,5.61519969 11.2152857,7.05963303 L11.2152857,29.3541284 C11.2190186,30.4367814 11.8665543,31.413371 12.8622857,31.8380734 C13.3328571,32.0472477 13.8905714,32.3087156 14.4047143,32.5614679 C14.9188571,32.8142202 15.4504286,33.0756881 15.9558571,33.3545872 C16.9841429,33.9036697 17.9775714,34.4876147 18.9187143,35.0977064 C19.8221247,35.6809199 20.678718,36.3336605 21.4807143,37.05 C22.2557864,37.790092 22.9697779,38.5916315 23.6157143,39.446789 C24.9535304,41.1962804 26.0470425,43.1197439 26.8661429,45.1642202 C27.2572106,46.1644712 27.571828,47.1929587 27.8072857,48.2408257 C28.0004028,49.1823144 28.1112021,50.1388307 28.1384286,51.0995413 L28.1384286,51.1779817 C28.2201584,52.622415 29.415116,53.7518303 30.8616429,53.7518303 C32.3081697,53.7518303 33.5031273,52.622415 33.5848571,51.1779817 L33.5848571,50.9165138 C33.6218916,50.0175316 33.7297015,49.1228661 33.9072857,48.2408257 C34.1416646,47.1916769 34.4592896,46.1628834 34.8571429,45.1642202 C35.6762432,43.1197439 36.7697553,41.1962804 38.1075714,39.446789 C38.745831,38.5906666 39.4572691,37.7916364 40.2338571,37.0587156 C41.0365641,36.3368757 41.8962651,35.6810729 42.8045714,35.0977064 C43.7457143,34.4788991 44.7391429,33.8949541 45.7587143,33.3545872 L47.3098571,32.5614679 C47.8327143,32.3087156 48.3817143,32.0472477 48.8522857,31.8380734 C49.8495529,31.4152183 50.4978519,30.4374776 50.4992857,29.3541284 L50.4992857,7.05963303 C50.4944838,5.56122863 49.2786153,4.34907487 47.7804286,4.34908257 L47.7717143,4.35779817 Z" id="Fill-4" fill="#024F9D"></path>
                    <g id="Group-8" transform="translate(0.000000, 27.889908)" fill="#008840">
                        <path d="M16.6704286,18.5990826 C13.450338,16.3267453 9.93122061,14.5111943 6.21328571,13.2041284 L6.21328571,2.80642202 C6.13155584,1.36198868 4.9365983,0.232573415 3.49007143,0.232573415 C2.04354455,0.232573415 0.848587017,1.36198868 0.766857143,2.80642202 L0.766857143,15.0866972 C0.756796062,16.286595 1.5367368,17.3503105 2.684,17.7013761 C2.75371429,17.7013761 9.24585714,19.7408257 13.3764286,22.9307339 L13.4548571,22.9830275 C13.5158571,23.0353211 19.9121429,27.6284404 21.9251429,32.6137615 C22.4810175,34.0096738 24.0630833,34.6905911 25.4587857,34.1346329 C26.8544881,33.5786747 27.5353031,31.9963711 26.9794286,30.6004587 C24.4348571,24.3077982 17.3414286,19.0958716 16.6617143,18.6077982" id="Fill-6"></path>
                    </g>
                    <path d="M5.33314286,92.3853211 C5.95695526,92.4571547 6.5837766,92.2784837 7.076,91.8885321 C7.686,91.3045872 8.03457143,90.293578 8.03457143,88.5243119 C8.03457143,86.7550459 7.71214286,85.8224771 7.16314286,85.2123853 C6.673442,84.7763131 6.01780735,84.5757734 5.368,84.6633028 L3.25914286,84.6633028 L3.25914286,92.3853211 L5.33314286,92.3853211 Z M0.932428571,94.1284404 L0.932428571,82.7981651 L5.03685714,82.7981651 C6.84942857,82.7981651 8.30471429,83.1816514 9.19357143,84.1142202 C10.0824286,85.046789 10.5181429,86.4761468 10.5181429,88.4720183 C10.5181429,90.4678899 10.0301429,92.0279817 9.089,92.9344037 C8.14785714,93.8408257 7.04985714,94.1110092 5.27214286,94.1110092 L0.932428571,94.1284404 Z" id="Fill-9" fill="#005EA3"></path>
                    <polygon id="Fill-11" fill="#005EA3" points="12.6618571 94.1284404 14.9711429 94.1284404 14.9711429 82.8330275 12.6618571 82.8330275"></polygon>
                    <polygon id="Fill-13" fill="#005EA3" points="23.2584286 88.1669725 27.1275714 94.1284404 24.5132857 94.1284404 21.3064286 89.2651376 19.9992857 89.2651376 19.9992857 94.1284404 17.69 94.1284404 17.69 82.8330275 19.9992857 82.8330275 19.9992857 87.4784404 21.2628571 87.4784404 24.3302857 82.8330275 26.7528571 82.8330275"></polygon>
                    <path d="M34.3691429,90.8949541 C34.3691429,89.5614679 33.4977143,89.4481651 31.8855714,89.3610092 C29.6547143,89.2477064 27.9292857,88.6811927 27.9292857,86.0316514 C27.9292857,83.5651376 29.8551429,82.5454128 32.7047143,82.5454128 C33.7344562,82.5545864 34.7590328,82.6921931 35.7547143,82.9550459 L35.7547143,84.6981651 C34.7690945,84.4875961 33.7648089,84.3766409 32.757,84.3669725 C31.1012857,84.3669725 30.2995714,84.8463303 30.2995714,85.7963303 C30.2995714,87.1298165 31.171,87.1821101 32.7831429,87.2431193 C34.953,87.3302752 36.7307143,87.9665138 36.7307143,90.7293578 C36.7307143,93.2133028 34.709,94.3986239 31.72,94.3986239 C30.5180878,94.3912611 29.3224822,94.2242028 28.1645714,93.9018349 L28.1645714,92.0889908 C29.3084811,92.3498437 30.4770756,92.4871742 31.6502857,92.4986239 C33.6894286,92.4986239 34.3517143,91.8536697 34.3517143,90.9036697" id="Fill-14" fill="#005EA3"></path>
                    <polygon id="Fill-15" fill="#005EA3" points="38.674 94.1284404 38.674 82.8330275 40.992 82.8330275 40.992 87.4784404 45.7238571 87.4784404 45.7238571 82.8330275 48.0331429 82.8330275 48.0331429 94.1284404 45.7151429 94.1284404 45.7151429 89.2651376 40.992 89.2651376 40.992 94.1284404"></polygon>
                    <path d="M56.3204286,89.7706422 L55.5361429,87.4087156 C55.2137143,86.4238532 54.9784286,85.6045872 54.778,84.8899083 L54.7257143,84.8899083 C54.5252857,85.6045872 54.29,86.4238532 53.9675714,87.4087156 L53.1571429,89.7706422 L56.3204286,89.7706422 Z M56.913,91.5137615 L52.5558571,91.5137615 L51.6844286,94.1284404 L49.349,94.1284404 L53.4447143,82.7981651 L56.059,82.7981651 L60.1372857,94.1284404 L57.7147143,94.1284404 L56.913,91.5137615 Z" id="Fill-16" fill="#005EA3"></path>
                    <path d="M57.5142857,27.9857798 C56.0160989,27.9857721 54.8002305,29.1979259 54.7954286,30.6963303 L54.7954286,41.0940367 C51.078202,42.4027449 47.5593038,44.2181829 44.3382857,46.4889908 C42.8154276,47.5853249 41.3818003,48.8005943 40.0508571,50.1233945 C32.8005714,57.3224771 28.5567143,67.0316514 28.3824286,67.4412844 C28.0952573,68.1007777 28.0838093,68.8477634 28.3506362,69.5157496 C28.6174631,70.1837357 29.1403874,70.7172024 29.8028571,70.9972477 C31.1818481,71.5881766 32.7794447,70.9583723 33.3844286,69.5853211 C33.3844286,69.4894495 37.4104286,60.4077982 43.9025714,53.9495413 C45.0348851,52.8281366 46.2527537,51.7965808 47.5451429,50.8642202 L47.6235714,50.8119266 C51.7541429,47.6481651 58.2462857,45.6261468 58.316,45.5825688 C59.4632632,45.2315032 60.2432039,44.1677877 60.2331429,42.9678899 L60.2331429,30.6788991 C60.2308354,29.9577037 59.9421699,29.2669639 59.4306502,28.7586363 C58.9191305,28.2503086 58.2266583,27.9660334 57.5055714,27.9683486 L57.5142857,27.9857798 Z" id="Fill-17" fill="#008840"></path>
                </g>
                <path d="M255,486 C382.577777,486 486,382.577777 486,255 C486,127.422223 382.577777,24 255,24 C127.422223,24 24,127.422223 24,255 C24,382.577777 127.422223,486 255,486 Z" id="Oval" stroke="url(#linearGradient-1)" stroke-width="3" stroke-linecap="round" stroke-dasharray="11.9"></path>
                <path d="M255,510 C395.832611,510 510,395.832611 510,255 C510,114.167389 395.832611,0 255,0 C114.167389,0 0,114.167389 0,255 C0,395.832611 114.167389,510 255,510 Z" id="Oval" stroke="url(#linearGradient-2)" stroke-width="3" stroke-linecap="round" stroke-dasharray="11.9"></path>
            </g>
        </g>
    </g>
</svg>