<?xml version="1.0" encoding="UTF-8"?>
<svg width="93px" height="92px" viewBox="0 0 93 92" version="1.1" xmlns="http://www.w3.org/2000/svg" xmlns:xlink="http://www.w3.org/1999/xlink">
    <title>C88BE73D-E9E9-47C1-8567-B86F4DD5BE5F</title>
    <defs>
        <filter id="filter-1">
            <feColorMatrix in="SourceGraphic" type="matrix" values="0 0 0 0 0.124600 0 0 0 0 0.278311 0 0 0 0 1.000000 0 0 0 1.000000 0"></feColorMatrix>
        </filter>
    </defs>
    <g id="FLN-Feedback" stroke="none" stroke-width="1" fill="none" fill-rule="evenodd">
        <g id="noun_healthy_1884257" transform="translate(-98.000000, -1549.000000)" filter="url(#filter-1)">
            <g transform="translate(98.000000, 1549.000000)">
                <path d="M42,31 L44,31 C44,28.790861 42.209139,27 40,27 C37.790861,27 36,28.790861 36,31 L38,31 C38,29.8954305 38.8954305,29 40,29 C41.1045695,29 42,29.8954305 42,31 Z" id="Path" fill="#000000" fill-rule="nonzero"></path>
                <path d="M54,27 C51.7919073,27.0025239 50.0025239,28.7919073 50,31 L52,31 C52,29.8954305 52.8954305,29 54,29 C55.1045695,29 56,29.8954305 56,31 L58,31 C57.9974761,28.7919073 56.2080927,27.0025239 54,27 Z" id="Path" fill="#000000" fill-rule="nonzero"></path>
                <path d="M29,24 L31,24 L31,33 C31.0022242,38.2930032 33.6230781,43.2420664 38,46.21838 L38,53 L29.22021,53 C25.998246,52.9361148 22.8863568,54.1726985 20.5870133,56.4306075 C18.2876699,58.6885165 16.9947087,61.777407 16.9999838,65 L16.9999838,79 L19,79 L19,65 C19.0005435,62.3096088 20.0846645,59.7328238 22.0076626,57.8512597 C23.9306607,55.9696955 26.530445,54.9419504 29.22021,55 L39,55 C39.5522847,55 40,54.5522847 40,54 L40,47.36517 C44.4121267,49.5449227 49.5878547,49.5449448 54,47.36523 L54,54 C54,54.5522847 54.4477153,55 55,55 L64.77979,55 C67.469555,54.9419504 70.0693393,55.9696955 71.9923374,57.8512597 C73.9153355,59.7328238 74.9994565,62.3096088 75,65 L77.0000162,65 C77.0052913,61.777407 75.7123301,58.6885165 73.4129867,56.4306075 C71.1136432,54.1726985 68.001754,52.9361148 64.77979,53 L56,53 L56,46.21838 C58.1344478,44.7600316 59.8866791,42.809534 61.10876,40.53156 C61.8409754,45.9475546 66.4600312,49.9909263 71.92529,50 L73,50 C73.5522847,50 74,49.5522847 74,49 L74,20.92529 C73.9933095,14.8941924 69.1058076,10.0066905 63.07471,10 L61.04938,10 C57.75934,6.78943 52.95721,5 47,5 C35.28027,5 28,11.897 28,23 C28,23.5522847 28.4477153,24 29,24 Z M47,47 C39.2716048,46.9913367 33.0086633,40.7283952 33,33 L33,24 L61,24 L61,33 C60.9913367,40.7283952 54.7283952,46.9913367 47,47 L47,47 Z M63.07471,12 C68.0016905,12.005599 71.994401,15.9983095 72,20.92529 L72,48 L71.92529,48 C66.9983095,47.994401 63.005599,44.0016905 63,39.07471 L63,24 L65,24 C65.5522847,24 66,23.5522847 66,23 C66.1127504,19.0824369 64.9776165,15.2303942 62.75848,12 L63.07471,12 Z M47,7 C57.28564,7 63.56592,12.585 63.97852,22 L60,22 L60,17 L58,17 L58,22 L52,22 L52,17 L50,17 L50,22 L44,22 L44,17 L42,17 L42,22 L36,22 L36,17 L34,17 L34,22 L30.02148,22 C30.43408,12.585 36.71436,7 47,7 Z" id="Shape" fill="#000000" fill-rule="nonzero"></path>
                <path d="M47,40 C45.1005955,39.9964993 43.4641776,38.6609464 43.08008,36.80078 L41.12008,37.19922 C41.6904829,39.9932328 44.1483171,41.9999915 46.99996,41.9999915 C49.8516029,41.9999915 52.3094371,39.9932328 52.87984,37.19922 L50.91984,36.80078 C50.5357485,38.660917 48.8993745,39.9964615 47,40 Z" id="Path" fill="#000000" fill-rule="nonzero"></path>
                <path d="M38,72 L43.78711,72 L53.63623,81.84912 C53.823712,82.0367001 54.078051,82.1420897 54.34326,82.1420897 C54.608469,82.1420897 54.862808,82.0367001 55.05029,81.84912 L64.89941,72 L71,72 L71,70 L66.31934,70 C67.7817506,66.9239107 66.8166937,63.2416642 64.0335175,61.2782741 C61.2503414,59.314884 57.457712,59.6408232 55.05034,62.05029 L54.34334,62.75729 L53.63582,62.05029 C51.2294409,59.6369692 47.4341586,59.3089094 44.649357,61.2735106 C41.8645555,63.2381119 40.9007204,66.9235988 42.36719,70 L38,70 L38,72 Z M54.34326,79.728 L46.61523,72 L50,72 C50.3788065,72.0000848 50.7251326,71.7860899 50.89453,71.44727 L52.05859,69.11865 L55.13184,74.49609 C55.3038987,74.7970046 55.6194175,74.9874584 55.96584,74.99951 L56,75 C56.334322,74.9999201 56.6465043,74.8328313 56.832,74.55469 L58.53516,72 L62.07129,72 L54.34326,79.728 Z M45.15088,63.46436 C47.1034548,61.5118784 50.2691052,61.5118784 52.22168,63.46436 L53.63623,64.87842 C53.8237133,65.0659976 54.0780519,65.1713856 54.34326,65.1713856 C54.6084681,65.1713856 54.8628067,65.0659976 55.05029,64.87842 L56.46436,63.46436 C58.3166593,61.6032947 61.2945567,61.496759 63.2751115,63.2207021 C65.2556662,64.9446453 65.5607374,67.9087901 63.97284,70 L58,70 C57.6656461,69.9999529 57.3534077,70.1670717 57.168,70.44531 L56.06546,72.09912 L52.86819,66.50391 C52.6918643,66.1770922 52.3430332,65.9811006 51.97219,66.00049 C51.603603,66.0108072 51.2705628,66.2230122 51.10549,66.55273 L49.38184,70 L44.71368,70 C43.2101207,68.016978 43.3965918,65.2294491 45.15088,63.46436 Z" id="Shape" fill="#000000" fill-rule="nonzero"></path>
                <path d="M11,22 C17.0751322,22 22,17.0751322 22,11 C22,4.92486775 17.0751322,0 11,0 C4.92486775,0 0,4.92486775 0,11 C0.00686108432,17.072288 4.92771198,21.9931389 11,22 L11,22 Z M11,2 C15.9705627,2 20,6.02943725 20,11 C20,15.9705627 15.9705627,20 11,20 C6.02943725,20 2,15.9705627 2,11 C2.00576958,6.03182905 6.03182905,2.00576958 11,2 L11,2 Z" id="Shape" fill="#000000" fill-rule="nonzero"></path>
                <polygon id="Path" fill="#000000" fill-rule="nonzero" points="10 17 12 17 12 12 17 12 17 10 12 10 12 5 10 5 10 10 5 10 5 12 10 12"></polygon>
                <path d="M14,34 C9.02943725,34 5,38.0294373 5,43 C5,47.9705627 9.02943725,52 14,52 C18.9705627,52 23,47.9705627 23,43 C22.9942304,38.0318291 18.9681709,34.0057696 14,34 Z M14,50 C10.1340068,50 7,46.8659932 7,43 C7,39.1340068 10.1340068,36 14,36 C17.8659932,36 21,39.1340068 21,43 C20.9956629,46.8641953 17.8641953,49.9956629 14,50 Z" id="Shape" fill="#000000" fill-rule="nonzero"></path>
                <polygon id="Path" fill="#000000" fill-rule="nonzero" points="15 38 13 38 13 42 9 42 9 44 13 44 13 48 15 48 15 44 19 44 19 42 15 42"></polygon>
                <path d="M85,50 C88.8659932,50 92,46.8659932 92,43 C92,39.1340068 88.8659932,36 85,36 C81.1340068,36 78,39.1340068 78,43 C78.0043371,46.8641953 81.1358047,49.9956629 85,50 Z M85,38 C87.7614237,38 90,40.2385763 90,43 C90,45.7614237 87.7614237,48 85,48 C82.2385763,48 80,45.7614237 80,43 C80.0032401,40.2399195 82.2399195,38.0032401 85,38 L85,38 Z" id="Shape" fill="#000000" fill-rule="nonzero"></path>
                <polygon id="Path" fill="#000000" fill-rule="nonzero" points="84 46 86 46 86 44 88 44 88 42 86 42 86 40 84 40 84 42 82 42 82 44 84 44"></polygon>
                <path d="M83,18 C87.9705627,18 92,13.9705627 92,9 C92,4.02943725 87.9705627,0 83,0 C78.0294373,0 74,4.02943725 74,9 C74.0057696,13.9681709 78.0318291,17.9942304 83,18 Z M83,2 C86.8659932,2 90,5.13400675 90,9 C90,12.8659932 86.8659932,16 83,16 C79.1340068,16 76,12.8659932 76,9 C76.0043371,5.13580468 79.1358047,2.00433715 83,2 Z" id="Shape" fill="#000000" fill-rule="nonzero"></path>
                <polygon id="Path" fill="#000000" fill-rule="nonzero" points="82 14 84 14 84 10 88 10 88 8 84 8 84 4 82 4 82 8 78 8 78 10 82 10"></polygon>
                <path d="M1,89 L4,89 L4,91 C4,91.5522847 4.44771525,92 5,92 L9,92 C9.55228475,92 10,91.5522847 10,91 L10,87 L23,87 L23,91 C23,91.5522847 23.4477153,92 24,92 L28,92 C28.5522847,92 29,91.5522847 29,91 L29,89 L32,89 C32.5522847,89 33,88.5522847 33,88 L33,80 C33,79.4477153 32.5522847,79 32,79 L29,79 L29,77 C29,76.4477153 28.5522847,76 28,76 L24,76 C23.4477153,76 23,76.4477153 23,77 L23,81 L10,81 L10,77 C10,76.4477153 9.55228475,76 9,76 L5,76 C4.44771525,76 4,76.4477153 4,77 L4,79 L1,79 C0.44771525,79 0,79.4477153 0,80 L0,88 C0,88.5522847 0.44771525,89 1,89 Z M31,81 L31,87 L29,87 L29,81 L31,81 Z M25,78 L27,78 L27,90 L25,90 L25,78 Z M23,83 L23,85 L10,85 L10,83 L23,83 Z M6,78 L8,78 L8,90 L6,90 L6,78 Z M2,81 L4,81 L4,87 L2,87 L2,81 Z" id="Shape" fill="#000000" fill-rule="nonzero"></path>
                <path d="M90.62891,76.75049 C89.5188265,75.1283596 87.791639,74.0329145 85.85107,73.72021 C84.5120656,73.5114261 83.1414873,73.67087 81.88617,74.18146 C82.18127,71.40046 83.03473,69.2522 84.63672,66.01318 L82.84372,65.12646 C82.63413,65.55035 82.44172,65.95146 82.25479,66.34686 C81.9386277,66.1936072 81.6107937,66.0657052 81.27438,65.96436 C79.9827024,65.5035285 78.5634809,65.555604 77.30905,66.10986 C76.7289408,66.3958494 76.2898152,66.9051263 76.09229,67.521 C75.59814,69.15918 77.07617,70.9541 79.52393,71.69531 C79.7598556,71.7643955 79.9992116,71.8211754 80.24103,71.86542 C80.078175,72.5955705 79.9588018,73.3347436 79.88354,74.07904 C78.6896036,73.6430668 77.4040359,73.5195464 76.14893,73.72021 C74.208361,74.0329145 72.4811735,75.1283596 71.37109,76.75049 C70.1494004,78.5362284 69.7136327,80.7449062 70.16553,82.86084 C70.95459,86.79053 74.50879,91.99951 78.50098,91.99951 C78.7469762,91.9994969 78.9925679,91.9795752 79.23535,91.93994 C79.6070976,91.8797036 79.9734804,91.790069 80.33105,91.67188 C80.7655309,91.5320705 81.2328967,91.5318992 81.66748,91.67139 C82.0250147,91.7897007 82.3914072,91.8793376 82.76318,91.93945 C87.03955,92.64697 90.99707,87.03027 91.83447,82.86084 C92.2863673,80.7449062 91.8505996,78.5362284 90.62891,76.75049 L90.62891,76.75049 Z M80.10986,69.7832 C78.64893,69.34082 77.90771,68.42871 78.00686,68.09912 C78.03811,67.99658 78.18654,67.90869 78.24904,67.87549 C79.0378552,67.5748817 79.9099163,67.5762706 80.69777,67.87939 C80.9538753,67.9544995 81.2031756,68.0511166 81.44301,68.16821 C81.19063,68.77362 80.9706,69.36157 80.77742,69.94196 C80.5516176,69.9039416 80.3286026,69.8509039 80.10986,69.7832 Z M89.87354,82.46729 C89.2002,85.82324 86.06348,90.45459 83.08398,89.96529 C82.8159398,89.9220955 82.5517696,89.8576012 82.29398,89.77242 C81.4526966,89.4976791 80.5457993,89.4978507 79.70462,89.77291 C79.4467948,89.8579671 79.1826346,89.922459 78.91462,89.96578 C75.93903,90.44578 72.79939,85.82271 72.12653,82.46725 C71.7836719,80.8836733 72.1050538,79.2287756 73.0157,77.88863 C73.8183496,76.7146417 75.0674257,75.9212834 76.47126,75.69381 C76.7531247,75.6479593 77.0382304,75.62496 77.3238,75.62496 C78.4379513,75.6331295 79.5258282,75.964209 80.45564,76.57809 C80.7868011,76.7929304 81.2133389,76.7929304 81.5445,76.57809 C82.7160422,75.7971501 84.1369648,75.4817953 85.52888,75.69381 C86.9327146,75.9212898 88.1817914,76.7146463 88.98445,77.88863 C89.8950751,79.2287998 90.2164279,80.8837115 89.87354,82.46729 L89.87354,82.46729 Z" id="Shape" fill="#000000" fill-rule="nonzero"></path>
                <rect id="Rectangle" fill="#000000" fill-rule="nonzero" x="71" y="90" width="2" height="2"></rect>
                <rect id="Rectangle" fill="#000000" fill-rule="nonzero" x="68" y="87" width="2" height="2"></rect>
                <rect id="Rectangle" fill="#000000" fill-rule="nonzero" x="65" y="90" width="2" height="2"></rect>
                <rect id="Rectangle" fill="#000000" fill-rule="nonzero" x="58" y="90" width="2" height="2"></rect>
                <rect id="Rectangle" fill="#000000" fill-rule="nonzero" x="54" y="88" width="2" height="2"></rect>
                <rect id="Rectangle" fill="#000000" fill-rule="nonzero" x="48" y="90" width="2" height="2"></rect>
                <rect id="Rectangle" fill="#000000" fill-rule="nonzero" x="64" y="84" width="2" height="2"></rect>
                <rect id="Rectangle" fill="#000000" fill-rule="nonzero" x="61" y="87" width="2" height="2"></rect>
            </g>
        </g>
    </g>
</svg>