<?xml version="1.0" encoding="UTF-8"?>
<svg width="92px" height="92px" viewBox="0 0 92 92" version="1.1" xmlns="http://www.w3.org/2000/svg" xmlns:xlink="http://www.w3.org/1999/xlink">
    <title>03C574D5-0926-46E2-9541-A5EDAD084150</title>
    <defs>
        <filter id="filter-1">
            <feColorMatrix in="SourceGraphic" type="matrix" values="0 0 0 0 1.000000 0 0 0 0 0.459843 0 0 0 0 0.162329 0 0 0 1.000000 0"></feColorMatrix>
        </filter>
    </defs>
    <g id="FLN-Feedback" stroke="none" stroke-width="1" fill="none" fill-rule="evenodd">
        <g id="noun_communicate_3741909" transform="translate(-550.000000, -1549.000000)" filter="url(#filter-1)">
            <g transform="translate(550.000000, 1549.000000)">
                <path d="M35.2666667,49.0666667 C35.2666667,42.2919737 29.7746929,36.8 23,36.8 C16.2253071,36.8 10.7333333,42.2919737 10.7333333,49.0666667 C10.7333333,55.8413596 16.2253071,61.3333333 23,61.3333333 C29.7715403,61.3257282 35.2590615,55.8382069 35.2666667,49.0666667 L35.2666667,49.0666667 Z M23,58.2666667 C17.9189803,58.2666667 13.8,54.1476864 13.8,49.0666667 C13.8,43.985647 17.9189803,39.8666667 23,39.8666667 C28.0810197,39.8666667 32.2,43.985647 32.2,49.0666667 C32.1941907,54.1452781 28.0786115,58.2608574 23,58.2666667 Z" id="Shape" fill="#000000" fill-rule="nonzero"></path>
                <path d="M35.2666667,61.3333333 L10.7333333,61.3333333 C4.80827932,61.3400932 0.00675990849,66.1416127 0,72.0666667 L0,82.1866667 C0,82.5858114 0.155700257,82.9692132 0.433933333,83.2554 L8.48393333,91.5354 C8.77261259,91.8323922 9.16915937,92 9.58333333,92 L36.4166667,92 C36.8308125,92 37.2273552,91.8325134 37.5160667,91.5355917 L45.5660667,83.2555917 C45.844346,82.9693573 46,82.5858777 46,82.1866667 L46,72.0666667 C45.9932401,66.1416127 41.1917207,61.3400932 35.2666667,61.3333333 Z M32.2,88.9333333 L13.8,88.9333333 L13.8,76.6666667 L32.2,76.6666667 L32.2,88.9333333 Z M42.9333333,81.5641333 L35.7688333,88.9333333 L35.2666667,88.9333333 L35.2666667,75.1333333 C35.2666667,74.2864967 34.5801699,73.6 33.7333333,73.6 L12.2666667,73.6 C11.4198301,73.6 10.7333333,74.2864967 10.7333333,75.1333333 L10.7333333,88.9333333 L10.2311667,88.9333333 L3.06666667,81.5641333 L3.06666667,72.0666667 C3.07141989,67.834454 6.50112066,64.4047532 10.7333333,64.4 L35.2666667,64.4 C39.4988793,64.4047532 42.9285801,67.834454 42.9333333,72.0666667 L42.9333333,81.5641333 Z" id="Shape" fill="#000000" fill-rule="nonzero"></path>
                <path d="M81.2666667,12.2666667 C81.2666667,5.49197374 75.7746929,0 69,0 C62.2253071,0 56.7333333,5.49197374 56.7333333,12.2666667 C56.7333333,19.0413596 62.2253071,24.5333333 69,24.5333333 C75.7715403,24.5257282 81.2590615,19.0382069 81.2666667,12.2666667 Z M69,21.4666667 C65.2789473,21.4666667 61.9242935,19.2251586 60.5003083,15.7873542 C59.0763231,12.3495499 59.863436,8.39246584 62.4946176,5.76128428 C65.1257992,3.13010272 69.0828832,2.34298977 72.5206876,3.76697497 C75.958492,5.19096017 78.2,8.54561401 78.2,12.2666667 C78.1942961,17.3453219 74.0786552,21.4609628 69,21.4666667 Z" id="Shape" fill="#000000" fill-rule="nonzero"></path>
                <path d="M81.2666667,24.5333333 L56.7333333,24.5333333 C50.8082356,24.5399878 46.0066545,29.3415689 46,35.2666667 L46,45.3866667 C46,45.7858114 46.1557003,46.1692132 46.4339333,46.4554 L54.4839333,54.7354 C54.7726126,55.0323922 55.1691594,55.2 55.5833333,55.2 L82.4166667,55.2 C82.8308125,55.2 83.2273552,55.0325134 83.5160667,54.7355917 L91.5660667,46.4555917 C91.844346,46.1693573 92,45.7858777 92,45.3866667 L92,35.2666667 C91.9933455,29.3415689 87.1917644,24.5399878 81.2666667,24.5333333 L81.2666667,24.5333333 Z M78.2,52.1333333 L59.8,52.1333333 L59.8,39.8666667 L78.2,39.8666667 L78.2,52.1333333 Z M88.9333333,44.7641333 L81.7688333,52.1333333 L81.2666667,52.1333333 L81.2666667,38.3333333 C81.2666667,37.4864967 80.5801699,36.8 79.7333333,36.8 L58.2666667,36.8 C57.4198301,36.8 56.7333333,37.4864967 56.7333333,38.3333333 L56.7333333,52.1333333 L56.2311667,52.1333333 L49.0666667,44.7641333 L49.0666667,35.2666667 C49.0714199,31.034454 52.5011207,27.6047532 56.7333333,27.6 L81.2666667,27.6 C85.4988793,27.6047532 88.9285801,31.034454 88.9333333,35.2666667 L88.9333333,44.7641333 Z" id="Shape" fill="#000000" fill-rule="nonzero"></path>
                <path d="M12.2666667,21.4666667 L21.4666667,21.4666667 L21.4666667,33.7333333 L24.5333333,33.7333333 L24.5333333,21.4666667 L33.7333333,21.4666667 C34.5801699,21.4666667 35.2666667,20.7801699 35.2666667,19.9333333 L35.2666667,17.36615 L44.045,19.8743 C44.5076844,20.0066407 45.0056593,19.9140832 45.3898897,19.6243283 C45.7741202,19.3345733 46,18.881239 46,18.4 L46,6.13333333 C46,5.65209434 45.7741202,5.19876002 45.3898897,4.90900507 C45.0056593,4.61925011 44.5076844,4.52669261 44.045,4.65903333 L35.2666667,7.16718333 L35.2666667,4.6 C35.2666667,3.75316338 34.5801699,3.06666667 33.7333333,3.06666667 L12.2666667,3.06666667 C11.4198301,3.06666667 10.7333333,3.75316338 10.7333333,4.6 L10.7333333,19.9333333 C10.7333333,20.7801699 11.4198301,21.4666667 12.2666667,21.4666667 Z M35.2666667,10.3565167 L42.9333333,8.16615 L42.9333333,16.3671833 L35.2666667,14.1768167 L35.2666667,10.3565167 Z M13.8,6.13333333 L32.2,6.13333333 L32.2,18.4 L13.8,18.4 L13.8,6.13333333 Z" id="Shape" fill="#000000" fill-rule="nonzero"></path>
                <path d="M78.2,59.8 L62.8666667,59.8 C60.3273391,59.8028519 58.2695186,61.8606724 58.2666667,64.4 L58.2666667,66.9554917 L53.9733333,72.68 C53.5644444,73.2251852 53.5644444,73.9748148 53.9733333,74.52 L58.2666667,80.2445083 L58.2666667,82.8 C58.2695186,85.3393276 60.3273391,87.3971481 62.8666667,87.4 L78.2,87.4 C80.7393276,87.3971481 82.7971481,85.3393276 82.8,82.8 L82.8,64.4 C82.7971481,61.8606724 80.7393276,59.8028519 78.2,59.8 Z M79.7333333,82.8 C79.7323827,83.6464425 79.0464425,84.3323827 78.2,84.3333333 L62.8666667,84.3333333 C62.0202241,84.3323827 61.334284,83.6464425 61.3333333,82.8 L61.3333333,79.7333333 C61.3333333,79.4015657 61.2257273,79.0787475 61.0266667,78.8133333 L57.1166667,73.6 L61.0266667,68.3866667 C61.2257273,68.1212525 61.3333333,67.7984343 61.3333333,67.4666667 L61.3333333,64.4 C61.334284,63.5535575 62.0202241,62.8676173 62.8666667,62.8666667 L78.2,62.8666667 C79.0464425,62.8676173 79.7323827,63.5535575 79.7333333,64.4 L79.7333333,82.8 Z" id="Shape" fill="#000000" fill-rule="nonzero"></path>
                <rect id="Rectangle" fill="#000000" fill-rule="nonzero" x="64.4" y="65.9333333" width="12.2666667" height="3.06666667"></rect>
                <rect id="Rectangle" fill="#000000" fill-rule="nonzero" x="64.4" y="78.2" width="12.2666667" height="3.06666667"></rect>
                <rect id="Rectangle" fill="#000000" fill-rule="nonzero" x="64.4" y="72.0666667" width="12.2666667" height="3.06666667"></rect>
                <rect id="Rectangle" fill="#000000" fill-rule="nonzero" x="67.4666667" y="44.4666667" width="3.06666667" height="3.06666667"></rect>
                <rect id="Rectangle" fill="#000000" fill-rule="nonzero" x="21.4666667" y="81.2666667" width="3.06666667" height="3.06666667"></rect>
            </g>
        </g>
    </g>
</svg>