<?xml version="1.0" encoding="UTF-8"?>
<svg width="92px" height="92px" viewBox="0 0 92 92" version="1.1" xmlns="http://www.w3.org/2000/svg" xmlns:xlink="http://www.w3.org/1999/xlink">
    <title>AC163777-639F-45C2-9FD6-464E21374F0C</title>
    <defs>
        <filter id="filter-1">
            <feColorMatrix in="SourceGraphic" type="matrix" values="0 0 0 0 0.000000 0 0 0 0 0.690196 0 0 0 0 0.325490 0 0 0 1.000000 0"></feColorMatrix>
        </filter>
    </defs>
    <g id="FLN-Feedback" stroke="none" stroke-width="1" fill="none" fill-rule="evenodd">
        <g id="noun_Learning_3868403" transform="translate(-1002.000000, -1549.000000)" filter="url(#filter-1)">
            <g transform="translate(1002.000000, 1549.000000)">
                <g id="Group" transform="translate(-0.000000, 0.000000)" fill="#000000" fill-rule="nonzero">
                    <path d="M30.6667223,44.4666665 L33.733389,44.4666665 C33.733389,41.07932 30.9874021,38.3333332 27.6000556,38.3333332 C24.2127092,38.3333332 21.4667223,41.07932 21.4667223,44.4666665 L24.533389,44.4666665 C24.533389,42.7729932 25.9063824,41.3999998 27.6000556,41.3999998 C29.2937289,41.3999998 30.6667223,42.7729932 30.6667223,44.4666665 Z" id="Path"></path>
                    <path d="M46.0000556,41.3999998 C47.6937288,41.3999998 49.0667222,42.7729932 49.0667222,44.4666665 L52.1333889,44.4666665 C52.1333889,41.07932 49.387402,38.3333332 46.0000556,38.3333332 C42.6127091,38.3333332 39.8667223,41.07932 39.8667223,44.4666665 L42.9333889,44.4666665 C42.9333889,42.7729932 44.3063823,41.3999998 46.0000556,41.3999998 Z" id="Path"></path>
                    <path d="M44.4667222,50.5999998 L41.4000556,50.5999998 C41.4000556,50.9817998 39.7685889,52.1333331 36.8000556,52.1333331 C33.8315223,52.1333331 32.2000556,50.9817998 32.2000556,50.5999998 L29.133389,50.5999998 C29.133389,53.2219997 32.4285223,55.1999997 36.8000556,55.1999997 C41.1715889,55.1999997 44.4667222,53.2219997 44.4667222,50.5999998 Z" id="Path"></path>
                    <path d="M81.2667221,0 C78.7293578,0.00757804252 76.6743001,2.0626357 76.6667221,4.59999998 L76.6667221,38.3333332 C76.6636879,38.415417 76.6688243,38.4975992 76.6820554,38.5786665 L79.7487221,56.9786664 C79.8563949,57.7343058 80.5034499,58.2956964 81.2667221,58.2956964 C82.0299942,58.2956964 82.6770493,57.7343058 82.7847221,56.9786664 L85.8513887,38.5786665 C85.8646198,38.4975992 85.8697562,38.415417 85.866722,38.3333332 L85.866722,4.59999998 C85.859144,2.0626357 83.8040863,0.00757804252 81.2667221,0 L81.2667221,0 Z M82.8000554,38.2106665 L81.2667221,47.4106664 L79.7333887,38.2106665 L79.7333887,4.59999998 C79.7333887,3.75316337 80.4198854,3.06666665 81.2667221,3.06666665 C82.1135587,3.06666665 82.8000554,3.75316337 82.8000554,4.59999998 L82.8000554,38.2106665 Z" id="Shape"></path>
                    <path d="M90.466722,65.933333 L85.866722,65.933333 L85.866722,62.8666664 C85.8700322,62.4254219 85.6794309,62.0049778 85.3453887,61.7166664 C85.0204402,61.4237305 84.5828074,61.2890743 84.1493887,61.3486664 L72.0667221,62.851333 L59.9840555,61.3486664 C59.5506368,61.2890743 59.113004,61.4237305 58.7880555,61.7166664 C58.4540133,62.0049778 58.263412,62.4254219 58.2667222,62.8666664 L58.2667222,65.933333 L53.6667222,65.933333 C52.8198856,65.933333 52.1333889,66.6198297 52.1333889,67.4666663 L52.1333889,71.3766663 L46.0000556,70.7019997 L46.0000556,62.4679997 C51.3036331,60.1391924 55.5392482,55.9035773 57.8680555,50.5999998 L64.4000555,50.5999998 C68.6342385,50.5999998 72.0667221,47.1675162 72.0667221,42.9333331 L72.0667221,39.8666665 C72.0574032,36.2265328 69.4979626,33.091218 65.9333888,32.3533332 L65.9333888,29.1333332 C65.9333886,13.0434377 52.8899511,4.34120494e-07 36.8000556,4.34120494e-07 C20.7101601,4.34120494e-07 7.66672265,13.0434377 7.66672241,29.1333332 L7.66672241,32.3533332 C4.10214863,33.091218 1.54270802,36.2265328 1.5333891,39.8666665 L1.5333891,42.9333331 C1.5333891,47.1675162 4.96587267,50.5999998 9.20005573,50.5999998 L15.7320557,50.5999998 C18.060863,55.9035773 22.2964781,60.1391924 27.6000556,62.4679997 L27.6000556,70.6866663 L1.36472244,73.615333 C0.586397542,73.6936231 -0.00466278877,74.3510947 2.77222379e-05,75.133333 L2.77222379e-05,90.4666662 C2.77222379e-05,91.3135029 0.68655249,92.0000004 1.5333891,92.0000004 L90.466722,92.0000004 C91.3135586,92.0000004 92.0000553,91.3135029 92.0000553,90.4666662 L92.0000553,67.4666663 C92.0000553,66.6198297 91.3135586,65.933333 90.466722,65.933333 Z M69.0000555,39.8666665 L69.0000555,42.9333331 C68.9924774,45.4706974 66.9374198,47.5257551 64.4000555,47.5333331 L58.9413888,47.5333331 C59.508454,45.5381362 59.797403,43.4742145 59.8000555,41.3999998 L59.8000555,35.2666665 L64.4000555,35.2666665 C66.9374198,35.2742445 68.9924774,37.3293022 69.0000555,39.8666665 L69.0000555,39.8666665 Z M9.20005573,47.5333331 C6.66269145,47.5257551 4.6076338,45.4706974 4.60005575,42.9333331 L4.60005575,39.8666665 C4.6076338,37.3293022 6.66269145,35.2742445 9.20005573,35.2666665 L13.8000557,35.2666665 L13.8000557,41.3999998 C13.8027082,43.4742145 14.0916573,45.5381362 14.6587224,47.5333331 L9.20005573,47.5333331 Z M13.8000557,32.1999998 L10.7333891,32.1999998 L10.7333891,29.1333332 C10.7333891,14.7371108 22.4038332,3.06666665 36.8000556,3.06666665 C51.196278,3.06666665 62.8667221,14.7371108 62.8667221,29.1333332 L62.8667221,32.1999998 L59.8000555,32.1999998 C59.8000555,19.4974507 49.5026048,9.19999996 36.8000556,9.19999996 C24.0975064,9.19999996 13.8000557,19.4974507 13.8000557,32.1999998 L13.8000557,32.1999998 Z M56.7333888,32.1999998 L52.6853889,32.1999998 C50.5458108,32.1968933 48.4360221,31.6983114 46.5213889,30.7433332 L40.5567223,27.7686665 C40.1254893,27.5385984 39.6079552,27.5385984 39.1767223,27.7686665 L33.2120556,30.7433332 C31.2974224,31.6983114 29.1876337,32.1968933 27.0480556,32.1999998 L16.8667224,32.1999998 C16.8667224,21.1911239 25.7911796,12.2666666 36.8000556,12.2666666 C47.8089316,12.2666666 56.7333888,21.1911239 56.7333888,32.1999998 L56.7333888,32.1999998 Z M16.8667224,41.3999998 L16.8667224,35.2666665 L27.0480556,35.2666665 C29.6663622,35.2645326 32.2485624,34.6557212 34.5920556,33.4879998 L39.8667224,30.8506665 L45.1413889,33.4879998 C47.4848821,34.6557212 50.0670823,35.2645326 52.6853889,35.2666665 L56.7333888,35.2666665 L56.7333888,41.3999998 C56.7333888,52.4088758 47.8089316,61.333333 36.8000556,61.333333 C25.7911796,61.333333 16.8667224,52.4088758 16.8667224,41.3999998 Z M42.9333889,63.541333 L42.9333889,73.5999997 C42.9333889,76.9873461 40.1874021,79.733333 36.8000556,79.733333 C33.4127092,79.733333 30.6667223,76.9873461 30.6667223,73.5999997 L30.6667223,63.541333 C34.6754722,64.6861986 38.924639,64.6861986 42.9333889,63.541333 Z M52.1333889,88.9333329 L3.06672243,88.9333329 L3.06672243,76.513333 L27.615389,73.7839997 C27.7068865,78.7911378 31.7920815,82.8023644 36.8000556,82.8023644 C41.8080297,82.8023644 45.8932247,78.7911378 45.9847222,73.7839997 L52.1333889,74.4586663 L52.1333889,88.9333329 Z M73.6000554,65.749333 L82.8000554,64.599333 L82.8000554,83.1373329 L73.6000554,85.4373329 L73.6000554,65.749333 Z M61.3333888,64.599333 L70.5333888,65.749333 L70.5333888,85.4373329 L61.3333888,83.1373329 L61.3333888,64.599333 Z M88.9333887,88.9333329 L55.2000555,88.9333329 L55.2000555,68.9999997 L58.2667222,68.9999997 L58.2667222,84.3333329 C58.2672668,85.0379819 58.7480012,85.6515507 59.4320555,85.8206663 L71.6987221,88.8873329 C71.9402221,88.9486662 72.1932221,88.9486662 72.4347221,88.8873329 L84.7013887,85.8206663 C85.385443,85.6515507 85.8661774,85.0379819 85.866722,84.3333329 L85.866722,68.9999997 L88.9333887,68.9999997 L88.9333887,88.9333329 Z" id="Shape"></path>
                </g>
            </g>
        </g>
    </g>
</svg>