<?xml version="1.0" encoding="UTF-8"?>
<svg width="233px" height="233px" viewBox="0 0 233 233" version="1.1" xmlns="http://www.w3.org/2000/svg" xmlns:xlink="http://www.w3.org/1999/xlink">
    <title>C517DD4A-B41A-4083-8B99-56746E214A34</title>
    <defs>
        <polygon id="path-1" points="0 0 231.999769 0 231.999769 119 0 119"></polygon>
    </defs>
    <g id="FLN-Feedback" stroke="none" stroke-width="1" fill="none" fill-rule="evenodd">
        <g id="FLN-Landing-Page" transform="translate(-661.000000, -451.000000)">
            <g id="Group-34-Copy" transform="translate(661.000000, 451.697745)">
                <g id="Group-8" transform="translate(0.000000, 113.302255)">
                    <g id="Group-3">
                        <mask id="mask-2" fill="white">
                            <use xlink:href="#path-1"></use>
                        </mask>
                        <g id="Clip-2"></g>
                        <path d="M102.02357,97.2577251 C80.5020992,103.681725 58.7520451,87.1783719 60.1281631,64.7578726 C60.1593336,64.2337 60.1997397,63.7199186 60.2493816,63.2153736 C61.6716781,48.5766429 -6.19449392,31.2754851 0.458667542,12.6442683 C7.11298346,-5.98694844 68.3248396,-7.31816198 101.591801,31.2754851 C134.858763,69.8691322 152.908768,54.5630629 169.167049,51.5704302 C185.42533,48.5766429 202.724935,57.891674 209.378097,75.1928318 C216.031258,92.492835 208.047003,111.124052 231.999769,113.785324 C231.999769,113.785324 193.409586,129.755269 157.480436,105.800352 C135.773097,91.3278789 115.037814,93.3726136 102.02357,97.2577251" id="Fill-1" fill="#024F9D" mask="url(#mask-2)"></path>
                    </g>
                    <path d="M19.8561601,14.121188 C19.8561601,14.121188 69.8362605,41.1795753 85.7585931,53.2586352 C101.68208,65.3400043 116.507674,76.8729549 144.510292,77.4213733 C162.994374,77.7839068 178.608466,89.1529092 187.086831,96.8400035 C195.671406,104.621772 206.023462,110.287223 217.330258,112.815721 C222.244801,113.916021 227.346366,114.448276 232,113.785555" id="Stroke-4" stroke="#7D7BA2" stroke-width="1.54000001" stroke-linecap="round"></path>
                    <polyline id="Stroke-6" stroke="#7D7BA2" stroke-width="1.54000001" stroke-linecap="round" points="52.085261 16.1180083 59.9609971 36.7754868 35.7230785 32.4816593"></polyline>
                    <line x1="68.4461735" y1="64.0989623" x2="98.095053" y2="62.3082318" id="Stroke-8" stroke="#7D7BA2" stroke-width="1.54000001" stroke-linecap="round"></line>
                    <line x1="80.8566343" y1="29.0967053" x2="85.7584777" y2="53.2594434" id="Stroke-10" stroke="#7D7BA2" stroke-width="1.54000001" stroke-linecap="round"></line>
                    <polyline id="Stroke-12" stroke="#7D7BA2" stroke-width="1.54000001" stroke-linecap="round" points="104.379826 52.2296868 123.087874 74.1779691 89.3141036 74.1779691"></polyline>
                    <polyline id="Stroke-14" stroke="#7D7BA2" stroke-width="1.54000001" stroke-linecap="round" points="137.083641 63.2037125 158.703241 79.8179041 139.610757 86.1287568"></polyline>
                </g>
                <g id="Group-17" transform="translate(110.725361, 98.851339) scale(-1, 1) rotate(11.000000) translate(-110.725361, -98.851339) translate(41.752324, 11.556830)">
                    <path d="M48.7601296,99.856601 C48.7601296,99.856601 -10.5072476,55.7022064 21.5551064,31.9962482 C53.6191149,8.2919443 64.3049118,86.252435 48.7601296,99.856601 Z" id="Stroke-1" fill="#00C786"></path>
                    <path d="M26.4127681,154.358136 C26.4127681,154.358136 -16.3916326,116.485514 6.9817904,99.8570973 C30.353559,83.2253716 35.1579489,136.96373 26.4127681,154.358136 Z" id="Stroke-3" fill="#FBBD52"></path>
                    <path d="M93.1544128,159.356918 C86.8461695,167.62894 70.5205085,177.727423 30.4905437,158.215379 C30.4905437,158.215379 55.6656129,133.697109 75.642544,136.724668 C83.7061102,137.947273 88.710683,140.696893 91.8143454,143.540814 C96.2895088,147.645391 96.8371166,154.529367 93.1544128,159.356918 Z" id="Stroke-5" fill="#63C9F6"></path>
                    <path d="M57.1792273,104.94257 C57.1792273,104.94257 84.7234034,80.5053656 106.215769,80.3134547 C118.441816,80.204264 126.652624,84.2062678 131.457014,87.6755535 C136.570778,91.3665294 139.15992,97.8286323 137.391362,103.882097 C135.503687,110.347509 128.637909,117.205015 108.03065,117.254647 C68.9850559,117.352257 57.1792273,104.94257 57.1792273,104.94257 Z" id="Stroke-7" fill="#FBBD52"></path>
                    <path d="M75.9462926,68.3178659 C75.9462926,68.3178659 75.6418822,32.2981769 88.6587348,15.3471512 C101.673933,-1.60222022 116.202911,-2.81324412 124.072912,3.54297695 C131.942913,9.89919801 137.39252,25.2107092 125.887793,40.8613732 C114.386375,56.5120373 75.9462926,68.3178659 75.9462926,68.3178659 Z" id="Stroke-9" fill="#E55A28"></path>
                    <path d="M22.9860006,174.589018 C22.9860006,174.589018 61.6560452,67.1238824 114.448084,15.5081247" id="Stroke-11" stroke="#345C80" stroke-width="2.20000005" stroke-linecap="round"></path>
                    <path d="M27.3562749,49.3018128 C27.3562749,49.3018128 46.6019593,78.242306 53.6249053,104.965898 C53.6249053,104.965898 82.8400296,92.3196316 118.148325,96.7021484" id="Stroke-13" stroke="#345C80" stroke-width="2.20000005" stroke-linecap="round"></path>
                    <path d="M84.1860529,150.853942 C64.3464373,148.835569 30.4907091,158.214387 30.4907091,158.214387 C30.4907091,158.214387 16.2479431,138.533594 15.2453741,123.845793" id="Stroke-15" stroke="#345C80" stroke-width="2.20000005" stroke-linecap="round"></path>
                </g>
            </g>
        </g>
    </g>
</svg>