<svg width="45" height="44" viewBox="0 0 45 44" fill="none" xmlns="http://www.w3.org/2000/svg">
<path d="M0.832031 40.8244C0.832031 35.2021 0.832031 29.5799 0.832031 23.9565C0.887799 23.7812 0.939013 23.6037 1.00047 23.4307C1.54904 21.8988 2.9785 20.8597 4.56389 20.8597C16.6153 20.8574 28.6656 20.8563 40.717 20.8597C42.7747 20.8597 44.4773 22.5737 44.4796 24.6393C44.4841 29.8064 44.4841 34.9734 44.4796 40.1392C44.4773 42.2049 42.7736 43.92 40.7181 43.9212C28.6667 43.9246 16.6164 43.9234 4.56502 43.9223C4.33854 43.9223 4.1132 43.9166 3.88899 43.8631C2.24556 43.4773 1.2702 42.4223 0.832031 40.8244ZM31.619 32.3864C31.619 33.9764 31.6167 35.5652 31.619 37.1551C31.6213 38.2511 32.1129 38.7439 33.2055 38.7473C34.6816 38.7507 36.1578 38.7507 37.6327 38.7473C38.5887 38.745 39.2056 38.2466 39.1965 37.492C39.1874 36.7351 38.5796 36.2606 37.6123 36.2571C36.5902 36.2549 35.5682 36.2458 34.5473 36.2606C34.2139 36.2651 34.0932 36.1468 34.1035 35.8156C34.1217 35.234 34.1228 34.6513 34.1035 34.0708C34.0921 33.7305 34.2287 33.6281 34.553 33.6327C35.5887 33.6452 36.6244 33.6395 37.6612 33.6349C38.5876 33.6315 39.1919 33.1376 39.1965 32.3944C39.1999 31.6524 38.5922 31.155 37.6692 31.1459C37.6123 31.1459 37.5553 31.1459 37.4984 31.1459C36.5481 31.1459 35.5967 31.1311 34.6463 31.1527C34.2537 31.1618 34.075 31.0594 34.1012 30.6338C34.1319 30.125 34.1069 29.6129 34.1092 29.1019C34.1114 28.5305 34.1126 28.5283 34.668 28.5271C35.7036 28.5248 36.7405 28.5351 37.7761 28.5226C38.6058 28.5123 39.1817 28.0036 39.1976 27.298C39.2136 26.5844 38.6183 26.0586 37.7693 26.0358C37.7272 26.0347 37.684 26.0358 37.6418 26.0358C36.1657 26.0358 34.6896 26.0335 33.2146 26.0358C32.1152 26.0381 31.6224 26.5263 31.6201 27.62C31.6167 29.21 31.6201 30.7988 31.6201 32.3887L31.619 32.3864ZM25.1238 32.1338C25.0282 31.7685 24.9303 31.4031 24.8381 31.0366C24.4978 29.6891 24.1644 28.3405 23.8173 26.9952C23.6784 26.4569 23.3108 26.1439 22.7645 26.0768C22.2865 26.0176 21.903 26.2213 21.6344 26.614C21.3828 26.9816 21.4079 27.3879 21.5114 27.8021C21.8722 29.2316 22.2285 30.6633 22.5858 32.0939C23.0433 33.924 23.5009 35.753 23.955 37.5842C24.0733 38.0622 24.2896 38.4617 24.7846 38.6392C25.5426 38.9101 26.2096 38.4844 26.4383 37.5751C26.9573 35.5128 27.4683 33.4483 27.9839 31.3838C28.2832 30.1865 28.5825 28.9903 28.8841 27.7942C28.9888 27.381 29.0082 26.9747 28.7544 26.6071C28.4835 26.2145 28.0908 26.0119 27.6219 26.0722C27.0836 26.1416 26.7137 26.4626 26.5749 27.0021C26.23 28.3484 25.9 29.6982 25.5529 31.0435C25.4584 31.4077 25.4152 31.7889 25.1238 32.1349V32.1338ZM6.06277 32.4081C6.06277 34.0253 6.05708 35.6437 6.06505 37.261C6.0696 38.143 6.51005 38.7075 7.33063 38.7268C9.01844 38.7689 10.7085 38.7633 12.3963 38.728C13.1259 38.712 13.6323 38.1567 13.6414 37.5125C13.6505 36.8592 13.1236 36.3357 12.377 36.264C12.2507 36.2515 12.1221 36.2571 11.9946 36.256C11.0443 36.256 10.0928 36.256 9.14249 36.256C8.55751 36.256 8.55523 36.2526 8.55523 35.6676C8.55523 33.0135 8.55295 30.3606 8.55523 27.7065C8.55523 27.4345 8.54157 27.1671 8.45735 26.9076C8.29574 26.4102 7.80294 26.0495 7.29876 26.0551C6.78661 26.062 6.31088 26.4216 6.15382 26.9258C6.08098 27.158 6.0605 27.3958 6.06164 27.6394C6.06505 29.2293 6.06391 30.8181 6.06391 32.4081H6.06277ZM16.2853 32.3921C16.2853 33.9684 16.2841 35.5436 16.2853 37.1198C16.2864 38.1134 16.7769 38.7382 17.5417 38.7268C18.2974 38.7155 18.7743 38.1066 18.7754 37.1403C18.7777 33.9741 18.7754 30.809 18.7777 27.6428C18.7777 27.3845 18.7549 27.1307 18.6719 26.8882C18.4625 26.268 17.7887 25.9322 17.1639 26.1291C16.6028 26.3067 16.2887 26.7972 16.2864 27.5381C16.2807 29.1565 16.2853 30.7749 16.2841 32.3933L16.2853 32.3921Z" fill="#6D13D7"/>
<path d="M33.2897 0.273599C33.6368 0.428382 33.8906 0.684456 34.1092 0.992883C35.55 3.02782 36.407 5.279 36.6517 7.76348C37.0056 11.3599 36.1225 14.6229 34.0227 17.5603C33.6755 18.0451 33.218 18.2739 32.6285 18.1794C32.1243 18.0998 31.7783 17.7948 31.6178 17.3111C31.4528 16.8137 31.586 16.371 31.891 15.9533C32.8595 14.6285 33.5287 13.1593 33.8303 11.5488C34.4324 8.33482 33.8724 5.34501 31.9968 2.63403C31.8113 2.36658 31.6065 2.10823 31.5609 1.77021C31.4733 1.10897 31.7396 0.653727 32.435 0.274737H33.2874L33.2897 0.273599Z" fill="#6D13D7"/>
<path d="M12.8436 0.273599C13.8224 0.806233 14.0125 1.60746 13.3535 2.52819C11.6611 4.89545 11.0067 7.54611 11.2708 10.4164C11.4517 12.3865 12.1414 14.1938 13.2909 15.8145C13.4798 16.0808 13.679 16.3414 13.7188 16.6817C13.7939 17.3133 13.4889 17.8676 12.9358 18.0998C12.3633 18.3411 11.7374 18.1829 11.3368 17.6593C10.6437 16.7534 10.0644 15.7758 9.65009 14.7128C7.75969 9.86102 8.25249 5.27103 11.1968 0.95874C11.4028 0.657141 11.6623 0.427244 11.9912 0.272461H12.8436V0.273599Z" fill="#6D13D7"/>
<path d="M26.5066 9.21116C26.5066 11.3986 24.8176 13.0853 22.6268 13.0841C20.4678 13.083 18.7754 11.3872 18.7754 9.22482C18.7754 7.03623 20.4644 5.35184 22.6564 5.35297C24.8176 5.35411 26.5055 7.04534 26.5066 9.21116Z" fill="#6D13D7"/>
<path d="M13.6505 9.43536C13.646 7.0442 14.3493 5.17201 15.6718 3.52176C15.9507 3.1735 16.2557 2.85483 16.7337 2.80589C17.305 2.74671 17.775 2.92767 18.0653 3.44437C18.36 3.9679 18.3168 4.49029 17.9446 4.95464C17.4803 5.53279 17.0455 6.12575 16.7803 6.82341C15.8949 9.15311 16.2352 11.2984 17.7682 13.2571C17.9799 13.5269 18.195 13.7886 18.236 14.146C18.3031 14.7389 18.0231 15.2704 17.5121 15.5185C16.9841 15.7746 16.3718 15.6779 15.9518 15.2238C14.8786 14.0629 14.1934 12.6949 13.8463 11.1562C13.6983 10.504 13.6335 9.84281 13.6517 9.43764L13.6505 9.43536Z" fill="#6D13D7"/>
<path d="M31.6281 9.00744C31.6452 11.3656 30.9407 13.2514 29.6102 14.9154C29.3314 15.2636 29.0264 15.5811 28.5484 15.6324C27.977 15.6927 27.5138 15.5072 27.2156 14.995C26.9243 14.4954 26.9653 13.9263 27.3647 13.4506C27.9941 12.7017 28.4858 11.88 28.7373 10.932C29.3041 8.79461 28.8693 6.86666 27.4888 5.14811C27.2817 4.8909 27.0859 4.63483 27.0472 4.29339C26.9801 3.6993 27.26 3.16781 27.7699 2.92084C28.3003 2.66476 28.9091 2.75923 29.3302 3.21447C30.4046 4.3742 31.0898 5.74334 31.4357 7.28207C31.5791 7.92054 31.6531 8.56699 31.6269 9.0063L31.6281 9.00744Z" fill="#6D13D7"/>
</svg>
