<?xml version="1.0" encoding="UTF-8"?>
<svg width="31px" height="36px" viewBox="0 0 31 36" version="1.1" xmlns="http://www.w3.org/2000/svg" xmlns:xlink="http://www.w3.org/1999/xlink">
    <title>393785A7-9717-4A9E-AA4D-681600A49BAB</title>
    <g id="FLN-Feedback" stroke="none" stroke-width="1" fill="none" fill-rule="evenodd">
        <g id="FLN-Landing-Page" transform="translate(-180.000000, -482.000000)" fill-rule="nonzero">
            <g id="Group-12" transform="translate(160.000000, 261.000000)">
                <g id="Group-11" transform="translate(0.000000, 0.000000)">
                    <g id="Group-10" transform="translate(0.000000, 202.600000)">
                        <g id="pdf" transform="translate(20.000000, 19.000000)">
                            <path d="M6.61666667,0 C5.3975,0 4.4,0.984375 4.4,2.1875 L4.4,32.8125 C4.4,34.015625 5.3975,35 6.61666667,35 L28.7833333,35 C30.0025,35 31,34.015625 31,32.8125 L31,8.75 L22.1333333,0 L6.61666667,0 Z" id="Path" fill="#E2E5E7"></path>
                            <path d="M24.325,8.79943503 L31,8.79943503 L22.1,0 L22.1,6.59957627 C22.1,7.80949859 23.10125,8.79943503 24.325,8.79943503 Z" id="Path" fill="#B0B7BD"></path>
                            <polygon id="Path" fill="#CAD1D8" points="31 15.3248588 24.4 8.79943503 31 8.79943503"></polygon>
                            <path d="M26.6,28.4663371 C26.6,29.0690325 26.10125,29.5621469 25.4916667,29.5621469 L1.10833333,29.5621469 C0.49875,29.5621469 0,29.0690325 0,28.4663371 L0,17.5082392 C0,16.9055438 0.49875,16.4124294 1.10833333,16.4124294 L25.4916667,16.4124294 C26.10125,16.4124294 26.6,16.9055438 26.6,17.5082392 L26.6,28.4663371 Z" id="Path" fill="#F15642"></path>
                            <g id="Group" transform="translate(4.800000, 20.070621)" fill="#FFFFFF">
                                <path d="M0,0.603698272 C0,0.314973011 0.230500612,0 0.601739579,0 L2.64854069,0 C3.80104375,0 4.8382965,0.761184778 4.8382965,2.22012227 C4.8382965,3.60250382 3.80104375,4.37243785 2.64854069,4.37243785 L1.1691257,4.37243785 L1.1691257,5.52733889 C1.1691257,5.9123059 0.920894272,6.1299435 0.601739579,6.1299435 C0.309181109,6.1299435 0,5.9123059 0,5.52733889 L0,0.603698272 L0,0.603698272 Z M1.1691257,1.10131188 L1.1691257,3.27987521 L2.64854069,3.27987521 C3.24252303,3.27987521 3.71238967,2.76257579 3.71238967,2.22012227 C3.71238967,1.6087684 3.24252303,1.10131188 2.64854069,1.10131188 L1.1691257,1.10131188 Z" id="Shape"></path>
                                <path d="M6.57370015,6.1299435 C6.28114168,6.1299435 5.96198699,5.972457 5.96198699,5.58858364 L5.96198699,0.621196772 C5.96198699,0.307317417 6.28114168,0.0787432528 6.57370015,0.0787432528 L8.60277044,0.0787432528 C12.6520456,0.0787432528 12.5633915,6.1299435 8.68255911,6.1299435 L6.57370015,6.1299435 L6.57370015,6.1299435 Z M7.13222086,1.14615179 L7.13222086,5.06362862 L8.60277044,5.06362862 C10.9953225,5.06362862 11.1017074,1.14615179 8.60277044,1.14615179 L7.13222086,1.14615179 L7.13222086,1.14615179 Z" id="Shape"></path>
                                <path d="M13.9995877,1.21614579 L13.9995877,2.60618294 L16.2591586,2.60618294 C16.5783133,2.60618294 16.8974679,2.92115595 16.8974679,3.22628605 C16.8974679,3.51501131 16.5783133,3.75124107 16.2591586,3.75124107 L13.9995877,3.75124107 L13.9995877,5.58748998 C13.9995877,5.89371374 13.7790606,6.12884985 13.4687713,6.12884985 C13.0786934,6.12884985 12.8404355,5.89371374 12.8404355,5.58748998 L12.8404355,0.620103116 C12.8404355,0.306223761 13.0798016,0.0776495966 13.4687713,0.0776495966 L16.5794214,0.0776495966 C16.9694994,0.0776495966 17.2,0.306223761 17.2,0.620103116 C17.2,0.900079126 16.9694994,1.21505214 16.5794214,1.21505214 L13.9995877,1.21505214 L13.9995877,1.21614579 Z" id="Path"></path>
                            </g>
                            <path d="M25.495,29.5621469 L4.5,29.5621469 L4.5,30.6497175 L25.495,30.6497175 C26.10275,30.6497175 26.6,30.1603107 26.6,29.5621469 L26.6,28.4745763 C26.6,29.0727401 26.10275,29.5621469 25.495,29.5621469 Z" id="Path" fill="#CAD1D8"></path>
                        </g>
                    </g>
                </g>
            </g>
        </g>
    </g>
</svg>