<?xml version="1.0" encoding="UTF-8"?>
<svg width="282px" height="281px" viewBox="0 0 282 281" version="1.1" xmlns="http://www.w3.org/2000/svg" xmlns:xlink="http://www.w3.org/1999/xlink">
    <title>6CA73C1B-34C0-4EAD-9EC8-509CCC55612B</title>
    <defs>
        <polygon id="path-1" points="0 0 280.99972 0 280.99972 144 0 144"></polygon>
    </defs>
    <g id="FLN-Feedback" stroke="none" stroke-width="1" fill="none" fill-rule="evenodd">
        <g id="FLN-Landing-Page" transform="translate(46.000000, -12.000000)">
            <g id="Group-34-Copy-2" transform="translate(95.500000, 152.500000) rotate(-180.000000) translate(-95.500000, -152.500000) translate(-45.000000, 12.000000)">
                <g id="Group-8" transform="translate(0.000000, 137.000000)">
                    <g id="Group-3">
                        <mask id="mask-2" fill="white">
                            <use xlink:href="#path-1"></use>
                        </mask>
                        <g id="Clip-2"></g>
                        <path d="M123.571652,117.69002 C97.5046977,125.4636 71.1608822,105.493156 72.8276459,78.3624676 C72.8653997,77.7281748 72.91434,77.1064561 72.9744665,76.4959143 C74.6971619,58.78182 -7.50281375,37.8459652 0.555541291,15.3006272 C8.61529462,-7.24471071 82.7555169,-8.85559097 123.04869,37.8459652 C163.341864,84.5475213 185.204155,66.0258912 204.896297,62.4045542 C224.588438,58.78182 245.54184,70.0537904 253.600195,90.9896452 C261.65855,111.924103 251.987964,134.469441 280.99972,137.689804 C280.99972,137.689804 234.259024,157.014779 190.74139,128.027317 C164.449311,110.514408 139.334594,112.988709 123.571652,117.69002" id="Fill-1" fill="#024F9D" mask="url(#mask-2)"></path>
                    </g>
                    <path d="M24.049918,17.0878241 C24.049918,17.0878241 84.5861604,49.8307466 103.871399,64.4474242 C123.158037,79.0668959 141.114899,93.0227354 175.031862,93.6863677 C197.41991,94.1250636 216.331806,107.882512 226.60086,117.184542 C236.998557,126.601136 249.537039,133.456808 263.231907,136.516502 C269.184435,137.847958 275.363486,138.492031 281,137.690084" id="Stroke-4" stroke="#7D7BA2" stroke-width="1.54000001" stroke-linecap="round"></path>
                    <polyline id="Stroke-6" stroke="#7D7BA2" stroke-width="1.54000001" stroke-linecap="round" points="63.0860273 19.5041445 72.6251732 44.5014294 43.2680391 39.3055372"></polyline>
                    <line x1="82.9024774" y1="77.5651308" x2="118.813405" y2="75.3981965" id="Stroke-8" stroke="#7D7BA2" stroke-width="1.54000001" stroke-linecap="round"></line>
                    <line x1="97.9341131" y1="35.2094586" x2="103.87126" y2="64.4484021" id="Stroke-10" stroke="#7D7BA2" stroke-width="1.54000001" stroke-linecap="round"></line>
                    <polyline id="Stroke-12" stroke="#7D7BA2" stroke-width="1.54000001" stroke-linecap="round" points="126.425565 63.2023101 149.084882 89.761576 108.177858 89.761576"></polyline>
                    <polyline id="Stroke-14" stroke="#7D7BA2" stroke-width="1.54000001" stroke-linecap="round" points="166.036652 76.4818034 192.22246 96.5863713 169.097512 104.223033"></polyline>
                </g>
                <g id="Group-17" transform="translate(134.138036, 119.707649) scale(-1, 1) rotate(11.000000) translate(-134.138036, -119.707649) translate(50.612610, 13.995166)">
                    <path d="M59.0478644,120.925007 C59.0478644,120.925007 -12.7241363,67.4546264 26.1029454,38.7470283 C64.9320304,10.0414336 77.8723875,104.450544 59.0478644,120.925007 Z" id="Stroke-1" fill="#00C786"></path>
                    <path d="M31.9855087,186.925637 C31.9855087,186.925637 -19.8500477,141.062399 8.45485472,120.925608 C36.7577537,100.784811 42.5758055,165.861244 31.9855087,186.925637 Z" id="Stroke-3" fill="#FBBD52"></path>
                    <path d="M112.808747,192.979095 C105.169549,202.996402 85.3993919,215.22553 36.9236403,191.596707 C36.9236403,191.596707 67.4103122,161.905409 91.6021084,165.571744 C101.366979,167.052301 107.42745,170.382054 111.185943,173.826004 C116.605306,178.796592 117.268452,187.132995 112.808747,192.979095 Z" id="Stroke-5" fill="#63C9F6"></path>
                    <path d="M69.243279,127.084048 C69.243279,127.084048 102.598908,97.4909202 128.625874,97.2585187 C143.431454,97.1262902 153.374633,101.972663 159.192685,106.173922 C165.385384,110.643644 168.520801,118.469164 166.379101,125.79983 C164.093151,133.629357 155.778787,141.933704 130.823672,141.993808 C83.5399794,142.112012 69.243279,127.084048 69.243279,127.084048 Z" id="Stroke-7" fill="#FBBD52"></path>
                    <path d="M91.9699439,82.7320212 C91.9699439,82.7320212 91.601307,39.11266 107.364541,18.5851946 C123.125772,-1.94026724 140.72017,-3.40680097 150.250636,4.29049766 C159.781101,11.9877963 166.380503,30.5298314 152.448433,49.4825761 C138.520369,68.4353208 91.9699439,82.7320212 91.9699439,82.7320212 Z" id="Stroke-9" fill="#E55A28"></path>
                    <path d="M27.8357391,211.424964 C27.8357391,211.424964 74.6646455,81.2861231 138.595098,18.7801314" id="Stroke-11" stroke="#345C80" stroke-width="2.20000005" stroke-linecap="round"></path>
                    <path d="M33.1280827,59.7038354 C33.1280827,59.7038354 56.434349,94.7503854 64.9390425,127.112297 C64.9390425,127.112297 100.318167,111.797838 143.07604,117.105007" id="Stroke-13" stroke="#345C80" stroke-width="2.20000005" stroke-linecap="round"></path>
                    <path d="M101.948183,182.682105 C77.9226744,180.237882 36.9238406,191.595505 36.9238406,191.595505 C36.9238406,191.595505 19.6760416,167.762328 18.461944,149.975598" id="Stroke-15" stroke="#345C80" stroke-width="2.20000005" stroke-linecap="round"></path>
                </g>
            </g>
        </g>
    </g>
</svg>