<svg width="45" height="43" viewBox="0 0 45 43" fill="none" xmlns="http://www.w3.org/2000/svg">
<path d="M22.6496 24.0782C18.2751 24.0782 13.8993 24.0795 9.52485 24.0782C6.32171 24.0768 3.86997 21.7846 3.83959 18.6658C3.79815 14.4056 3.80091 10.1454 3.83959 5.88518C3.86721 2.78246 6.33829 0.451404 9.52347 0.450064C18.2738 0.444705 27.024 0.444705 35.7743 0.450064C38.9747 0.451404 41.4499 2.75433 41.4831 5.85973C41.53 10.136 41.5259 14.4136 41.4831 18.6899C41.4568 21.4001 39.5866 23.4967 36.8545 24.0165C36.5534 24.0741 36.2384 24.0755 35.9304 24.0755C31.5035 24.0795 27.0765 24.0782 22.6496 24.0782ZM19.3912 12.2554C19.3912 13.5763 19.3843 14.8959 19.3953 16.2169C19.3995 16.6737 19.5583 17.0676 20.0224 17.2859C20.4755 17.4989 20.8567 17.3596 21.2158 17.081C22.8844 15.7868 24.5599 14.5007 26.2174 13.1945C26.9895 12.5863 26.9923 11.958 26.2326 11.3618C24.5723 10.0583 22.8955 8.77355 21.2269 7.48075C21.0639 7.35482 20.894 7.24899 20.6813 7.21415C19.9188 7.08822 19.4078 7.53568 19.3953 8.39442C19.3788 9.68052 19.3912 10.968 19.3912 12.2554Z" fill="#6D13D7"/>
<path d="M21.6758 35.7897C19.0417 35.0502 17.9519 32.896 18.213 31.0137C18.5334 28.6974 20.3512 27.2157 22.7656 27.2184C24.9894 27.2211 26.7989 28.7671 27.1111 31.0151C27.3707 32.888 26.2864 35.0556 23.6441 35.7911C23.9369 35.8621 24.1206 35.9036 24.3016 35.9505C26.3528 36.4904 27.8514 37.6867 28.7423 39.5569C29.4744 41.0936 28.6691 42.2738 26.8997 42.31C26.4177 42.3194 25.9356 42.3127 25.4522 42.3127C23.1607 42.3127 20.8691 42.3127 18.579 42.3127C18.108 42.3127 17.6522 42.2537 17.2295 42.0367C16.3828 41.6013 16.0624 40.8404 16.4077 39.9736C17.2433 37.881 18.7986 36.5507 21.0238 35.9492C21.202 35.9009 21.383 35.8607 21.6772 35.7884L21.6758 35.7897Z" fill="#6D13D7"/>
<path d="M6.18082 35.8071C3.22769 34.8292 2.44866 32.5852 2.84508 30.6627C3.30918 28.4094 5.16007 27.138 7.69607 27.2197C9.52071 27.2787 11.315 28.9546 11.6451 30.7739C11.9959 32.7098 10.8882 35.0609 8.19332 35.8031C9.45441 36.0309 10.5263 36.4716 11.4545 37.2125C12.3647 37.9399 13.0346 38.8402 13.4573 39.9039C13.8841 40.9783 13.3067 41.9858 12.1382 42.2189C11.8537 42.2752 11.5581 42.3073 11.268 42.3073C8.5635 42.314 5.86037 42.31 3.15586 42.3127C2.73734 42.3127 2.32849 42.2644 1.94311 42.1104C0.991426 41.7299 0.595004 40.8698 0.974851 39.9441C1.81189 37.9011 3.32852 36.5734 5.50953 35.9639C5.62556 35.9317 5.74296 35.9049 5.85899 35.8768C5.95153 35.8554 6.0427 35.8353 6.18082 35.8058V35.8071Z" fill="#6D13D7"/>
<path d="M39.1349 35.8192C40.4388 36.0563 41.5632 36.5493 42.5259 37.3799C43.3409 38.0833 43.939 38.9259 44.334 39.9066C44.7415 40.9167 44.2939 41.8277 43.2276 42.1666C42.8989 42.2711 42.5591 42.3153 42.211 42.3153C39.472 42.3127 36.7343 42.3167 33.9953 42.3087C33.6886 42.3087 33.3737 42.2725 33.0767 42.2001C31.9938 41.9376 31.451 40.9462 31.8585 39.9481C32.7977 37.6505 34.5616 36.3095 37.1238 35.7978C35.8848 35.4427 34.911 34.8318 34.2784 33.7936C33.6569 32.7741 33.4483 31.6863 33.7425 30.5234C34.2729 28.4255 36.0492 27.1836 38.4664 27.2211C40.3532 27.2505 42.1337 28.7497 42.4969 30.723C42.8174 32.4646 42.2538 34.7528 39.1363 35.8205L39.1349 35.8192Z" fill="#6D13D7"/>
</svg>
