<?xml version="1.0" encoding="UTF-8"?>
<svg width="128px" height="128px" viewBox="0 0 128 128" version="1.1" xmlns="http://www.w3.org/2000/svg" xmlns:xlink="http://www.w3.org/1999/xlink">
    <!-- Generator: Sketch 50.2 (55047) - http://www.bohemiancoding.com/sketch -->
    <title>Icon-Others</title>
    <desc>Created with Sketch.</desc>
    <defs></defs>
    <g id="Icon-Others" stroke="none" stroke-width="1" fill="none" fill-rule="evenodd">
        <g id="Group-2" transform="translate(7.000000, 12.000000)" fill="#000000" fill-rule="nonzero">
            <path d="M90.5,65.2702703 C82.0888478,65.2702703 75.2702703,72.0888835 75.2702703,80.5 C75.2702703,88.9111165 82.0888478,95.7297297 90.5,95.7297297 C98.9111522,95.7297297 105.72973,88.9111165 105.72973,80.5 C105.72973,72.0888835 98.9111522,65.2702703 90.5,65.2702703 Z M90.5,56 C104.030992,56 115,66.9690654 115,80.5 C115,94.0309346 104.030992,105 90.5,105 C76.969008,105 66,94.0309346 66,80.5 C66,66.9690654 76.969008,56 90.5,56 Z" id="Path"></path>
            <path d="M57.5,9.27027027 C49.0888478,9.27027027 42.2702703,16.0888835 42.2702703,24.5 C42.2702703,32.9111165 49.0888478,39.7297297 57.5,39.7297297 C65.9111522,39.7297297 72.7297297,32.9111165 72.7297297,24.5 C72.7297297,16.0888835 65.9111522,9.27027027 57.5,9.27027027 Z M57.5,0 C71.030992,0 82,10.9690654 82,24.5 C82,38.0309346 71.030992,49 57.5,49 C43.969008,49 33,38.0309346 33,24.5 C33,10.9690654 43.969008,0 57.5,0 Z" id="Path-Copy-2"></path>
            <path d="M24.5,65.2702703 C16.0888478,65.2702703 9.27027027,72.0888835 9.27027027,80.5 C9.27027027,88.9111165 16.0888478,95.7297297 24.5,95.7297297 C32.9111522,95.7297297 39.7297297,88.9111165 39.7297297,80.5 C39.7297297,72.0888835 32.9111522,65.2702703 24.5,65.2702703 Z M24.5,56 C38.030992,56 49,66.9690654 49,80.5 C49,94.0309346 38.030992,105 24.5,105 C10.969008,105 0,94.0309346 0,80.5 C0,66.9690654 10.969008,56 24.5,56 Z" id="Path-Copy-3"></path>
        </g>
    </g>
</svg>