<svg width="18" height="18" viewBox="0 0 18 18" fill="none" xmlns="http://www.w3.org/2000/svg">
<g clip-path="url(#clip0_2849_1847)">
<path d="M17.3565 3.73711L14.2628 0.643359C14.21 0.590625 14.1362 0.5625 14.0624 0.5625H7.03114C6.56708 0.5625 6.18739 0.942188 6.18739 1.40625V3.10781C2.93192 3.25898 0.418248 6.02227 0.572935 9.27773C0.717076 12.3187 3.14989 14.7516 6.18739 14.8922V16.5938C6.18739 17.0578 6.56708 17.4375 7.03114 17.4375H16.5936C17.0577 17.4375 17.4374 17.0578 17.4374 16.5938V3.9375C17.4374 3.86367 17.4093 3.78984 17.3565 3.73711ZM14.3436 1.52227L16.4776 3.65625H14.6249C14.4702 3.65625 14.3436 3.52969 14.3436 3.375V1.52227ZM1.12489 9C1.1284 6.15937 3.35028 3.81797 6.18739 3.66328V8.88398L2.50301 12.5684C1.61708 11.591 1.12489 10.3184 1.12489 9ZM2.90028 12.9656L6.58465 9.28125H11.8054C11.6542 12.2238 9.15106 14.4879 6.20848 14.3367C4.97801 14.2734 3.81083 13.7918 2.90028 12.9656ZM16.8749 16.5938C16.8749 16.7484 16.7483 16.875 16.5936 16.875H7.03114C6.87645 16.875 6.74989 16.7484 6.74989 16.5938V14.8922C9.89637 14.741 12.3679 12.15 12.3749 9C12.3749 8.84531 12.2483 8.71875 12.0936 8.71875H6.74989V1.40625C6.74989 1.25156 6.87645 1.125 7.03114 1.125H13.7811V3.375C13.7811 3.83906 14.1608 4.21875 14.6249 4.21875H16.8749V16.5938Z" fill="black"/>
<path d="M7.59375 1.96875C7.43906 1.96875 7.3125 2.09531 7.3125 2.25V7.875C7.3125 8.02969 7.43906 8.15625 7.59375 8.15625H13.2188C13.3734 8.15625 13.5 8.02969 13.5 7.875C13.4965 4.61602 10.8527 1.97227 7.59375 1.96875ZM7.875 7.59375V2.53828C10.6031 2.68594 12.7828 4.86563 12.9305 7.59375H7.875Z" fill="black"/>
<path d="M13.7812 11.25C12.382 11.25 11.25 12.382 11.25 13.7812C11.25 15.1805 12.382 16.3125 13.7812 16.3125C15.1805 16.3125 16.3125 15.1805 16.3125 13.7812C16.309 12.3855 15.177 11.2535 13.7812 11.25ZM13.7812 15.75C12.6949 15.75 11.8125 14.8676 11.8125 13.7812C11.8125 12.6949 12.6949 11.8125 13.7812 11.8125C14.8676 11.8125 15.75 12.6949 15.75 13.7812C15.75 14.8676 14.8676 15.75 13.7812 15.75Z" fill="black"/>
<path d="M13.2186 14.2277L12.5752 13.5844L12.178 13.9816L13.0217 14.8254C13.1307 14.9344 13.31 14.9344 13.419 14.8254L15.1065 13.1379L14.7092 12.7406L13.2186 14.2277Z" fill="black"/>
<path d="M14.0625 5.34375H16.3125V5.90625H14.0625V5.34375Z" fill="black"/>
<path d="M14.0625 7.03125H16.3125V7.59375H14.0625V7.03125Z" fill="black"/>
<path d="M14.0625 8.71875H16.3125V9.28125H14.0625V8.71875Z" fill="black"/>
</g>
<defs>
<clipPath id="clip0_2849_1847">
<rect width="18" height="18" fill="white"/>
</clipPath>
</defs>
</svg>
