<?xml version="1.0" encoding="UTF-8"?>
<svg width="128px" height="128px" viewBox="0 0 128 128" version="1.1" xmlns="http://www.w3.org/2000/svg" xmlns:xlink="http://www.w3.org/1999/xlink">
    <!-- Generator: Sketch 50.2 (55047) - http://www.bohemiancoding.com/sketch -->
    <title>Getting started</title>
    <desc>Created with Sketch.</desc>
    <defs></defs>
    <g id="Getting-started" stroke="none" stroke-width="1" fill="none" fill-rule="evenodd">
        <g id="thumbs-up" transform="translate(14.000000, 11.000000)" fill="#000000" fill-rule="nonzero">
            <path d="M96.5324609,59.3537891 C98.348125,56.279375 99.375,53 99.375,49.0353516 C99.375,39.9228711 91.6697109,31.3176172 81.6075781,31.3176172 L74.0550781,31.3176172 C75.0736719,28.6655469 75.8873047,25.4938281 75.8873047,21.6823828 C75.8873047,6.61175 68.0842969,0 56.1634375,0 C43.4088633,0 44.1363711,19.6540977 41.306875,22.4835937 C36.5975352,27.1929336 31.0350195,36.2401992 27.0714062,39.75 L6.625,39.75 C2.96613672,39.75 0,42.7161367 0,46.375 L0,96.0625 C0,99.7213633 2.96613672,102.6875 6.625,102.6875 L19.875,102.6875 C22.9583164,102.6875 25.5493125,100.581164 26.2884141,97.7291016 C35.503168,97.9363398 41.8281797,105.99793 63.0989844,105.99793 C64.59375,105.99793 66.25,106 67.6992187,106 C83.6648477,106 90.8838203,97.838207 91.0813281,86.2637109 C93.8387773,82.4491602 95.2838555,77.3361094 94.67125,72.3946875 C96.7113359,68.5745469 97.500125,64.0424258 96.5324609,59.3537891 Z M83.7482812,70.4982812 C86.3485937,74.8728516 84.0091406,80.7276953 80.8622656,82.4170703 C82.4564062,92.5160547 77.2168594,96.0604297 69.8647656,96.0604297 L62.0348437,96.0604297 C47.203332,96.0604297 37.5991523,88.2305078 26.5,88.2305078 L26.5,49.6875 L28.7607812,49.6875 C34.6321875,49.6875 42.8347656,35.0110547 48.3335156,29.5102344 C54.2049219,23.6388281 52.2484766,13.8524609 56.1634375,9.9375 C65.9498047,9.9375 65.9498047,16.7653906 65.9498047,21.6823828 C65.9498047,29.7917969 60.0783984,33.4251953 60.0783984,41.2551172 L81.6075781,41.2551172 C85.9780078,41.2551172 89.4188672,45.1700781 89.4375,49.0850391 C89.4561328,52.9979297 86.7833594,56.9128906 84.8269141,56.9128906 C87.6195586,59.9262305 88.2162227,66.2781562 83.7482812,70.4982812 Z M18.21875,89.4375 C18.21875,92.1816992 15.9941992,94.40625 13.25,94.40625 C10.5058008,94.40625 8.28125,92.1816992 8.28125,89.4375 C8.28125,86.6933008 10.5058008,84.46875 13.25,84.46875 C15.9941992,84.46875 18.21875,86.6933008 18.21875,89.4375 Z" id="Shape"></path>
        </g>
    </g>
</svg>