<?xml version="1.0" encoding="UTF-8"?>
<svg width="128px" height="128px" viewBox="0 0 128 128" version="1.1" xmlns="http://www.w3.org/2000/svg" xmlns:xlink="http://www.w3.org/1999/xlink">
    <!-- Generator: Sketch 50.2 (55047) - http://www.bohemiancoding.com/sketch -->
    <title>Icon-Reviewer</title>
    <desc>Created with Sketch.</desc>
    <defs></defs>
    <g id="Icon-Reviewer" stroke="none" stroke-width="1" fill="none" fill-rule="evenodd">
        <g id="Group" transform="translate(0.000000, 0.500000)" fill="#000000">
            <path d="M107.394722,29.7939431 C106.962342,25.3595943 105.842508,21.125876 104.142785,17.2 L125.356556,17.300905 C127.36045,17.300905 129,18.9349986 129,20.9322241 L129,53.6140958 L129,89.9272865 L116.349858,89.9272865 C116.349858,82.4393661 116.349858,53.6140958 116.349858,53.6140958 L116.349858,29.865269 L107.394722,29.7939431 Z M71.9531321,75.6682591 L71.9531321,108.083882 C81.6415566,103.635379 92.3613058,99.9860404 103.1459,99.9860404 C103.874589,99.9860404 104.566843,100.022354 105.295532,100.022354 L116.349858,100.675991 L116.349858,89.9272865 L129,89.9272865 L129,108.083882 C129,110.081107 127.36045,111.715201 125.356556,111.715201 L105.040491,110.916311 C104.421106,110.916311 103.765286,110.879998 103.1459,110.879998 C89.1186406,110.879998 74.519471,116.292459 64.5,126.133333 C54.480529,116.292459 42.045344,110.879998 28.0180845,110.879998 C27.398699,110.879998 26.7428791,110.916311 26.1234936,110.916311 L3.64344402,111.715201 C1.63954981,111.715201 1.13686838e-13,110.081107 1.13686838e-13,108.083882 L1.13686838e-13,89.9272865 L12.3444942,89.9272865 L12.3444942,100.352358 L25.8684525,99.6987202 C26.5971413,99.6987202 27.2893957,99.662407 28.0180845,99.662407 C38.8026788,99.662407 48.402991,102.854782 57.5116011,108.083882 L57.5116011,75.5140075 C59.9998565,75.9671133 62.5639381,76.2038106 65.1834906,76.2038106 C67.4875695,76.2038106 69.7487337,76.0206915 71.9531321,75.6682591 Z M23.0122852,29.4023293 L12.3444942,29.4733397 L12.3444942,53.6140958 C12.3444942,53.6140958 12.3444942,83.7042203 12.3444942,89.9272865 L1.95462741e-12,89.9272865 C1.95462741e-12,87.5064072 1.34098055e-12,75.4020102 1.13686838e-13,53.6140958 L1.13686838e-13,20.9322241 C1.13686838e-13,18.9349986 1.63954981,17.300905 3.64344402,17.300905 L26.2234324,17.2017648 C24.5742356,21.0114173 23.4710922,25.1109263 23.0122852,29.4023293 Z" id="Combined-Shape"></path>
            <path d="M65.2166667,10.6012579 C51.6771712,10.6012579 40.7012579,21.5772286 40.7012579,35.1166667 C40.7012579,48.6561047 51.6771712,59.6320755 65.2166667,59.6320755 C78.7561622,59.6320755 89.7320755,48.6561047 89.7320755,35.1166667 C89.7320755,21.5772286 78.7561622,10.6012579 65.2166667,10.6012579 Z M65.2166667,0 C84.6110876,0 100.333333,15.722328 100.333333,35.1166667 C100.333333,54.5110053 84.6110876,70.2333333 65.2166667,70.2333333 C45.8222457,70.2333333 30.1,54.5110053 30.1,35.1166667 C30.1,15.722328 45.8222457,0 65.2166667,0 Z" id="Path" fill-rule="nonzero"></path>
        </g>
    </g>
</svg>