<?xml version="1.0" encoding="UTF-8"?>
<svg width="128px" height="128px" viewBox="0 0 128 128" version="1.1" xmlns="http://www.w3.org/2000/svg" xmlns:xlink="http://www.w3.org/1999/xlink">
    <!-- Generator: Sketch 50.2 (55047) - http://www.bohemiancoding.com/sketch -->
    <title>Admin Copy</title>
    <desc>Created with Sketch.</desc>
    <defs></defs>
    <g id="Admin-Copy" stroke="none" stroke-width="1" fill="none" fill-rule="evenodd">
        <g id="noun_Businessman_196609-Copy" transform="translate(18.000000, 11.000000)" fill="#000000" fill-rule="nonzero">
            <path d="M48.2040105,0.0127168757 C40.5100752,-0.27224369 27.2594089,4.14464508 26.4045272,22.0971607 C26.2620469,23.5219635 24.8372441,39.3372749 33.1011005,48.5984933 C36.8055878,52.7304215 41.7923977,54.8676258 47.9190499,55.010106 C47.9190499,55.010106 48.0615302,55.010106 48.0615302,55.010106 L48.2040105,55.010106 L48.3464907,55.010106 C48.3464907,55.010106 48.488971,55.010106 48.488971,55.010106 C54.6156232,54.8676258 59.6024331,52.7304215 63.3069204,48.5984933 C71.4282966,39.3372749 70.145974,23.5219635 70.0034937,22.0971607 C69.0061317,4.14464508 55.8979457,-0.27224369 48.2040105,0.0127168757 Z M57.5398318,41.5233611 C55.3117446,44.0427022 52.4152314,45.3023727 48.5160789,45.4168882 C48.5160789,45.4168882 48.5160789,45.4168882 48.4046746,45.4168882 C48.4046746,45.4168882 48.4046746,45.4168882 48.2932702,45.4168882 C44.5055221,45.4168882 41.4976045,44.1572177 39.2695174,41.5233611 C33.8107039,35.2250085 34.9247475,23.2008807 35.0361518,23.0863652 C35.0361518,23.0863652 35.0361518,22.9718497 35.0361518,22.9718497 C35.2589605,16.9025281 37.4870477,12.6654545 41.4976045,10.4896599 C44.2827134,8.88644289 47.1792266,8.77192739 48.0704615,8.77192739 C48.1818659,8.77192739 48.2932702,8.77192739 48.2932702,8.77192739 C48.2932702,8.77192739 48.4046746,8.77192739 48.4046746,8.77192739 C48.7388876,8.77192739 52.0810183,8.65741188 55.2003403,10.4896599 C59.2108971,12.6654545 61.3275799,16.9025281 61.661793,22.9718497 C61.661793,22.9718497 61.661793,23.0863652 61.661793,23.0863652 C61.7731973,23.2008807 62.9986452,35.2250085 57.5398318,41.5233611 Z M61.3142624,60.5065875 C61.7417032,60.7915481 71.9163022,64.9234763 80.9765414,69.4828453 C86.6025384,72.3140064 87.2456738,78.1741426 86.9607133,82.3060708 C86.818233,85.1556764 86.3907921,98.8894399 86.1058316,99.8868019 L95.5708318,99.8868019 C95.9982726,98.1770385 96.4783063,84.0158342 96.6207865,82.7335116 C97.333188,73.1873327 91.3581404,64.8866894 84.9769496,61.981928 C75.2739119,57.5650392 66.970993,54.1424803 66.8285127,54 L61.3142624,60.5065875 Z M42.5284108,76.0072887 C38.7879472,73.8665377 36.267499,69.8366716 36.267499,65.2181232 L43.7314028,65.2181232 C44.061882,67.6418781 46.1401286,69.5095323 48.6545892,69.5095323 C51.1690498,69.5095323 53.2472964,67.6418781 53.5777755,65.2181232 L61.1124983,65.2181232 C61.1124983,69.7564537 58.6788432,73.7263736 55.0453758,75.89404 L56.3582626,93.2916699 L48.8264245,100.487389 L41.0693297,93.2916699 L42.5284112,76.0072916 Z M35.9362174,60.5065875 C35.5087766,60.7915481 25.3341775,64.9234763 16.2739384,69.4828453 C10.6479414,72.3140064 10.0048059,78.1741426 10.2897665,82.3060708 C10.4322468,85.1556764 10.8596876,98.8894399 11.1446482,99.8868019 L1.67964802,99.8868019 C1.25220717,98.1770385 0.772173528,84.0158342 0.629693245,82.7335116 C-0.0827081689,73.1873327 5.89233939,64.8866894 12.2735302,61.981928 C21.9765679,57.5650392 30.2794868,54.1424803 30.4219671,54 L35.9362174,60.5065875 Z" id="Combined-Shape"></path>
        </g>
    </g>
</svg>