<?xml version="1.0" encoding="UTF-8"?>
<svg width="128px" height="128px" viewBox="0 0 128 128" version="1.1" xmlns="http://www.w3.org/2000/svg" xmlns:xlink="http://www.w3.org/1999/xlink">
    <!-- Generator: Sketch 50.2 (55047) - http://www.bohemiancoding.com/sketch -->
    <title>Icon-Glossary</title>
    <desc>Created with Sketch.</desc>
    <defs></defs>
    <g id="Icon-Glossary" stroke="none" stroke-width="1" fill="none" fill-rule="evenodd">
        <g id="book" transform="translate(14.000000, 11.000000)" fill="#000000">
            <path d="M86.6541533,82.7464891 C85.7274056,85.4377684 85.7274056,93.4287979 86.6541533,96.1200773 C88.2649292,96.4099073 89.5005928,97.755547 89.5005928,99.3703146 L89.5005928,102.682658 C89.5005928,104.504448 87.9118824,105.995002 85.9701252,105.995002 L17.652338,105.995002 C7.89942127,105.995002 0,98.583633 0,89.4332832 L0,16.5617191 C0,7.4113693 7.89942127,0 17.652338,0 L85.9701252,0 C87.9118824,0 89.5005928,1.49055472 89.5005928,3.31234382 L89.5005928,79.4962517 C89.5005928,81.1110193 88.2869946,82.4359568 86.6541533,82.7464891 Z M77.5852646,82.8085955 L17.652338,82.8085955 C13.7688237,82.8085955 10.5914028,85.789705 10.5914028,89.4332832 C10.5914028,93.0975635 13.7467582,96.0579708 17.652338,96.0579708 L77.5852646,96.0579708 C76.9894982,92.4764991 76.9894982,86.3900673 77.5852646,82.8085955 Z M78.90919,9.93703146 L17.652338,9.93703146 C13.7467582,9.93703146 10.5914028,12.8974388 10.5914028,16.5617191 L10.5914028,74.258608 C12.7538142,73.3684156 15.1368799,72.8715641 17.652338,72.8715641 L78.90919,72.8715641 L78.90919,9.93703146 Z" id="Shape" fill-rule="nonzero"></path>
            <path d="M47.510701,55.6638739 C47.760101,56.2624339 47.760101,57.0605139 46.662741,57.0605139 L41.4253409,57.0605139 C40.3279809,57.0605139 39.9289409,56.7612339 39.5299008,55.5641139 L38.1332608,51.6235938 L25.9126606,51.6235938 L24.5160205,55.5641139 C24.1169805,56.7612339 23.7179405,57.0605139 22.6205805,57.0605139 L17.3831804,57.0605139 C16.2858203,57.0605139 16.2858203,56.2624339 16.5352204,55.6638739 L27.6085806,25.7857532 C28.0076206,24.7382732 28.5563006,24.2394732 29.6536606,24.2394732 L34.4421407,24.2394732 C35.5395008,24.2394732 36.0383008,24.7382732 36.4872208,25.7857532 L47.510701,55.6638739 Z M28.3069006,44.6403936 L35.7889008,44.6403936 L32.0479007,33.6169134 L28.3069006,44.6403936 Z M73.2986616,50.0773138 C74.4459016,50.0773138 74.7451816,50.6259938 74.7451816,51.5238338 L74.7451816,55.6139939 C74.7451816,56.5118339 74.4459016,57.0605139 73.2986616,57.0605139 L51.5509811,57.0605139 C50.2541011,57.0605139 50.0545811,56.8111139 50.0545811,55.6139939 L50.0545811,51.7233538 C50.0545811,50.5761138 50.7030211,49.8279137 50.7030211,49.8279137 L64.1706214,31.2226734 L51.9500211,31.2226734 C50.8027811,31.2226734 50.5035011,30.6739933 50.5035011,29.7761533 L50.5035011,25.6859932 C50.5035011,24.7881532 50.8027811,24.2394732 51.9500211,24.2394732 L72.0017815,24.2394732 C73.1490216,24.2394732 73.4483016,24.7881532 73.4483016,25.6859932 L73.4483016,29.5766333 C73.4483016,30.2250733 73.2986616,30.8735133 72.7998616,31.5219534 L59.4320213,50.0773138 L73.2986616,50.0773138 Z" id="AZ"></path>
        </g>
    </g>
</svg>