<?xml version="1.0" encoding="UTF-8"?>
<svg width="18px" height="18px" viewBox="0 0 18 18" version="1.1" xmlns="http://www.w3.org/2000/svg" xmlns:xlink="http://www.w3.org/1999/xlink">
    <!-- Generator: Sketch 53.1 (72631) - https://sketchapp.com -->
    <title>Group 6 Copy</title>
    <desc>Created with Sketch.</desc>
    <g id="Page-1" stroke="none" stroke-width="1" fill="none" fill-rule="evenodd">
        <g id="Group-14" transform="translate(-62.000000, -71.000000)" fill="#FFFFFF">
            <g id="Group-6-Copy" transform="translate(62.000000, 71.000000)">
                <g id="Group-5">
                    <path d="M10.5178083,13.4198254 C10.040018,13.5838449 9.52736927,13.6719132 8.99386683,13.6693668 C6.40612537,13.6569424 4.30824732,11.5504156 4.33072537,8.9869522 C4.35346683,6.39727902 6.44028146,4.31893756 9.00607171,4.33061561 C11.5941644,4.34238146 13.6943254,6.45114732 13.6692132,9.01276683 C13.6640766,9.53902537 13.5737693,10.0439473 13.4121205,10.5145376 L14.9129693,12.0154302 C15.1081595,11.6400644 15.2606766,11.2465229 15.3748229,10.8378351 C15.395018,10.7656156 15.4224571,10.7314156 15.504862,10.7232059 C16.2231937,10.6519083 16.9408668,10.5734546 17.658979,10.5000059 C17.8658034,10.4788888 17.868701,10.4835863 17.8985985,10.2802741 C17.9349059,10.0331473 17.9669107,9.78544976 17.9793351,9.53564488 C17.9812229,9.49696683 17.9782815,9.45710341 18.0000132,9.42189366 L18.0000132,8.57813268 C17.9773595,8.37705951 17.9557595,8.17581073 17.9316571,7.97491317 C17.918662,7.86651805 17.8908278,7.75878146 17.8891595,7.65043024 C17.8874912,7.54133268 17.8345888,7.51600098 17.7406376,7.50700098 C17.33274,7.46797171 16.9253254,7.4245961 16.5178229,7.38170341 C16.1724863,7.3453522 15.8274571,7.30531317 15.4817693,7.27212293 C15.4188571,7.26602049 15.396379,7.23902049 15.3813644,7.18458146 C15.2452229,6.68980098 15.0524473,6.21780585 14.7978132,5.77241561 C14.7561059,5.69940585 14.7843351,5.66138634 14.8255595,5.61059122 C15.3004961,5.02567902 15.7727107,4.4385278 16.2504132,3.85585463 C16.3073546,3.78635707 16.3001546,3.74544 16.2515107,3.67958634 C15.7042668,2.93925951 15.0612717,2.29560585 14.3208571,1.74849366 C14.2543888,1.69941073 14.2132522,1.69361561 14.1444571,1.75003024 C13.5615644,2.22738146 12.9741059,2.69924488 12.3898961,3.17497171 C12.33234,3.22177171 12.291818,3.23744488 12.2179302,3.19560585 C11.7820229,2.94852293 11.3212668,2.75851317 10.8381205,2.62478634 C10.7665156,2.60498634 10.7313937,2.57816195 10.7231839,2.49518634 C10.6521937,1.78071805 10.5734327,1.0669961 10.5005546,0.352659512 C10.4775498,0.127176585 10.4825546,0.125947317 10.2570278,0.0965326829 C10.009418,0.0642204878 9.76194,0.0302839024 9.51209122,0.0186936585 C9.48179854,0.0172887805 9.45194488,0.00644487805 9.42187171,-8.7804878e-06 L8.57811073,-8.7804878e-06 C8.36939854,0.0231717073 8.16055463,0.0452546341 7.95201805,0.0700595122 C7.83198878,0.0842839024 7.71283756,0.106235122 7.59263268,0.118308293 C7.52857902,0.124761951 7.52155463,0.162298537 7.51628634,0.212874146 C7.46492049,0.705679024 7.41223756,1.1983961 7.35973024,1.69115707 C7.33035951,1.96660098 7.29844244,2.24186927 7.27293512,2.51762049 C7.2671839,2.57978634 7.24049122,2.60380098 7.18534976,2.61894732 C6.68679366,2.75583512 6.21163756,2.95080585 5.76308634,3.20772293 C5.69126195,3.24885951 5.65662293,3.21070829 5.61188634,3.17453268 C5.0262278,2.70073756 4.43973512,2.2279522 3.8560522,1.75174244 C3.79559854,1.70244 3.7590278,1.69120098 3.68961805,1.74234732 C2.94204732,2.29327902 2.29448634,2.9427278 1.74188634,3.68876195 C1.69052049,3.7581278 1.7034278,3.7957522 1.75207171,3.85545951 C2.22823756,4.43923024 2.70005707,5.02655707 3.17683756,5.60980098 C3.23039854,5.67539122 3.23132049,5.72118146 3.19079854,5.79269854 C2.94977415,6.2185961 2.76454976,6.66890341 2.63275463,7.13980098 C2.60672049,7.23296195 2.57045707,7.27207902 2.47334488,7.28164976 C1.84431073,7.34342049 1.21575951,7.41085463 0.58716439,7.4767961 C0.463008293,7.48983512 0.339203415,7.50880098 0.21474,7.51626439 C0.144671707,7.52047902 0.125266829,7.5505961 0.116266829,7.6153961 C0.07614,7.9052839 0.0334229268,8.19468878 0.0187595122,8.48738634 C0.0172229268,8.51789854 0.00646682927,8.5478839 1.31707317e-05,8.57813268 L1.31707317e-05,9.42189366 C0.0225790244,9.62301073 0.0440912195,9.82430341 0.0681497561,10.0252449 C0.0820668293,10.1413668 0.106037561,10.2566107 0.114203415,10.3730839 C0.119603415,10.4506156 0.147876585,10.4780546 0.225408293,10.4857376 C0.718520488,10.534601 1.21119366,10.5883376 1.70395463,10.6407571 C1.97167171,10.6693376 2.23908146,10.7018693 2.50723756,10.7251376 C2.58042293,10.7315034 2.60487659,10.7646498 2.62204244,10.8271229 C2.75603268,11.3143522 2.94810585,11.7781815 3.19580341,12.2183473 C3.23241805,12.2834107 3.22921317,12.3240205 3.18250098,12.3813571 C2.70633512,12.9652156 2.2342961,13.5524985 1.7572522,14.1356985 C1.7015839,14.2037912 1.69196927,14.2451473 1.7483839,14.3212741 C2.29417902,15.0578254 2.9346278,15.6981863 3.67034488,16.2448156 C3.74454,16.2999132 3.78910098,16.3064985 3.86610585,16.2432351 C4.44513512,15.7673327 5.03004732,15.2986302 5.61034976,14.8242644 C5.67506195,14.771362 5.72063268,14.7687278 5.79311561,14.8096449 C6.22599366,15.0542693 6.68372049,15.2410741 7.16256439,15.3745376 C7.23535463,15.3948205 7.26854488,15.423401 7.27675463,15.5051473 C7.3480522,16.2195717 7.42663756,16.9332937 7.49960341,17.6475863 C7.52186195,17.8653863 7.51663756,17.8681083 7.73184732,17.9001571 C7.97502293,17.9362888 8.21894488,17.9669327 8.46475463,17.9795766 C8.50308146,17.9815522 8.54351561,17.9757132 8.57811073,17.9999912 L9.42187171,17.9999912 C9.62272537,17.9773815 9.82371073,17.9557376 10.0244327,17.9317229 C10.1483693,17.9169278 10.2715156,17.894801 10.3956278,17.8832107 C10.4608668,17.8770644 10.4779449,17.8467278 10.4840034,17.7870644 C10.5344912,17.29404 10.5877888,16.801279 10.6402522,16.3084741 C10.6691839,16.0368498 10.7003107,15.7654449 10.7256863,15.4934693 C10.7315693,15.4302937 10.7514571,15.3991668 10.815379,15.3816059 C11.2313107,15.2670644 11.6308668,15.1117815 12.0127302,14.9147473 L10.5178083,13.4198254 Z" id="Fill-3"></path>
                    <path d="M15.8578376,15.3327813 C15.5521449,15.3287862 15.3066864,15.564235 15.3015059,15.8664594 C15.2964132,16.1644252 15.5414327,16.4185764 15.8396181,16.424635 C16.1356961,16.4306935 16.3910327,16.1827764 16.3956425,15.8847667 C16.40034,15.5819716 16.1614669,15.3367764 15.8578376,15.3327813 Z M10.3858288,5.88968341 C12.0609263,6.6364639 12.8590288,8.41302 12.2852678,10.1548054 C12.1800776,10.4740639 12.2381605,10.6966054 12.4751898,10.9237566 C13.7019117,12.0994639 15.4707059,13.8705667 16.6910181,15.0529472 C16.9680864,15.3214545 17.1732864,15.6316252 17.1271449,16.0357033 C17.069062,16.5446642 16.7580132,16.8790691 16.3012522,17.0655667 C15.8509888,17.2493423 15.4614425,17.0901081 15.1305937,16.7692691 C13.9157693,15.5913667 12.1451751,13.8320298 10.9462873,12.6380151 C10.649902,12.342859 10.375819,12.2638346 9.97187268,12.3883859 C8.00737024,12.9940639 5.99725317,11.7880639 5.58329707,9.77588341 C5.49158488,9.33022976 5.50686293,8.88251268 5.57416537,8.43527854 C5.58483366,8.36424439 5.60586293,8.29918098 5.68185805,8.26743951 C5.77378976,8.22902488 5.80790195,8.30646878 5.85294585,8.35318098 C6.22348244,8.73719561 6.58361415,9.13157122 6.96301902,9.50645415 C7.53858,10.0750346 8.25067756,10.2326444 8.88761415,9.92980537 C9.85144829,9.4714639 10.5383459,8.22920049 9.45132146,7.08001024 C9.09452634,6.70280049 8.71349707,6.34855171 8.34647268,5.98095659 C8.2891361,5.9235322 8.22003366,5.8713322 8.18881902,5.77044439 C8.93955073,5.54592732 9.67026293,5.5707322 10.3858288,5.88968341 Z" id="Fill-1"></path>
                </g>
            </g>
        </g>
    </g>
</svg>