<svg width="20" height="20" viewBox="0 0 20 20" fill="none" xmlns="http://www.w3.org/2000/svg">
<path fill-rule="evenodd" clip-rule="evenodd" d="M14.5833 3.75C15.5583 3.75 16.5749 3.875 17.4999 4.16667C18.1249 4.375 18.6666 4.625 19.1666 5V17.1667C19.1666 17.375 18.9583 17.5833 18.7499 17.5833C18.6666 17.5833 18.6249 17.5833 18.5416 17.5417C17.3749 16.9167 15.9583 16.6667 14.5833 16.6667C13.1666 16.6667 11.1249 17.2083 9.99992 17.9167C8.79158 17 7.04158 16.6667 5.41658 16.6667C4.20825 16.6667 2.58325 17.0417 1.45825 17.5833C1.41659 17.5833 1.38534 17.5938 1.35409 17.6042C1.32284 17.6146 1.29159 17.625 1.24992 17.625C1.04159 17.625 0.833252 17.4167 0.833252 17.2083V5C2.04159 4.08333 3.79158 3.75 5.41658 3.75C7.04158 3.75 8.79158 4.08333 9.99992 5C11.2083 4.08333 12.9583 3.75 14.5833 3.75ZM14.5833 15C15.5833 15 16.5833 15.125 17.4999 15.4167V5.83333C16.5833 5.54167 15.5833 5.41667 14.5833 5.41667C13.1666 5.41667 11.1249 5.95833 9.99992 6.66667V16.25C11.1249 15.5417 13.1666 15 14.5833 15ZM16.6666 8.96667C16.0249 8.825 15.3166 8.75 14.5833 8.75C13.0833 8.75 11.7749 9.04167 10.8333 9.575V8.19167C11.8833 7.74167 13.1666 7.5 14.5833 7.5C15.2999 7.5 16.0083 7.575 16.6666 7.7V8.96667ZM10.8333 10.4083V11.7916C11.7749 11.2583 13.0833 10.9666 14.5833 10.9666C15.3166 10.9666 16.0249 11.0416 16.6666 11.1833V9.91664C16.0083 9.79164 15.2999 9.71664 14.5833 9.71664C13.1666 9.71664 11.8833 9.96664 10.8333 10.4083ZM10.8333 12.6318C11.8833 12.1818 13.1666 11.9401 14.5833 11.9401C15.2999 11.9401 16.0083 12.0068 16.6666 12.1401V13.4068C16.0249 13.2651 15.3166 13.1901 14.5833 13.1901C13.0833 13.1901 11.7749 13.4818 10.8333 14.0151V12.6318Z" fill="white"/>
</svg>
