<svg xmlns="http://www.w3.org/2000/svg" width="1013.799" height="119.238" viewBox="0 0 1013.799 119.238">
  <g id="img-diksha-feature-parent03-text-bg" transform="translate(-65.201 -12.102)">
    <path id="Path_13" data-name="Path 13" d="M65.2,38.325a25,25,0,0,1,25.182-25L1039.3,20.231a25,25,0,0,1,24.81,25v61.11a25,25,0,0,1-25.18,25L90.019,124.434a25,25,0,0,1-24.818-25Z" fill="#b6c2d2"/>
    <path id="Path_14" data-name="Path 14" d="M66.981,30.1a18,18,0,0,1,18-18H1035.43a18,18,0,0,1,18,18v75.11a18,18,0,0,1-18,18H84.981a18,18,0,0,1-18-18Z" fill="#fff"/>
    <path id="Path_15" data-name="Path 15" d="M1053.13,23.93H1070a9,9,0,0,1,9,9V100.6a9,9,0,0,1-9,9h-16.87Z" fill="#1fbfd3"/>
    <path id="Path_16" data-name="Path 16" d="M66.579,45.557a25,25,0,0,1,25-25H1028.64a25,25,0,0,1,25,25v43a25,25,0,0,1-25,25H91.579a25,25,0,0,1-25-25Z" fill="#fff"/>
  </g>
</svg>
