<svg width="1079" height="132" viewBox="0 0 1079 132" fill="none" xmlns="http://www.w3.org/2000/svg">
<path d="M65.2012 38.04C65.2012 24.1618 76.5052 12.9397 90.3831 13.0407L1039.3 19.9457C1053.03 20.0457 1064.11 31.209 1064.11 44.9451V106.054C1064.11 119.933 1052.81 131.155 1038.93 131.054L90.0193 124.149C76.2835 124.049 65.2012 112.885 65.2012 99.1494V38.04Z" fill="#B6C2D2"/>
<path d="M66.981 29.8164C66.981 19.8753 75.0399 11.8164 84.981 11.8164H1035.43C1045.37 11.8164 1053.43 19.8753 1053.43 29.8164V104.927C1053.43 114.868 1045.37 122.927 1035.43 122.927H84.981C75.0399 122.927 66.981 114.868 66.981 104.927V29.8164Z" fill="white"/>
<path d="M1053.13 23.6445H1070C1074.97 23.6445 1079 27.674 1079 32.6445V100.314C1079 105.285 1074.97 109.314 1070 109.314H1053.13V23.6445Z" fill="#FFD04F"/>
<path d="M66.5788 45.2734C66.5788 31.4663 77.7717 20.2734 91.5788 20.2734H1028.64C1042.44 20.2734 1053.64 31.4663 1053.64 45.2734V88.2725C1053.64 102.08 1042.44 113.272 1028.64 113.272H91.5788C77.7717 113.272 66.5788 102.08 66.5788 88.2725V45.2734Z" fill="url(#paint0_linear_5301_23517)"/>
<circle cx="65.522" cy="65.7173" r="65.522" fill="#FFD04F"/>
<path d="M111.853 112.048C99.5653 124.336 82.8996 131.239 65.522 131.239C48.1445 131.239 31.4787 124.336 19.191 112.048C6.9032 99.7607 8.11316e-07 83.0949 0 65.7173C-8.11316e-07 48.3398 6.90319 31.674 19.191 19.3863L65.522 65.7173L111.853 112.048Z" fill="#E3B025"/>
<ellipse cx="65.5197" cy="66.5313" rx="54.2462" ry="54.2462" fill="white"/>
<path d="M73.2632 79.4434C73.7965 79.4434 74.2132 79.6017 74.5132 79.9184C74.8132 80.2184 74.9632 80.6184 74.9632 81.1184V84.0684H50.8632V82.3934C50.8632 82.06 50.9298 81.71 51.0632 81.3434C51.1965 80.96 51.4215 80.6184 51.7382 80.3184L63.0882 68.9434C64.0382 67.9934 64.8965 67.0767 65.6632 66.1934C66.4298 65.31 67.0798 64.435 67.6132 63.5684C68.1465 62.685 68.5548 61.785 68.8382 60.8684C69.1382 59.9517 69.2882 58.985 69.2882 57.9684C69.2882 56.9684 69.1298 56.0934 68.8132 55.3434C68.4965 54.5767 68.0632 53.9434 67.5132 53.4434C66.9632 52.9434 66.3132 52.5684 65.5632 52.3184C64.8132 52.0684 64.0048 51.9434 63.1382 51.9434C62.2715 51.9434 61.4715 52.0684 60.7382 52.3184C60.0215 52.5684 59.3798 52.9184 58.8132 53.3684C58.2465 53.8184 57.7715 54.3517 57.3882 54.9684C57.0048 55.585 56.7298 56.2517 56.5632 56.9684C56.3298 57.6017 56.0298 58.0267 55.6632 58.2434C55.3132 58.46 54.7965 58.51 54.1132 58.3934L51.5632 57.9434C51.7965 56.2767 52.2548 54.81 52.9382 53.5434C53.6215 52.2767 54.4798 51.2184 55.5132 50.3684C56.5465 49.5017 57.7298 48.8517 59.0632 48.4184C60.4132 47.985 61.8632 47.7684 63.4132 47.7684C64.9798 47.7684 66.4215 48.0017 67.7382 48.4684C69.0715 48.9184 70.2215 49.5767 71.1882 50.4434C72.1548 51.31 72.9132 52.3684 73.4632 53.6184C74.0132 54.8517 74.2882 56.2517 74.2882 57.8184C74.2882 59.1517 74.0882 60.3934 73.6882 61.5434C73.3048 62.6767 72.7715 63.76 72.0882 64.7934C71.4215 65.8267 70.6382 66.835 69.7382 67.8184C68.8548 68.785 67.9132 69.7684 66.9132 70.7684L57.8132 80.0684C58.5132 79.885 59.2132 79.735 59.9132 79.6184C60.6298 79.5017 61.3048 79.4434 61.9382 79.4434H73.2632Z" fill="#434141"/>
<defs>
<linearGradient id="paint0_linear_5301_23517" x1="66.5788" y1="66.7729" x2="793.306" y2="66.7729" gradientUnits="userSpaceOnUse">
<stop stop-color="#EEF5FF"/>
<stop offset="1" stop-color="white"/>
</linearGradient>
</defs>
</svg>
