<svg xmlns="http://www.w3.org/2000/svg" width="1013.799" height="118.022" viewBox="0 0 1013.799 118.022">
  <g id="img-diksha-feature-parent04-textbg" transform="translate(-65.201 -12.424)">
    <path id="Path_19" data-name="Path 19" d="M65.2,38.634a25,25,0,0,1,25.18-25l948.909,6.835a25,25,0,0,1,24.82,25v59.977a25,25,0,0,1-25.18,25L90.021,123.61a25,25,0,0,1-24.82-25Z" fill="#b6c2d2"/>
    <path id="Path_20" data-name="Path 20" d="M66.981,30.424a18,18,0,0,1,18-18H1035.43a18,18,0,0,1,18,18V104.4a18,18,0,0,1-18,18H84.981a18,18,0,0,1-18-18Z" fill="#fff"/>
    <path id="Path_21" data-name="Path 21" d="M1053.13,24.131H1070a9,9,0,0,1,9,9v66.8a9,9,0,0,1-9,9h-16.87Z" fill="#f89521"/>
    <path id="Path_22" data-name="Path 22" d="M66.579,45.791a25,25,0,0,1,25-25H1028.64a25,25,0,0,1,25,25V87.842a25,25,0,0,1-25,25H91.579a25,25,0,0,1-25-25Z" fill="#fff"/>
  </g>
</svg>
