<svg xmlns="http://www.w3.org/2000/svg" width="1013.799" height="118.021" viewBox="0 0 1013.799 118.021">
  <g id="img-diksha-feature-parent01" transform="translate(-65.201 -11.652)">
    <path id="Path_1" data-name="Path 1" d="M65.2,37.862a25,25,0,0,1,25.18-25L1039.29,19.7a25,25,0,0,1,24.82,25v59.977a25,25,0,0,1-25.18,25L90.021,122.838a25,25,0,0,1-24.82-25Z" fill="#b6c2d2"/>
    <path id="Path_2" data-name="Path 2" d="M66.981,29.652a18,18,0,0,1,18-18H1035.43a18,18,0,0,1,18,18V103.63a18,18,0,0,1-18,18H84.981a18,18,0,0,1-18-18Z" fill="#fff"/>
    <path id="Path_3" data-name="Path 3" d="M1053.13,23.359H1070a9,9,0,0,1,9,9v66.8a9,9,0,0,1-9,9h-16.87Z" fill="#9975c5"/>
    <path id="Path_4" data-name="Path 4" d="M66.579,45.02a25,25,0,0,1,25-25H1028.64a25,25,0,0,1,25,25V87.071a25,25,0,0,1-25,25H91.579a25,25,0,0,1-25-25Z" fill="#fff"/>
  </g>
</svg>
