<svg xmlns="http://www.w3.org/2000/svg" width="1013.799" height="119.238" viewBox="0 0 1013.799 119.238">
  <g id="img-diksha-feature-parent02-text-bg" transform="translate(-65.201 -11.816)">
    <path id="Path_7" data-name="Path 7" d="M65.2,38.04a25,25,0,0,1,25.182-25l948.917,6.9a25,25,0,0,1,24.81,25v61.109a25,25,0,0,1-25.18,25l-948.911-6.9a25,25,0,0,1-24.818-25Z" fill="#b6c2d2"/>
    <path id="Path_8" data-name="Path 8" d="M66.981,29.816a18,18,0,0,1,18-18H1035.43a18,18,0,0,1,18,18v75.111a18,18,0,0,1-18,18H84.981a18,18,0,0,1-18-18Z" fill="#fff"/>
    <path id="Path_9" data-name="Path 9" d="M1053.13,23.645H1070a9,9,0,0,1,9,9v67.67a9,9,0,0,1-9,9h-16.87Z" fill="#ffd04f"/>
    <path id="Path_10" data-name="Path 10" d="M66.579,45.273a25,25,0,0,1,25-25H1028.64a25,25,0,0,1,25,25v43a25,25,0,0,1-25,25H91.579a25,25,0,0,1-25-25Z" fill="#fff"/>
  </g>
</svg>
