<svg width="40" height="40" viewBox="0 0 40 40" fill="none" xmlns="http://www.w3.org/2000/svg">
<path d="M20.0468 25.2525C19.8761 25.2525 19.7243 25.2526 19.5915 25.2336C18.681 25.0629 14.1283 23.4125 7.79255 21.0983C4.71951 19.9791 1.57059 18.8219 0.925631 18.6322C0.622121 18.6322 0.299645 18.4995 0.128921 18.2149C-0.117681 17.7976 -0.00386169 17.2664 0.413464 17.0009C1.87411 16.1093 15.1906 8.86302 16.9548 8.256C18.4533 7.72486 19.4018 8.12321 20.4262 8.52157C20.6538 8.61642 20.9194 8.71126 21.2039 8.82508C23.8027 9.73561 34.9377 14.2503 35.8482 14.9522C36.2276 15.2367 36.5691 15.5023 36.8157 15.9386C36.9485 16.1473 36.9674 16.4128 36.8916 16.6405C36.8157 16.8681 36.645 17.0578 36.4173 17.1716C35.4878 17.6079 33.7427 18.5753 31.7509 19.7135C25.1875 23.3936 21.735 25.1956 20.0468 25.2715V25.2525ZM3.06918 17.4941C4.13146 17.8735 5.78179 18.4805 8.39957 19.4479C12.9143 21.0983 19.0793 23.3556 19.914 23.5074C21.128 23.6402 27.4638 20.0929 30.8783 18.158C32.2441 17.3803 33.496 16.6974 34.4635 16.1852C32.3579 15.1229 23.5371 11.4808 20.6158 10.4564C20.3123 10.3616 20.0278 10.2288 19.7812 10.134C18.8517 9.75458 18.4154 9.60282 17.5428 9.90633C16.2719 10.3426 7.12862 15.2367 3.06918 17.4941Z" fill="white"/>
<path d="M20.7685 31.8549C20.5599 31.8549 20.3512 31.8549 20.1425 31.8738H19.6873C16.8229 31.9307 13.5791 31.9876 11.0562 30.4132C9.34897 29.3509 9.38691 26.9987 9.40587 24.931C9.40587 24.0774 9.42485 23.2807 9.31104 22.7306C9.25413 22.484 9.31104 22.2374 9.44382 22.0477C9.50073 21.6873 9.78526 21.4027 10.1647 21.3269C11.4166 21.1372 13.048 21.8201 14.6225 22.484C15.4571 22.8444 16.3107 23.2048 16.8039 23.2807C18.018 23.4514 18.5301 23.5653 18.7578 23.6032C18.8526 23.6032 19.0613 23.5463 19.6493 23.4894C22.2292 23.2617 26.1369 22.0098 27.7493 20.6629C27.92 20.3784 28.2045 20.1697 28.5649 20.1887C29.0202 20.2266 29.3616 20.7198 29.3616 21.1751C29.3616 21.1941 29.3616 21.232 29.3616 21.251C29.3427 21.6873 29.3616 22.2943 29.4186 22.9772C29.5703 25.4432 29.779 28.8198 27.6734 29.92C25.5488 31.0392 23.1018 31.7221 20.7496 31.8359L20.7685 31.8549ZM11.1321 23.091C11.17 23.6601 11.17 24.2861 11.1511 24.95C11.1511 26.5624 11.1131 28.3835 11.9857 28.9336C14.0534 30.2425 17.0316 30.1856 19.6683 30.1476H20.1236C22.4189 30.0907 24.79 29.4837 26.8767 28.4024C27.9579 27.8334 27.7872 24.8741 27.6734 23.11C27.6734 23.0341 27.6734 22.9393 27.6734 22.8634C25.3781 24.1723 21.9257 25.0638 19.839 25.2535C19.3648 25.2915 19.1941 25.3294 19.0992 25.3484C18.8337 25.4053 18.7009 25.3863 18.4353 25.3484C18.2077 25.2915 17.7524 25.1966 16.5763 25.0449C15.8744 24.931 14.9829 24.5706 13.9775 24.1343C13.067 23.736 11.9667 23.2617 11.17 23.129L11.1321 23.091Z" fill="white"/>
<path d="M36.0758 29.3131C35.7913 29.3131 35.5257 29.1992 35.336 28.9716C35.1463 28.725 35.1084 28.3836 35.2222 28.099C35.4688 27.511 35.6206 26.6384 35.7534 25.8796C35.8862 25.1019 36 24.419 36.2276 23.8878C36.0379 22.8635 35.981 21.6494 35.9051 20.3785C35.8292 18.8989 35.7344 17.3813 35.4498 16.338C35.3171 15.8638 35.6016 15.3895 36.0569 15.2568C36.5501 15.1429 37.0053 15.4085 37.1381 15.8638C37.4796 17.0968 37.5555 18.7092 37.6503 20.2836C37.7262 21.5546 37.7831 22.8824 37.9917 23.8309C38.1625 24.6086 38.5608 25.2536 39.0161 25.9934C39.3386 26.5056 39.6611 27.0557 39.9266 27.6438C40.0404 27.9093 40.0215 28.2128 39.8697 28.4784C39.718 28.725 39.4524 28.8768 39.1678 28.8768C39.1299 28.8957 39.0161 28.8768 38.9212 28.8768C38.3711 28.9147 37.7831 29.0095 37.195 29.1234C36.8346 29.1992 36.4932 29.2561 36.1327 29.3131C36.1138 29.3131 36.0758 29.3131 36.0569 29.3131H36.0758Z" fill="white"/>
</svg>
