<svg width="1440" height="1024" viewBox="0 0 1440 1024" fill="none" xmlns="http://www.w3.org/2000/svg">
<g clip-path="url(#clip0_280_240)">
<rect width="1440" height="1024" fill="url(#paint0_linear_280_240)"/>
<g style="mix-blend-mode:overlay" opacity="0.7" clip-path="url(#clip1_280_240)">
<mask id="mask0_280_240" style="mask-type:alpha" maskUnits="userSpaceOnUse" x="-1" y="-37" width="1065" height="1066">
<rect x="1064" y="1028.43" width="1064.65" height="1064.65" transform="rotate(-180 1064 1028.43)" fill="url(#paint1_radial_280_240)"/>
</mask>
<g mask="url(#mask0_280_240)">
<path d="M-500.077 600.064C-397.406 677.344 -357.768 733.234 -319.434 787.289C-300.747 813.64 -281.424 840.885 -254.858 870.184C-225.039 903.069 -188.784 935.433 -144.033 969.119C-99.2818 1002.8 -58.1521 1028.68 -18.2946 1048.24C17.2077 1065.66 48.7402 1076.69 79.2328 1087.36C141.784 1109.24 206.457 1131.86 309.129 1209.14C411.801 1286.42 451.438 1342.31 489.772 1396.36C508.459 1422.71 527.782 1449.96 554.348 1479.26C584.168 1512.14 620.416 1544.51 665.173 1578.19L650.462 1597.74C547.791 1520.46 508.153 1464.57 469.819 1410.52C451.132 1384.17 431.809 1356.93 405.243 1327.63C375.424 1294.74 339.175 1262.38 294.418 1228.69C249.661 1195.01 208.537 1169.13 168.68 1149.57C133.177 1132.15 101.645 1121.12 71.1523 1110.45C8.60734 1088.57 -56.0723 1065.95 -158.744 988.668C-261.415 911.388 -301.053 855.498 -339.387 801.443C-358.074 775.092 -377.397 747.847 -403.963 718.547C-433.783 685.663 -470.037 653.299 -514.788 619.613L-500.077 600.064Z" fill="white"/>
<path d="M378.402 -567.059C481.073 -489.779 520.711 -433.889 559.045 -379.834C577.732 -353.483 597.055 -326.238 623.621 -296.938C653.44 -264.054 689.695 -231.69 734.446 -198.004C779.197 -164.319 820.327 -138.438 860.184 -118.883C895.687 -101.462 927.219 -90.433 957.712 -79.7652C1020.26 -57.8851 1084.94 -35.259 1187.61 42.0215C1290.28 119.302 1329.92 175.192 1368.25 229.24C1386.94 255.592 1406.26 282.836 1432.83 312.136C1462.65 345.02 1498.9 377.385 1543.65 411.07L1528.94 430.62C1426.27 353.339 1386.63 297.45 1348.3 243.401C1329.61 217.049 1310.29 189.805 1283.72 160.505C1253.9 127.621 1217.65 95.2566 1172.9 61.571C1128.15 27.8854 1087.02 2.00506 1047.16 -17.5506C1011.66 -34.9714 980.124 -46.0001 949.631 -56.6679C887.086 -78.5479 822.407 -101.174 719.735 -178.455C617.064 -255.735 577.426 -311.625 539.092 -365.68C520.405 -392.031 501.082 -419.276 474.516 -448.576C444.696 -481.46 408.448 -513.824 363.691 -547.51L378.402 -567.059Z" fill="white"/>
<path d="M343.26 -520.375C445.932 -443.095 485.569 -387.205 523.904 -333.157C542.591 -306.805 561.914 -279.561 588.479 -250.261C618.299 -217.376 654.554 -185.012 699.305 -151.327C744.056 -117.641 785.186 -91.7606 825.043 -72.205C860.545 -54.7842 892.078 -43.7555 922.57 -33.0877C985.115 -11.2076 1049.8 11.4187 1152.47 88.6992C1255.14 165.98 1294.78 221.87 1333.11 275.924C1351.8 302.276 1371.12 329.52 1397.69 358.82C1427.51 391.704 1463.75 424.069 1508.51 457.754L1493.8 477.304C1391.13 400.023 1351.49 344.133 1313.16 290.079C1294.47 263.727 1275.15 236.483 1248.58 207.183C1218.76 174.299 1182.51 141.934 1137.76 108.249C1093 74.5631 1051.87 48.6827 1012.02 29.1271C976.515 11.7063 944.983 0.677441 914.49 -9.99038C851.939 -31.8704 787.265 -54.4966 684.594 -131.777C581.922 -209.058 542.285 -264.947 503.951 -319.002C485.263 -345.354 465.94 -372.598 439.375 -401.898C409.555 -434.788 373.306 -467.147 328.549 -500.832L343.26 -520.382L343.26 -520.375Z" fill="white"/>
<path d="M308.119 -473.684C410.79 -396.404 450.427 -340.514 488.762 -286.459C507.449 -260.108 526.772 -232.863 553.338 -203.564C583.157 -170.679 619.412 -138.315 664.163 -104.63C708.914 -70.944 750.044 -45.0635 789.901 -25.5078C825.404 -8.08697 856.936 2.94166 887.429 13.6095C949.973 35.4895 1014.65 58.1159 1117.32 135.396C1220 212.677 1259.63 268.567 1297.97 322.615C1316.66 348.967 1335.98 376.211 1362.54 405.511C1392.36 438.395 1428.61 470.76 1473.37 504.445L1458.66 523.995C1355.99 446.714 1316.35 390.824 1278.01 336.776C1259.33 310.424 1240 283.18 1213.44 253.88C1183.62 220.996 1147.36 188.631 1102.61 154.946C1057.86 121.26 1016.73 95.3797 976.875 75.8241C941.373 58.4033 909.841 47.3746 879.348 36.7068C816.797 14.8268 752.123 -7.79962 649.452 -85.0801C546.78 -162.361 507.143 -218.25 468.809 -272.305C450.122 -298.656 430.799 -325.901 404.233 -355.201C374.413 -388.085 338.159 -420.449 293.408 -454.135L308.119 -473.684Z" fill="white"/>
<path d="M272.984 -427.002C375.656 -349.721 415.293 -293.831 453.627 -239.777C472.314 -213.425 491.637 -186.181 518.203 -156.881C548.023 -123.997 584.277 -91.6323 629.028 -57.9467C673.779 -24.2611 714.909 1.61938 754.767 21.1751C790.269 38.5959 821.801 49.6245 852.294 60.2924C914.839 82.1724 979.519 104.799 1082.19 182.079C1184.86 259.36 1224.5 315.249 1262.83 369.304C1281.52 395.656 1300.84 422.9 1327.41 452.2C1357.23 485.084 1393.48 517.449 1438.23 551.134L1423.52 570.684C1320.85 493.403 1281.21 437.513 1242.88 383.465C1224.19 357.113 1204.87 329.869 1178.3 300.569C1148.48 267.685 1112.24 235.32 1067.48 201.635C1022.73 167.949 981.598 142.069 941.741 122.513C906.239 105.092 874.706 94.0636 844.214 83.3958C781.669 61.5158 716.989 38.8894 614.317 -38.3911C511.646 -115.672 472.008 -171.561 433.674 -225.616C414.987 -251.968 395.664 -279.212 369.098 -308.512C339.279 -341.396 303.03 -373.76 258.273 -407.446L272.984 -426.996L272.984 -427.002Z" fill="white"/>
<path d="M237.843 -380.317C340.514 -303.036 380.152 -247.146 418.486 -193.092C437.173 -166.74 456.496 -139.496 483.062 -110.196C512.881 -77.3115 549.13 -44.9472 593.887 -11.2616C638.644 22.4239 679.768 48.3043 719.625 67.8599C755.128 85.2808 786.66 96.3096 817.153 106.977C879.698 128.857 944.377 151.484 1047.05 228.764C1149.72 306.045 1189.36 361.934 1227.69 415.989C1246.38 442.341 1265.7 469.585 1292.27 498.885C1322.09 531.769 1358.34 564.134 1403.09 597.819L1388.38 617.369C1285.71 540.088 1246.07 484.198 1207.74 430.144C1189.05 403.792 1169.73 376.548 1143.16 347.248C1113.34 314.357 1077.09 281.999 1032.34 248.314C987.587 214.628 946.457 188.748 906.599 169.192C871.097 151.771 839.565 140.743 809.072 130.075C746.527 108.195 681.848 85.5683 579.176 8.28783C476.504 -68.9926 436.867 -124.882 398.533 -178.937C379.846 -205.289 360.523 -232.533 333.957 -261.833C304.137 -294.717 267.883 -327.082 223.132 -360.767L237.843 -380.317Z" fill="white"/>
<path d="M202.707 -333.633C305.379 -256.352 345.016 -200.463 383.351 -146.408C402.038 -120.056 421.361 -92.812 447.926 -63.5122C477.746 -30.6279 514.001 1.73638 558.752 35.422C603.503 69.1075 644.633 94.988 684.49 114.544C719.992 131.965 751.525 142.993 782.017 153.661C844.568 175.541 909.242 198.167 1011.91 275.448C1114.59 352.728 1154.22 408.618 1192.56 462.667C1211.24 489.018 1230.57 516.263 1257.13 545.562C1286.95 578.447 1323.2 610.811 1367.96 644.497L1353.25 664.046C1250.58 586.766 1210.94 530.876 1172.6 476.827C1153.92 450.476 1134.59 423.231 1108.03 393.932C1078.21 361.047 1041.96 328.683 997.203 294.997C952.452 261.312 911.322 235.431 871.464 215.876C835.962 198.455 804.43 187.426 773.937 176.758C711.392 154.878 646.712 132.252 544.041 54.9716C441.369 -22.3089 401.732 -78.1988 363.398 -132.253C344.71 -158.605 325.387 -185.849 298.822 -215.149C269.002 -248.033 232.754 -280.398 187.996 -314.083L202.707 -333.633Z" fill="white"/>
<path d="M167.566 -286.949C270.237 -209.669 309.875 -153.779 348.209 -99.7242C366.896 -73.3728 386.219 -46.1283 412.785 -16.8284C442.604 16.0619 478.859 48.4202 523.61 82.1058C568.361 115.791 609.491 141.672 649.348 161.227C684.851 178.648 716.383 189.677 746.876 200.345C809.421 222.225 874.1 244.851 976.772 322.132C1079.44 399.412 1119.08 455.302 1157.42 509.351C1176.1 535.702 1195.43 562.946 1221.99 592.246C1251.81 625.131 1288.06 657.495 1332.82 691.181L1318.11 710.73C1215.43 633.449 1175.8 577.56 1137.46 523.505C1118.77 497.154 1099.45 469.909 1072.89 440.609C1043.07 407.719 1006.82 375.361 962.061 341.675C917.31 307.989 876.18 282.109 836.322 262.553C800.82 245.132 769.288 234.104 738.795 223.436C676.244 201.556 611.571 178.93 508.899 101.649C406.227 24.3686 366.59 -31.5211 328.256 -85.5758C309.569 -111.927 290.245 -139.172 263.68 -168.472C233.86 -201.356 197.606 -233.72 152.855 -267.406L167.566 -286.955L167.566 -286.949Z" fill="white"/>
<path d="M132.425 -240.266C235.097 -162.985 274.734 -107.095 313.068 -53.0405C331.755 -26.689 351.078 0.55552 377.644 29.8553C407.464 62.7395 443.718 95.1039 488.469 128.789C533.22 162.475 574.35 188.356 614.208 207.911C649.71 225.332 681.242 236.361 711.735 247.029C774.286 268.909 838.96 291.535 941.631 368.815C1044.3 446.096 1083.94 501.986 1122.27 556.034C1140.96 582.386 1160.28 609.63 1186.85 638.93C1216.67 671.814 1252.92 704.179 1297.68 737.864L1282.96 757.414C1180.29 680.133 1140.66 624.243 1102.32 570.195C1083.63 543.843 1064.31 516.599 1037.75 487.299C1007.93 454.415 971.677 422.05 926.92 388.365C882.169 354.679 841.039 328.799 801.182 309.243C765.68 291.822 734.147 280.794 703.655 270.126C641.11 248.246 576.43 225.619 473.758 148.339C371.087 71.0585 331.449 15.1686 293.115 -38.8861C274.428 -65.2376 255.105 -92.4821 228.539 -121.782C198.72 -154.666 162.465 -187.03 117.714 -220.716L132.425 -240.266Z" fill="white"/>
<path d="M97.2896 -193.575C199.961 -116.295 239.599 -60.4051 277.933 -6.35037C296.62 20.0011 315.943 47.2456 342.509 76.5454C372.328 109.43 408.583 141.794 453.334 175.48C498.085 209.165 539.215 235.046 579.072 254.601C614.575 272.022 646.107 283.051 676.6 293.719C739.145 315.599 803.824 338.225 906.496 415.505C1009.17 492.786 1048.8 548.676 1087.14 602.724C1105.83 629.076 1125.15 656.32 1151.71 685.62C1181.53 718.504 1217.78 750.869 1262.54 784.554L1247.83 804.104C1145.16 726.823 1105.52 670.933 1067.19 616.879C1048.5 590.527 1029.18 563.283 1002.61 533.983C972.791 501.099 936.542 468.734 891.785 435.049C847.034 401.363 805.904 375.483 766.047 355.927C730.544 338.506 699.012 327.477 668.519 316.81C605.968 294.93 541.295 272.303 438.623 195.023C335.951 117.742 296.314 61.8526 257.98 7.79789C239.293 -18.5536 219.97 -45.7981 193.404 -75.0979C163.584 -107.982 127.33 -140.346 82.5787 -174.032L97.2896 -193.582L97.2896 -193.575Z" fill="white"/>
<path d="M62.1484 -146.892C164.82 -69.6113 204.457 -13.7216 242.792 40.3332C261.479 66.6846 280.802 93.9291 307.367 123.229C337.187 156.113 373.442 188.478 418.193 222.163C462.944 255.849 504.074 281.729 543.931 301.285C579.433 318.706 610.966 329.734 641.458 340.402C704.009 362.282 768.683 384.908 871.355 462.189C974.026 539.469 1013.66 595.359 1052 649.414C1070.68 675.765 1090.01 703.01 1116.57 732.31C1146.39 765.194 1182.64 797.558 1227.4 831.244L1212.68 850.793C1110.01 773.513 1070.37 717.623 1032.04 663.575C1013.35 637.223 994.028 609.979 967.463 580.679C937.643 547.788 901.388 515.43 856.637 481.745C811.886 448.059 770.757 422.179 730.899 402.623C695.397 385.202 663.864 374.173 633.372 363.506C570.827 341.626 506.147 318.999 403.476 241.719C300.804 164.438 261.167 108.548 222.832 54.4937C204.145 28.1423 184.822 0.897797 158.257 -28.402C128.437 -61.2863 92.1823 -93.6506 47.4314 -127.336L62.1423 -146.886L62.1484 -146.892Z" fill="white"/>
<path d="M27.0073 -100.208C129.679 -22.9271 169.316 32.9627 207.651 87.0175C226.338 113.369 245.661 140.613 272.226 169.913C302.046 202.798 338.301 235.162 383.052 268.847C427.803 302.533 468.932 328.413 508.79 347.969C544.292 365.39 575.825 376.419 606.317 387.086C668.868 408.967 733.542 431.593 836.213 508.873C938.885 586.154 978.522 642.044 1016.86 696.092C1035.54 722.444 1054.87 749.688 1081.43 778.988C1111.25 811.872 1147.5 844.237 1192.26 877.922L1177.54 897.472C1074.87 820.191 1035.23 764.301 996.897 710.253C978.21 683.901 958.887 656.657 932.322 627.357C902.502 594.473 866.247 562.108 821.496 528.423C776.745 494.737 735.616 468.857 695.758 449.301C660.256 431.88 628.723 420.852 598.231 410.184C535.686 388.304 471.006 365.677 368.334 288.397C265.663 211.116 226.026 155.227 187.691 101.172C169.004 74.8205 149.681 47.576 123.116 18.2762C93.2959 -14.6081 57.0411 -46.9724 12.2901 -80.6579L27.0012 -100.208L27.0073 -100.208Z" fill="white"/>
<path d="M-8.12821 -53.5231C94.5434 23.7574 134.181 79.6472 172.515 133.702C191.202 160.053 210.525 187.298 237.091 216.598C266.91 249.488 303.165 281.846 347.916 315.532C392.667 349.217 433.797 375.098 473.654 394.654C509.157 412.074 540.689 423.103 571.182 433.771C633.727 455.651 698.406 478.277 801.078 555.558C903.75 632.838 943.387 688.728 981.721 742.777C1000.41 769.128 1019.73 796.373 1046.3 825.672C1076.12 858.557 1112.37 890.921 1157.12 924.607L1142.41 944.156C1039.74 866.876 1000.1 810.986 961.768 756.937C943.081 730.586 923.758 703.341 897.192 674.041C867.373 641.157 831.124 608.793 786.367 575.107C741.616 541.422 700.486 515.541 660.629 495.985C625.126 478.565 593.594 467.536 563.101 456.868C500.55 434.988 435.877 412.362 333.205 335.081C230.534 257.801 190.896 201.911 152.562 147.856C133.875 121.505 114.552 94.2603 87.986 64.9605C58.1663 32.0763 21.9117 -0.288063 -22.8393 -33.9736L-8.12821 -53.5231Z" fill="white"/>
<path d="M-43.2693 -6.84001C59.4023 70.4405 99.0394 126.33 137.374 180.385C156.061 206.737 175.384 233.981 201.95 263.281C231.769 296.165 268.024 328.529 312.775 362.215C357.526 395.901 398.656 421.781 438.513 441.337C474.016 458.757 505.548 469.786 536.041 480.454C598.586 502.334 663.265 524.96 765.937 602.241C868.608 679.521 908.246 735.411 946.58 789.46C965.267 815.811 984.59 843.056 1011.16 872.355C1040.98 905.24 1077.22 937.604 1121.98 971.29L1107.27 990.839C1004.6 913.559 964.961 857.669 926.627 803.62C907.94 777.269 888.617 750.024 862.051 720.724C832.231 687.84 795.983 655.476 751.226 621.79C706.475 588.105 665.345 562.224 625.488 542.669C589.985 525.248 558.453 514.219 527.96 503.551C465.415 481.671 400.736 459.045 298.064 381.764C195.392 304.484 155.755 248.594 117.421 194.539C98.7337 168.188 79.4105 140.943 52.8449 111.644C23.0252 78.7594 -13.2294 46.395 -57.9804 12.7095L-43.2693 -6.84001Z" fill="white"/>
<path d="M-78.4053 39.8444C24.2662 117.125 63.9035 173.015 102.238 227.069C120.925 253.421 140.248 280.665 166.814 309.965C196.633 342.849 232.888 375.214 277.639 408.899C322.39 442.585 363.52 468.465 403.377 488.021C438.88 505.442 470.412 516.47 500.905 527.138C563.45 549.018 628.129 571.645 730.801 648.925C833.472 726.206 873.11 782.095 911.444 836.144C930.131 862.495 949.454 889.74 976.02 919.04C1005.84 951.924 1042.09 984.288 1086.85 1017.97L1072.13 1037.52C969.456 960.243 929.819 904.353 891.485 850.305C872.798 823.953 853.475 796.709 826.909 767.409C797.089 734.525 760.835 702.16 716.084 668.475C671.333 634.789 630.203 608.909 590.345 589.353C554.843 571.932 523.311 560.903 492.818 550.236C430.273 528.356 365.593 505.729 262.922 428.449C160.25 351.168 120.613 295.279 82.2787 241.224C63.5916 214.872 44.2684 187.628 17.7028 158.328C-12.1169 125.444 -48.3715 93.0795 -93.1225 59.3939L-78.4115 39.8444L-78.4053 39.8444Z" fill="white"/>
<path d="M-113.546 86.534C-10.8748 163.814 28.7625 219.704 67.0969 273.759C85.7839 300.111 105.107 327.355 131.673 356.655C161.492 389.539 197.747 421.903 242.498 455.589C287.249 489.275 328.379 515.155 368.236 534.711C403.739 552.132 435.271 563.16 465.764 573.828C528.308 595.708 592.988 618.334 695.66 695.615C798.331 772.895 837.969 828.785 876.303 882.834C894.99 909.185 914.313 936.43 940.879 965.729C970.698 998.62 1006.95 1030.98 1051.7 1064.66L1036.99 1084.21C934.315 1006.93 894.678 951.043 856.344 896.994C837.657 870.643 818.333 843.398 791.768 814.099C761.948 781.214 725.694 748.85 680.943 715.164C636.192 681.479 595.062 655.598 555.204 636.043C519.702 618.622 488.17 607.593 457.677 596.925C395.132 575.045 330.452 552.419 227.781 475.138C125.109 397.858 85.4719 341.968 47.1375 287.913C28.4505 261.562 9.12739 234.317 -17.4382 205.018C-47.2579 172.133 -83.5126 139.769 -128.264 106.084L-113.553 86.534L-113.546 86.534Z" fill="white"/>
<path d="M-148.688 133.218C-46.0162 210.499 -6.37883 266.389 31.9555 320.443C50.6425 346.795 69.9656 374.039 96.5312 403.339C126.351 436.223 162.606 468.588 207.357 502.273C252.108 535.959 293.237 561.839 333.095 581.395C368.597 598.816 400.13 609.845 430.622 620.512C493.167 642.392 557.847 665.019 660.518 742.299C763.19 819.58 802.827 875.469 841.162 929.518C859.849 955.869 879.172 983.114 905.737 1012.41C935.557 1045.3 971.806 1077.66 1016.56 1111.35L1001.85 1130.9C899.18 1053.62 859.543 997.727 821.208 943.679C802.521 917.327 783.198 890.083 756.633 860.783C726.813 827.899 690.558 795.534 645.807 761.849C601.056 728.163 559.927 702.283 520.069 682.727C484.567 665.306 453.034 654.277 422.542 643.61C359.997 621.73 295.317 599.103 192.646 521.823C89.9739 444.542 50.3366 388.653 12.0023 334.598C-6.6848 308.246 -26.008 281.002 -52.5735 251.702C-82.3932 218.818 -118.648 186.453 -163.399 152.768L-148.688 133.218Z" fill="white"/>
<path d="M-183.823 179.902C-81.1514 257.182 -41.5143 313.072 -3.17986 367.127C15.5071 393.478 34.8304 420.723 61.3959 450.023C91.2156 482.913 127.47 515.271 172.221 548.957C216.972 582.642 258.102 608.523 297.96 628.078C333.462 645.499 364.994 656.528 395.487 667.196C458.032 689.076 522.712 711.702 625.383 788.983C728.055 866.263 767.692 922.153 806.026 976.208C824.713 1002.56 844.037 1029.8 870.602 1059.1C900.422 1091.99 936.67 1124.35 981.427 1158.04L966.716 1177.59C864.045 1100.31 824.408 1044.42 786.073 990.368C767.386 964.017 748.063 936.772 721.497 907.473C691.678 874.582 655.423 842.224 610.672 808.538C565.921 774.853 524.791 748.972 484.934 729.417C449.431 711.996 417.899 700.967 387.407 690.299C324.862 668.419 260.182 645.793 157.51 568.513C54.8387 491.232 15.2014 435.342 -23.133 381.287C-41.8201 354.936 -61.1432 327.691 -87.7088 298.392C-117.528 265.507 -153.783 233.143 -198.534 199.458L-183.823 179.908L-183.823 179.902Z" fill="white"/>
<path d="M-218.965 226.586C-116.293 303.867 -76.6561 359.757 -38.3218 413.811C-19.6347 440.163 -0.311518 467.407 26.254 496.707C56.0738 529.591 92.3284 561.956 137.079 595.641C181.83 629.327 222.96 655.207 262.818 674.763C298.32 692.184 329.852 703.212 360.345 713.88C422.89 735.76 487.57 758.387 590.241 835.667C692.913 912.948 732.55 968.837 770.885 1022.89C789.572 1049.24 808.895 1076.48 835.46 1105.78C865.28 1138.67 901.529 1171.03 946.286 1204.72L931.575 1224.27C828.903 1146.98 789.266 1091.1 750.931 1037.05C732.244 1010.7 712.921 983.45 686.356 954.151C656.536 921.266 620.287 888.902 575.53 855.217C530.779 821.531 489.649 795.651 449.792 776.095C414.29 758.674 382.757 747.645 352.265 736.978C289.72 715.098 225.04 692.471 122.368 615.191C19.6967 537.91 -19.9405 482.02 -58.2749 427.966C-76.9619 401.614 -96.2851 374.37 -122.851 345.07C-152.67 312.186 -188.925 279.821 -233.676 246.136L-218.965 226.586Z" fill="white"/>
<path d="M-254.106 273.27C-151.434 350.55 -111.797 406.44 -73.4623 460.495C-54.7753 486.846 -35.452 514.091 -8.88647 543.391C20.9332 576.281 57.1879 608.639 101.939 642.325C146.69 676.01 187.82 701.891 227.677 721.447C263.179 738.867 294.712 749.896 325.204 760.564C387.749 782.444 452.429 805.07 555.101 882.351C657.772 959.631 697.41 1015.52 735.744 1069.57C754.431 1095.92 773.754 1123.17 800.32 1152.47C830.139 1185.35 866.388 1217.71 911.145 1251.4L896.428 1270.95C793.756 1193.67 754.119 1137.78 715.785 1083.73C697.098 1057.38 677.774 1030.13 651.209 1000.83C621.389 967.95 585.141 935.586 540.383 901.9C495.633 868.215 454.503 842.334 414.645 822.778C379.143 805.358 347.611 794.329 317.118 783.661C254.573 761.781 189.893 739.155 87.2216 661.874C-15.45 584.594 -55.0872 528.704 -93.4215 474.649C-112.109 448.298 -131.432 421.053 -157.997 391.754C-187.817 358.869 -224.072 326.505 -268.823 292.819L-254.112 273.27L-254.106 273.27Z" fill="white"/>
<path d="M-289.241 319.953C-186.569 397.234 -146.932 453.124 -108.597 507.179C-89.9105 533.53 -70.5872 560.775 -44.0217 590.074C-14.202 622.965 22.0527 655.323 66.8036 689.008C111.555 722.694 152.684 748.574 192.542 768.13C228.044 785.551 259.577 796.58 290.069 807.247C352.614 829.128 417.294 851.754 519.965 929.034C622.637 1006.31 662.274 1062.2 700.609 1116.25C719.296 1142.6 738.619 1169.85 765.184 1199.15C795.004 1232.04 831.253 1264.4 876.01 1298.08L861.293 1317.63C758.621 1240.35 718.984 1184.46 680.649 1130.41C661.962 1104.06 642.639 1076.82 616.074 1047.52C586.254 1014.63 549.999 982.269 505.248 948.584C460.497 914.898 419.367 889.018 379.51 869.462C344.008 852.041 312.475 841.012 281.983 830.345C219.438 808.465 154.758 785.838 52.0864 708.558C-50.5851 631.277 -90.2225 575.388 -128.557 521.333C-147.244 494.981 -166.567 467.737 -193.132 438.437C-222.952 405.553 -259.207 373.188 -303.958 339.503L-289.247 319.953L-289.241 319.953Z" fill="white"/>
<path d="M-324.383 366.644C-221.711 443.924 -182.074 499.814 -143.74 553.869C-125.053 580.22 -105.729 607.465 -79.1639 636.765C-49.3442 669.649 -13.0894 702.013 31.6616 735.699C76.4125 769.384 117.542 795.265 157.4 814.821C192.902 832.241 224.435 843.27 254.927 853.938C317.472 875.818 382.152 898.444 484.823 975.725C587.495 1053.01 627.132 1108.89 665.467 1162.94C684.154 1189.3 703.477 1216.54 730.042 1245.84C759.862 1278.73 796.111 1311.09 840.868 1344.77L826.157 1364.32C723.485 1287.04 683.848 1231.15 645.513 1177.1C626.826 1150.75 607.503 1123.51 580.938 1094.21C551.118 1061.32 514.863 1028.96 470.112 995.274C425.361 961.589 384.232 935.708 344.374 916.152C308.872 898.732 277.339 887.703 246.847 877.035C184.302 855.155 119.622 832.529 16.9505 755.248C-85.7211 677.968 -125.358 622.078 -163.693 568.023C-182.38 541.672 -201.703 514.427 -228.269 485.128C-258.088 452.243 -294.343 419.879 -339.094 386.193L-324.383 366.644Z" fill="white"/>
<path d="M-359.517 413.327C-256.846 490.607 -217.209 546.497 -178.874 600.552C-160.187 626.904 -140.864 654.148 -114.298 683.448C-84.4787 716.338 -48.2241 748.696 -3.47309 782.382C41.2779 816.068 82.4077 841.948 122.265 861.504C157.768 878.925 189.3 889.953 219.792 900.621C282.337 922.501 347.017 945.127 449.689 1022.41C552.36 1099.69 591.998 1155.58 630.332 1209.63C649.019 1235.98 668.342 1263.22 694.908 1292.52C724.727 1325.41 760.976 1357.77 805.733 1391.46L791.022 1411.01C688.35 1333.73 648.713 1277.84 610.379 1223.79C591.692 1197.44 572.369 1170.19 545.803 1140.89C515.983 1108.01 479.729 1075.64 434.978 1041.96C390.227 1008.27 349.097 982.391 309.239 962.836C273.737 945.415 242.205 934.386 211.712 923.718C149.167 901.838 84.4875 879.212 -18.184 801.931C-120.856 724.651 -160.493 668.761 -198.827 614.707C-217.514 588.355 -236.838 561.111 -263.403 531.811C-293.223 498.92 -329.477 466.562 -374.228 432.877L-359.517 413.327Z" fill="white"/>
<path d="M-394.659 460.013C-291.987 537.293 -252.35 593.183 -214.016 647.238C-195.329 673.589 -176.005 700.834 -149.44 730.133C-119.62 763.018 -83.3655 795.382 -38.6144 829.067C6.13653 862.753 47.2663 888.634 87.1238 908.189C122.626 925.61 154.159 936.639 184.651 947.307C247.196 969.187 311.876 991.813 414.547 1069.09C517.219 1146.37 556.856 1202.26 595.191 1256.31C613.878 1282.66 633.201 1309.91 659.766 1339.21C689.586 1372.09 725.835 1404.46 770.592 1438.14L755.881 1457.69C653.209 1380.41 613.572 1324.52 575.237 1270.47C556.55 1244.12 537.227 1216.88 510.662 1187.58C480.842 1154.69 444.593 1122.33 399.836 1088.64C355.085 1054.96 313.956 1029.08 274.098 1009.52C238.596 992.1 207.063 981.072 176.571 970.404C114.026 948.524 49.3461 925.898 -53.3256 848.617C-155.997 771.337 -195.634 715.447 -233.969 661.392C-252.656 635.04 -271.979 607.796 -298.544 578.496C-328.364 545.612 -364.619 513.248 -409.37 479.562L-394.659 460.013Z" fill="white"/>
<path d="M-429.8 506.696C-327.128 583.976 -287.491 639.866 -249.157 693.921C-230.47 720.272 -211.146 747.517 -184.581 776.817C-154.761 809.707 -118.506 842.065 -73.7555 875.751C-29.0045 909.436 12.1253 935.317 51.9828 954.872C87.4851 972.293 119.018 983.322 149.51 993.99C212.055 1015.87 276.735 1038.5 379.406 1115.78C482.078 1193.06 521.715 1248.95 560.05 1303C578.737 1329.35 598.06 1356.59 624.625 1385.89C654.445 1418.78 690.7 1451.14 735.451 1484.83L720.74 1504.37C618.068 1427.09 578.431 1371.2 540.096 1317.16C521.409 1290.8 502.086 1263.56 475.521 1234.26C445.701 1201.38 409.446 1169.01 364.695 1135.33C319.944 1101.64 278.814 1075.76 238.957 1056.2C203.455 1038.78 171.922 1027.75 141.43 1017.09C78.8847 995.207 14.205 972.581 -88.4666 895.3C-191.138 818.02 -230.776 762.13 -269.11 708.075C-287.797 681.724 -307.12 654.479 -333.685 625.179C-363.505 592.289 -399.76 559.931 -444.511 526.245L-429.8 506.696Z" fill="white"/>
<path d="M-464.936 553.38C-362.264 630.66 -322.627 686.55 -284.293 740.605C-265.606 766.956 -246.282 794.201 -219.717 823.5C-189.897 856.391 -153.642 888.749 -108.891 922.435C-64.1405 956.12 -23.0106 982.001 16.8469 1001.56C52.3492 1018.98 83.8816 1030.01 114.374 1040.67C176.919 1062.55 241.599 1085.18 344.27 1162.46C446.942 1239.74 486.579 1295.63 524.914 1349.68C543.601 1376.03 562.924 1403.28 589.489 1432.58C619.309 1465.47 655.558 1497.82 700.315 1531.51L685.604 1551.06C582.932 1473.78 543.295 1417.89 504.96 1363.83C486.273 1337.48 466.95 1310.24 440.385 1280.94C410.565 1248.05 374.316 1215.69 329.559 1182C284.808 1148.32 243.679 1122.44 203.821 1102.88C168.319 1085.46 136.786 1074.43 106.294 1063.76C43.7488 1041.88 -20.9309 1019.26 -123.602 941.978C-226.274 864.697 -265.911 808.808 -304.246 754.753C-322.933 728.402 -342.256 701.157 -368.821 671.857C-398.641 638.967 -434.896 606.609 -479.647 572.923L-464.936 553.373L-464.936 553.38Z" fill="white"/>
<path d="M413.537 -613.742C516.209 -536.462 555.846 -480.572 594.18 -426.517C612.867 -400.166 632.191 -372.921 658.756 -343.622C688.576 -310.737 724.824 -278.373 769.581 -244.688C814.338 -211.002 855.462 -185.121 895.32 -165.566C930.822 -148.145 962.354 -137.116 992.847 -126.448C1055.4 -104.568 1120.07 -81.9421 1222.74 -4.66156C1325.41 72.6189 1365.05 128.509 1403.39 182.563C1422.07 208.915 1441.4 236.159 1467.96 265.459C1497.78 298.343 1534.03 330.708 1578.79 364.393L1564.08 383.943C1461.4 306.662 1421.77 250.773 1383.43 196.718C1364.75 170.366 1345.42 143.122 1318.86 113.822C1289.04 80.9378 1252.78 48.5735 1208.03 14.8879C1163.28 -18.7977 1122.15 -44.6782 1082.29 -64.2338C1046.79 -81.6546 1015.26 -92.6833 984.767 -103.351C922.222 -125.231 857.542 -147.858 754.87 -225.138C652.199 -302.418 612.561 -358.308 574.227 -412.363C555.54 -438.714 536.217 -465.959 509.651 -495.259C479.832 -528.143 443.583 -560.507 398.826 -594.193L413.537 -613.742Z" fill="white"/>
</g>
</g>
</g>
<defs>
<linearGradient id="paint0_linear_280_240" x1="1249" y1="-146" x2="384.5" y2="512" gradientUnits="userSpaceOnUse">
<stop offset="0.554777" stop-color="#528BE8"/>
<stop offset="1" stop-color="#376ED1"/>
</linearGradient>
<radialGradient id="paint1_radial_280_240" cx="0" cy="0" r="1" gradientUnits="userSpaceOnUse" gradientTransform="translate(2173.5 959.368) rotate(134.949) scale(1601.6 1988.6)">
<stop offset="0.132568" stop-color="#D9D9D9" stop-opacity="0.22"/>
<stop offset="0.674541" stop-color="#D9D9D9" stop-opacity="0"/>
</radialGradient>
<clipPath id="clip0_280_240">
<rect width="1440" height="1024" fill="white"/>
</clipPath>
<clipPath id="clip1_280_240">
<rect width="1064" height="1064" fill="white" transform="translate(1064 1024) rotate(-180)"/>
</clipPath>
</defs>
</svg>
