<?xml version="1.0" encoding="UTF-8"?>
<svg width="22px" height="18px" viewBox="0 0 22 18" version="1.1" xmlns="http://www.w3.org/2000/svg" xmlns:xlink="http://www.w3.org/1999/xlink">
    <title>665935C3-F61D-4696-A339-8695DDCA93AB</title>
    <g id="dataset" stroke="none" stroke-width="1" fill="none" fill-rule="evenodd">
        <g id="Dataset-details-" transform="translate(-99.000000, -979.000000)" fill="#333333">
            <g id="Group-5-Copy" transform="translate(61.000000, 943.000000)">
                <g id="Rectangle" transform="translate(0.585514, 0.000000)">
                    <path d="M49.4144863,44.5 L56.4144863,44.5 L56.4144863,46 L49.4144863,46 L49.4144863,44.5 Z M49.4144863,42 L56.4144863,42 L56.4144863,43.5 L49.4144863,43.5 L49.4144863,42 Z M49.4144863,47 L56.4144863,47 L56.4144863,48.5 L49.4144863,48.5 L49.4144863,47 Z M57.4144863,36.5 L39.4144863,36.5 C38.3144863,36.5 37.4144863,37.4 37.4144863,38.5 L37.4144863,51.5 C37.4144863,52.6 38.3144863,53.5 39.4144863,53.5 L57.4144863,53.5 C58.5144863,53.5 59.4144863,52.6 59.4144863,51.5 L59.4144863,38.5 C59.4144863,37.4 58.5144863,36.5 57.4144863,36.5 L57.4144863,36.5 Z M57.4144863,51.5 L48.4144863,51.5 L48.4144863,38.5 L57.4144863,38.5 L57.4144863,51.5 L57.4144863,51.5 Z" id="Shape"></path>
                </g>
            </g>
        </g>
    </g>
</svg>