<?xml version="1.0" encoding="UTF-8"?>
<svg width="22px" height="18px" viewBox="0 0 22 18" version="1.1" xmlns="http://www.w3.org/2000/svg" xmlns:xlink="http://www.w3.org/1999/xlink">
    <title>dict</title>
    <g id="dataset" stroke="none" stroke-width="1" fill="none" fill-rule="evenodd">
        <g id="dataset1" transform="translate(-78.000000, -621.000000)" fill="#024F9D">
            <g id="Group-9" transform="translate(54.000000, 271.000000)">
                <g id="Group-3" transform="translate(0.000000, 121.500000)">
                    <g id="Group-6" transform="translate(24.000000, 228.000000)">
                        <path d="M12,9 L19,9 L19,10.5 L12,10.5 L12,9 Z M12,6.5 L19,6.5 L19,8 L12,8 L12,6.5 Z M12,11.5 L19,11.5 L19,13 L12,13 L12,11.5 Z M20,1 L2,1 C0.9,1 0,1.9 0,3 L0,16 C0,17.1 0.9,18 2,18 L20,18 C21.1,18 22,17.1 22,16 L22,3 C22,1.9 21.1,1 20,1 L20,1 Z M20,16 L11,16 L11,3 L20,3 L20,16 L20,16 Z" id="dict"></path>
                    </g>
                </g>
            </g>
        </g>
    </g>
</svg>