<?xml version="1.0" encoding="UTF-8"?>
<svg width="20px" height="21px" viewBox="0 0 20 21" version="1.1" xmlns="http://www.w3.org/2000/svg" xmlns:xlink="http://www.w3.org/1999/xlink">
    <title>67B7CBE4-D700-4F39-8A07-DDF428B61FB7</title>
    <g id="dataset" stroke="none" stroke-width="1" fill="none" fill-rule="evenodd">
        <g transform="translate(-325.000000, -423.000000)" fill="#E55A28" id="Group-9">
            <g transform="translate(54.000000, 271.000000)">
                <g id="Group-3" transform="translate(0.000000, 121.500000)">
                    <path d="M282,31.025 L282,34.055 C285.39,34.545 288,37.445 288,40.975 C288,41.875 287.82,42.725 287.52,43.515 L290.12,45.045 C290.68,43.805 291,42.425 291,40.975 C291,35.795 287.05,31.525 282,31.025 L282,31.025 Z M281,47.975 C277.13,47.975 274,44.845 274,40.975 C274,37.445 276.61,34.545 280,34.055 L280,31.025 C274.94,31.525 271,35.785 271,40.975 C271,46.495 275.47,50.975 280.99,50.975 C284.3,50.975 287.23,49.365 289.05,46.885 L286.45,45.355 C285.17,46.955 283.21,47.975 281,47.975 L281,47.975 Z" id="Shape"></path>
                </g>
            </g>
        </g>
    </g>
</svg>