<svg height="304" viewBox="0 0 353 304" width="353" xmlns="http://www.w3.org/2000/svg" xmlns:xlink="http://www.w3.org/1999/xlink"><linearGradient id="a"><stop offset=".26" stop-color="#fda033"/><stop offset="1" stop-color="#e35b32"/></linearGradient><linearGradient id="b" x1="18.545186%" x2="70.037109%" xlink:href="#a" y1="23.87497%" y2="66.598606%"/><linearGradient id="c" x1="14.067165%" x2="88.653317%" xlink:href="#a" y1="41.882196%" y2="55.522631%"/><linearGradient id="d" x1="0%" x2="82.116157%" y1="31.145116%" y2="77.10308%"><stop offset="0" stop-color="#fff4ee"/><stop offset=".476398601" stop-color="#ffeea6"/><stop offset="1" stop-color="#ffb661"/></linearGradient><linearGradient id="e" x1="0%" x2="63.854083%" y1="31.145116%" y2="77.099059%"><stop offset="0" stop-color="#fff"/><stop offset="1" stop-color="#ffb067"/></linearGradient><filter id="f" height="151.6%" width="145.3%" x="-22.7%" y="-25.8%"><feGaussianBlur in="SourceGraphic" stdDeviation="17"/></filter><linearGradient id="g" x1="19.376927%" x2="30.154614%" y1="-17.758019%" y2="89.055016%"><stop offset="0" stop-color="#fff" stop-opacity="0"/><stop offset="1" stop-color="#ffb664"/></linearGradient><g fill="none" fill-rule="evenodd" transform="translate(8.5 1)"><g fill-rule="nonzero" transform="matrix(-.99026807 -.1391731 -.1391731 .99026807 72.80551 26.531676)"><path d="m39.1606616 68.3856632c-11.8951117 2.980924-17.8202086-3.0462593-20.0089418-11.7644411-.0490015-.2041729-.098003-.4083458-.1429211-.6084352-.0925583-.4029012-.1742275-.8112469-.2450074-1.2250373-1.4169598-8.0076602 1.4128763-15.2190462 12.4708793-17.9957973 11.4336811-2.8584203 29.560149 8.1342474 30.8995231 8.9836066l.0775857.0490015s-11.1682564 19.563845-23.0511178 22.5611028z" fill="url(#b)"/><path d="m20.6830163 55.5962742 9.8901342 3.8956185-10.8129956-3.6751118-.7554396.1715052c-.098003-.4083457-.1837556-.8493591-.2613413-1.2740387l12.0584501-2.3316543.0939195-.0285842h.0204173l1.1392846-.2205067 7.4482266-8.3425037-6.6029508 8.1669151-.2327571.0735022 9.1101937-1.7640537 7.9668256-7.5380625-6.3701937 7.2073025 18.7634873-4.1651267h.0612519-.0612519l-14.7004471 3.6751118 7.0480477 3.4015201-8.3425037-3.2463487-8.0484948 2.0131445 8.8651863 2.6134128-10.0085544-2.1560655-4.4918033 1.1229508 12.3524591 3.6751118-14.0021759-3.6506111z" fill="#022f4f"/><path d="m40.9818837 43.554158c-10.049389 13.2794038-21.4544858 11.9441132-31.19353204 4.5734724-.22459017-.1674218-.44918033-.3430104-.66968704-.5185991-.44509687-.3511774-.87385991-.7064382-1.29445604-1.0739493-8.31800298-7.2726379-11.45818181-17.3138599-2.11523099-29.666319 9.67371091-12.79755585 38.21707901-16.55433677 40.34456031-16.81976151h.1225038s4.8674813 30.22166911-5.194158 43.50515651z" fill="url(#c)"/><path d="m10.5478748 45.7551416 13.7857526-4.2957973-14.58202686 5.3084947-.65335321.8166916c-.46551415-.3675112-.91877794-.7431893-1.35979135-1.1270343l10.78441132-12.736304.0694188-.1061699h.0285842l1.0208644-1.2005366.7758569-15.1741281-.053085 14.2471833-.1837555.2817586 8.1464977-9.6247094 2.017228-14.76578245-.6125186 13.06706405 16.3338301-20.38053648.053085-.06533532-.0490015.06533532-12.4300447 16.41141578 10.3556483-2.3969896-11.6215202 3.6751118-6.8071237 8.9836066 11.6296871-4.7694784-12.4300447 6.2395231-3.7853652 4.9940685 16.2194933-6.6111177-17.9345454 8.0566617z" fill="#022f4f"/></g><path d="m131.96918 263.791356c61.611207 25.280686 126.268674 1.425127 150.573413-57.740089 21.891416-53.289121 11.307094-124.2514458-32.01839-149.6995531-97.958063-57.57675116-196.4143073-3.997705-221.3356486 41.4920119-24.92134129 45.4897172-18.3224739 116.2601192 102.7806256 165.9476302z" fill="url(#d)" fill-rule="nonzero"/><path d="m136.329518 243.213268c50.214269 20.604225 102.911296 1.161505 122.720106-47.059237 17.841908-43.431616 9.21549-101.2672182-26.095578-122.0078947-79.837627-46.9261134-160.0812804-3.2582032-180.3926329 33.8167547-20.3113524 37.074957-14.9331539 94.75414 83.7681049 135.250377z" fill="url(#e)" fill-rule="nonzero" filter="url(#f)"/><path d="m23.624608 146.47101c27.4247514 64.714773 116.005838 87.093471 158.209976 59.375643 42.204137-27.717828 30.350118-104.438842-1.557637-158.6123977-38.297946-51.66617905-184.07709043 34.5219822-156.652339 99.2367547z" fill="url(#g)" opacity=".6"/><g fill-rule="nonzero"><g transform="matrix(-1 0 0 1 343.512697 45.479508)"><path d="m21.1931446 6.8928763c-.2658578.16591301-.6101309.13186134-.8383348-.08291875-.2282038-.2147801-.2830389-.55635965-.1335281-.83177573l.1715052-.31034277c.0929923-.17071962.110138-.37261005.0472668-.55656648s-.1999977-.33312093-.3780269-.41121296c-.3549859-.15938926-.7380469-.24682709-1.1270343-.25725782h-.044918c-.1196426.00815532-.2397016.00815532-.3593442 0-.1582766-.01805025-.3180078.01792525-.4532638.10208644l-.7881073.51043219.0735022-.13067064c.1770631-.31934079.0729545-.7214152-.2368405-.91469449-.2928229-.16894619-.5596523-.37938385-.7921908-.624769-.2247907-.24470594-.5920503-.29447477-.8738599-.11842027l-1.2658718.81669151.8942772-1.63338301c.1449353-.2672082.1003485-.59748084-.1102534-.81669151-.946042-1.00842694-2.2561287-1.59656914-3.6383607-1.63338301-1.84572275 0-3.48727268 1.09845007-4.54897163 2.80941878-.63259812 1.04390516-1.77711597 1.66762061-2.99725783 1.63338301h-.09800298c-2.04172876 0-3.67511177 2.31123696-3.67511177 5.14515648 0 2.83391953 1.63338301 5.15740683 3.67511177 5.15740683.4468828-.0008167.88688636-.1101169 1.28220566-.3185097 1.40430049-.68184 3.03672529-.7146676 4.46730254-.089836 1.20854264.5387815 2.58907284.5387815 3.79761554 0 1.4189083-.6123269 3.0335723-.579557 4.4264679.089836.3953193.2083928.8353229.317693 1.2822057.3185097 2.6950819-.8493591 3.6752251-2.3071535 3.6752251-5.15740683.0047407-.81600451-.1463325-1.62542434-.4452102-2.38473919-.0782912-.18310662-.2327099-.32284208-.422703-.38250933-.1899931-.05966724-.396575-.03330389-.5654937.07216655z" fill="#f2f2f2"/><path d="m16.3338301 14.0062593c-1.0642808-.2004857-2.1641037-.0811251-3.1605961.3430104-1.2070479.5391192-2.5864842.5391192-3.79353206 0-1.43324969-.6310067-3.07150331-.5996455-4.47955291.0857527-.39429629.2115278-.83475337.3223435-1.28220566.3225931-1.79672131 0-3.30351714-1.8212221-3.61794337-4.2263785.36050537-.2608938.66813993-.58792877.90652757-.96369602 1.06169896-1.7109687 2.70733234-2.80941877 4.55305514-2.80941877s3.46685544 1.0861997 4.5285544 2.77675111c.64783129 1.03400368 1.78949219 1.65362968 3.00950819 1.63338298h.0694188c1.4210432-.0040834 2.6583308 1.1515351 3.266766 2.838003z" fill="#000" opacity=".03"/><path d="m75.2336215 7.14605067c.2653373.17018895.6125073.13765182.8416011-.07887573.2290939-.21652756.2811439-.56131218.1261783-.83581876l-.1715052-.31034277c-.0929923-.17071961-.110138-.37261005-.0472668-.55656647.0628712-.18395643.1999977-.33312093.3780268-.41121296.3556971-.15616948.7386522-.24080811 1.1270343-.24909091h.044918c.1197017.00618276.2396427.00618276.3593443 0 .159607-.01866821.3208286.01731877.4573473.10208644l.7840238.51043219-.0735022-.13067064c-.1763244-.32037759-.0703436-.72274514.240924-.91469449.286503-.16467316.5489509-.36803596.7799403-.60435171.2234259-.24406901.5892326-.29387367.8697765-.11842027l1.2658718.81669151-.8901937-1.63338302c-.1473539-.26609147-.1043203-.59711976.1061699-.8166915.946042-1.00842694 2.2561287-1.59656914 3.6383606-1.63338301 1.8498063 0 3.4913562 1.09845007 4.5530552 2.80941878.6399928 1.03682743 1.7878108 1.64972483 3.0054247 1.6047988h.1020865c2.0417287 0 3.6751117 2.31123696 3.6751117 5.14515649 0 2.83391956-1.633383 5.15740686-3.6751117 5.15740686-.4482445-.0003184-.8896889-.1096285-1.2862892-.3185097-1.404577-.6830848-3.0386966-.712959-4.4673025-.0816691-1.2085427.5387814-2.5890728.5387814-3.7976155 0-1.4189084-.612327-3.0335724-.579557-4.426468.089836-.3966002.2088812-.8380447.3181913-1.2862891.3185097-2.6950819-.8493592-3.6751153-2.3071535-3.6751153-5.15740685-.0008454-.815641.1500893-1.62431864.4451004-2.38473919.0773962-.18596198.232608-.32851377.4244682-.38984616.1918603-.06133238.4009805-.03524737.5718955.07133647z" fill="#f2f2f2"/><path d="m80.0806855 14.2757675c1.0642711-.200733 2.1641663-.0813645 3.1605962.3430104 1.2085426.5387815 2.5890728.5387815 3.7976155 0 1.429204-.6300074 3.0633291-.5986394 4.4673025.0857527.3955757.212022.8374758.3228477 1.2862891.3225935 1.8130552 0 3.3157675-1.8212225 3.6301938-4.2263789-.3594709-.2620684-.6669044-.5888896-.9065276-.96369602-1.0576155-1.7109687-2.7032489-2.80941878-4.5489717-2.80941878s-3.4709389 1.0861997-4.5285544 2.77675112c-.6484018 1.03339608-1.7896907 1.65282018-3.0095082 1.63338298h-.0490015c-1.4455439-.0040834-2.6828316 1.1719523-3.2994337 2.838003z" fill="#000" opacity=".03"/><path d="m86.385544 32.7493294c-.97909.620348-2.2539538.499173-3.0986396-.2945238-.8446859-.7936968-1.0449011-2.0585585-.4866361-3.0743287l.6370193-1.151535c.3426292-.6308737.4051209-1.3764831.1722849-2.0555882-.232836-.679105-.7396771-1.2295147-1.3973221-1.5174372-1.3091422-.5797067-2.7213248-.8907479-4.1528763-.9146944h-.1674218c-.4457059.0047399-.8913676-.0129775-1.3352906-.053085-.5853803-.06434-1.1753328.0709174-1.6742176.383845l-2.8992548 1.8783905.2654247-.4859315c.6509834-1.1788733.265186-2.6610532-.8779434-3.3729359-1.0583898-.6076872-2.027257-1.3594182-2.8788375-2.2336513-.8336423-.8934986-2.1819435-1.0746391-3.221848-.4328464l-4.6714754 2.9850074 3.2912668-5.9781818c.5323858-.9825529.3671907-2.196737-.4083458-3.0013413-3.5069378-3.69727645-8.3403106-5.84805386-13.4345753-5.97818181-6.8234575 0-12.8873919 4.05895681-16.8034277 10.37606561-2.3709292 3.8280108-6.6111217 6.0922518-11.1110879 5.9332637h-.3675112c-7.5217287 0-13.62241429 8.5344263-13.62241429 18.9880775 0 10.4536513 6.10068559 19.0493294 13.62241429 19.0493294 1.6670158-.0054334 3.3073384-.419019 4.7776453-1.20462 5.1817745-2.5198145 11.208528-2.6377519 16.4849181-.3225931 4.4621346 1.9845156 9.556375 1.9845156 14.0185096 0 5.2339139-2.2654945 11.19345-2.1477937 16.3338301.3225931 1.4623512.7733517 3.0907335 1.1797466 4.7449777 1.1842027 9.9473025-3.1320119 13.6266431-8.5221758 13.6266431-19.0493293.0103127-3.0109284-.5437151-5.9971381-1.6335284-8.8039345-.2838499-.7020386-.8665943-1.240486-1.5888388-1.4680641-.7222446-.2275782-1.5084026-.1204698-2.1434413.2920284z" fill="#f4f0f0"/><path d="m68.4795827 59.07538c-3.9286851-.7434475-7.9897298-.3013807-11.6664381 1.2699553-4.4607509 1.9843333-9.5536754 1.9843333-14.0144263 0-5.2800597-2.3163345-11.3104528-2.1999062-16.4971684.3185097-1.4632121.7754126-3.0930934 1.1832333-4.7490611 1.1882861-6.6927869 0-12.25037256-6.729538-13.41007449-15.6069746 1.33100401-.9635347 2.46605999-2.1720437 3.34435169-3.560775 3.9160358-6.3171088 9.996304-10.3638152 16.8075112-10.3638152s12.8057228 4.0017884 16.7217586 10.245395c2.379109 3.8397318 6.594359 6.154169 11.1110879 6.1006855h.1755887c5.328912-.0857526 9.898301 4.1896274 12.1768703 10.4087332z" fill="#000" opacity=".03"/></g><rect fill="#fff" height="25.072429" rx="7.31" width="30.858689" x="62.313562" y="100.661311"/><rect fill="#fa9932" height="25.072429" rx="7.31" width="30.858689" x="98.317407" y="100.661311"/><rect fill="#fff" height="25.072429" rx="7.31" width="30.858689" x="134.317168" y="100.661311"/><rect fill="#fff" height="25.072429" opacity=".43" rx="7.31" width="30.858689" x="170.321013" y="100.661311"/><rect fill="#fa9932" height="25.072429" rx="7.31" width="30.858689" x="206.324858" y="100.661311"/><rect fill="#fff" height="25.072429" opacity=".43" rx="7.31" width="30.858689" x="62.313562" y="142.769925"/><rect fill="#fff" height="25.072429" rx="7.31" width="30.858689" x="98.317407" y="142.769925"/><rect fill="#fa9932" height="25.072429" rx="7.31" width="30.858689" x="134.317168" y="142.769925"/><rect fill="#fff" height="25.072429" rx="7.31" width="30.858689" x="170.321013" y="142.769925"/><rect fill="#fff" height="25.072429" rx="7.31" width="30.858689" x="206.324858" y="142.769925"/><rect fill="#fa9932" height="25.072429" rx="7.31" width="30.858689" x="62.313562" y="184.882623"/><rect fill="#fff" height="25.072429" rx="7.31" width="30.858689" x="98.317407" y="184.882623"/><rect fill="#fff" height="25.072429" rx="7.31" width="30.858689" x="134.317168" y="184.882623"/><rect fill="#fff" height="25.072429" opacity=".43" rx="7.31" width="30.858689" x="170.321013" y="184.882623"/><rect fill="#fff" height="25.072429" rx="7.31" width="30.858689" x="206.324858" y="184.882623"/><path d="m124.778212 106.696662-1.633383-1.633383c-.16238-.162583-.382736-.253937-.612519-.253937s-.450139.091354-.612519.253937l-10.208643 10.122891-4.316215-4.357049c-.161291-.164617-.382055-.257383-.612519-.257383s-.451227.092766-.612518.257383l-1.633383 1.633383c-.331962.340879-.331962.884158 0 1.225037l6.558032 6.602951c.16238.162582.382736.253937.612519.253937s.450139-.091355.612519-.253937l12.454545-12.360626c.162582-.16238.253937-.382736.253937-.612519s-.091355-.450139-.253937-.612518z" fill="#fff"/><path d="m234.071952 106.696662-1.633383-1.633383c-.16238-.162583-.382735-.253937-.612518-.253937s-.450139.091354-.612519.253937l-10.208644 10.122891-4.320298-4.352966c-.161291-.164617-.382054-.257383-.612518-.257383s-.451228.092766-.612519.257383l-1.633383 1.633383c-.336341.339088-.336341.88595 0 1.225037l6.553949 6.602951c.16238.162583.382736.253937.612519.253937s.450139-.091354.612518-.253937l12.454546-12.360626c.162582-.162379.253937-.382735.253937-.612518s-.091355-.450139-.253937-.612519z" fill="#fff"/><path d="m160.782057 148.486766-1.633383-1.633383c-.161292-.164617-.382055-.257383-.612519-.257383s-.451227.092766-.612519.257383l-10.208643 10.122891-4.316215-4.352966c-.160729-.165657-.381703-.259148-.612519-.259148s-.45179.093491-.612518.259148l-1.633383 1.633384c-.334135.339993-.334135.885043 0 1.225037l6.553949 6.607034c.340879.331962.884158.331962 1.225037 0l12.454546-12.360626c.162582-.16238.253937-.382736.253937-.612519 0-.229782-.091355-.450138-.253937-.612518z" fill="#fff"/><path d="m196.463308 192.204262-1.633383-1.633383c-.161291-.164617-.382054-.257383-.612518-.257383s-.451228.092766-.612519.257383l-10.208644 10.122891-4.316214-4.352965c-.160729-.165658-.381703-.259149-.612519-.259149s-.45179.093491-.612518.259149l-1.633383 1.608882c-.331963.340879-.331963.884158 0 1.225037l6.553949 6.602951c.339087.336341.88595.336341 1.225037 0l12.454546-12.360626c.332764-.334489.336396-.873847.008166-1.212787z" fill="#fff"/></g><circle cx="230.168167" cy="2.756334" r="2.552161" stroke="#fa9932"/><circle cx="249.491088" cy="15.517139" r="2.552161" stroke="#fa9932"/><circle cx="237.342802" cy="9.930969" fill="#fff" fill-rule="nonzero" r="2.033562"/><circle cx="230.331505" cy="36.391774" r="2.262235" stroke="#f7b500"/><circle cx="266.065842" cy="30.511595" r="1.808972" stroke="#f7b500"/><path d="m245.146289 30.8505216h-1.131118v-1.1311177c-.024984-.2937709-.270727-.5195007-.565558-.5195007-.294832 0-.540575.2257298-.565559.5195007v1.1311177h-1.143368c-.213528-.0181602-.419081.0854881-.531435.267972-.112355.1824839-.112355.4126899 0 .5951738.112354.1824839.317907.2861322.531435.2679719h1.131117v1.1311178c.024985.2937709.270728.5195006.565559.5195006.294832 0 .540574-.2257297.565559-.5195006v-1.1311178h1.131118c.293771-.0249847.5195-.2707274.5195-.5655588s-.225729-.5405741-.5195-.5655589z" fill="#fff" fill-rule="nonzero"/><path d="m215.288048 14.565693h-1.127035v-1.1311177c-.024984-.2937709-.270727-.5195007-.565558-.5195007-.294832 0-.540575.2257298-.565559.5195007v1.1311177h-1.131118c-.213528-.0181602-.41908.0854881-.531435.267972-.112354.1824839-.112354.4126899 0 .5951737.112355.1824839.317907.2861322.531435.267972h1.131118v1.1311178c.024984.2937708.270727.5195006.565559.5195006.294831 0 .540574-.2257298.565558-.5195006v-1.1311178h1.127035c.213527.0181602.41908-.0854881.531434-.267972.112355-.1824838.112355-.4126898 0-.5951737-.112354-.1824839-.317907-.2861322-.531434-.267972z" fill="#fff" fill-rule="nonzero"/><path d="m263.791356 3.82211624h-1.796721v-1.80897168c-.032-.47598395-.427428-.84571969-.904486-.84571969s-.872486.36973574-.904486.84571969v1.80897168h-1.808971c-.337648-.02269974-.659827.14455828-.835546.43377008-.17572.2892118-.17572.65221973 0 .94143153.175719.2892118.497898.45646983.835546.43377008h1.808971v1.80897168c-.0227.33764704.144558.65982636.43377.83554584s.65222.17571948.941432 0 .45647-.4978988.43377-.83554584v-1.80897168h1.796721c.337647.02269975.659827-.14455828.835546-.43377008.17572-.2892118.17572-.65221973 0-.94143153-.175719-.2892118-.497899-.45646982-.835546-.43377008z" fill="#fff" fill-rule="nonzero"/></g></svg>