<?xml version="1.0" encoding="UTF-8"?>
<svg width="44px" height="47px" viewBox="0 0 44 47" version="1.1" xmlns="http://www.w3.org/2000/svg" xmlns:xlink="http://www.w3.org/1999/xlink">
    <title>Group</title>
    <defs>
        <linearGradient x1="50%" y1="0%" x2="50%" y2="100%" id="linearGradient-1">
            <stop stop-color="#CDD5DD" offset="0%"></stop>
            <stop stop-color="#9AAABA" offset="100%"></stop>
        </linearGradient>
    </defs>
    <g id="Website" stroke="none" stroke-width="1" fill="none" fill-rule="evenodd">
        <g id="assets" transform="translate(-1208.000000, -614.000000)">
            <g id="Group" transform="translate(1208.785800, 614.000000)">
                <g id="Group-2" transform="translate(4.357400, 0.000000)" fill="url(#linearGradient-1)">
                    <path d="M4.63417965,0 C2.08538084,0 0.0231708982,2.08538084 0.0231708982,4.63417965 L0,41.7076168 C0,44.2564156 2.06220994,46.3417965 4.61100875,46.3417965 L32.4392575,46.3417965 C34.9880563,46.3417965 37.0734372,44.2564156 37.0734372,41.7076168 L37.0734372,13.9025389 L23.1708982,0 L4.63417965,0 Z M20.8538084,16.2196288 L20.8538084,3.47563474 L33.5978024,16.2196288 L20.8538084,16.2196288 L20.8538084,16.2196288 Z" id="Shape"></path>
                </g>
                <rect id="Rectangle" fill="#F3553B" x="0" y="26" width="28" height="13" rx="2"></rect>
                <path d="M6.23288393,36.2598108 L6.23288393,33.5847633 L6.91744331,33.5847633 C7.64763999,33.5847633 8.22512726,33.4689148 8.64990514,33.2372178 C9.07468301,33.0055208 9.37834653,32.700102 9.5608957,32.3209614 C9.74344487,31.9418208 9.83471945,31.5310852 9.83471945,31.0887545 C9.83471945,30.3585578 9.61179883,29.7845811 9.16595759,29.3668244 C8.72011635,28.9490676 8.01273833,28.7401892 7.04382351,28.7401892 L7.04382351,28.7401892 L4.64259983,28.7401892 L4.64259983,36.2598108 L6.23288393,36.2598108 Z M6.75946807,32.2788347 L6.23288393,32.2788347 L6.23288393,30.0461179 L6.95957005,30.0461179 C7.80210467,30.0461179 8.22337198,30.4112162 8.22337198,31.1414129 C8.22337198,31.5416169 8.09172595,31.8312381 7.82843388,32.0102767 C7.56514181,32.1893154 7.20881987,32.2788347 6.75946807,32.2788347 L6.75946807,32.2788347 Z M13.3838966,36.2598108 C14.675783,36.2598108 15.683314,35.9385944 16.4064895,35.2961618 C17.1296651,34.6537291 17.4912528,33.6971013 17.4912528,32.4262782 C17.4912528,31.6258703 17.3315223,30.9518426 17.0120613,30.4041951 C16.6926002,29.8565476 16.2432484,29.4423014 15.6640059,29.1614566 C15.0847633,28.8806117 14.4019592,28.7401892 13.6155936,28.7401892 L13.6155936,28.7401892 L11.2564966,28.7401892 L11.2564966,36.2598108 L13.3838966,36.2598108 Z M13.5313401,34.9433504 L12.8467807,34.9433504 L12.8467807,30.0461179 L13.699847,30.0461179 C14.3949381,30.0461179 14.9250328,30.2427093 15.2901311,30.6358921 C15.6552295,31.029075 15.8377786,31.6399126 15.8377786,32.468405 C15.8377786,34.1183686 15.0689658,34.9433504 13.5313401,34.9433504 L13.5313401,34.9433504 Z M20.6191626,36.2598108 L20.6191626,33.2898762 L23.1678299,33.2898762 L23.1678299,31.9839475 L20.6191626,31.9839475 L20.6191626,30.0461179 L23.3574002,30.0461179 L23.3574002,28.7401892 L19.0499419,28.7401892 L19.0499419,36.2598108 L20.6191626,36.2598108 Z" id="PDF" fill="#FFFFFF" fill-rule="nonzero"></path>
            </g>
        </g>
    </g>
</svg>