<?xml version="1.0" encoding="UTF-8"?>
<svg width="43px" height="47px" viewBox="0 0 43 47" version="1.1" xmlns="http://www.w3.org/2000/svg" xmlns:xlink="http://www.w3.org/1999/xlink">
    <title>Group 3</title>
    <defs>
        <linearGradient x1="50%" y1="0%" x2="50%" y2="100%" id="linearGradient-1">
            <stop stop-color="#CDD5DD" offset="0%"></stop>
            <stop stop-color="#9AAABA" offset="100%"></stop>
        </linearGradient>
    </defs>
    <g id="Website" stroke="none" stroke-width="1" fill="none" fill-rule="evenodd">
        <g id="assets" transform="translate(-1280.000000, -615.000000)">
            <g id="Group-3" transform="translate(1280.357400, 615.000000)">
                <g id="Group-2" transform="translate(3.949237, 0.000000)" fill="url(#linearGradient-1)">
                    <path d="M23.5790615,0 L5.04234291,0 C2.49354411,0 0.431334164,2.08538084 0.431334164,4.63417965 L0.408163265,41.7076168 C0.408163265,44.2564156 2.47037321,46.3417965 5.01917201,46.3417965 L32.8474208,46.3417965 C35.3962196,46.3417965 37.4816004,44.2564156 37.4816004,41.7076168 L37.4816004,13.9025389 L23.5790615,0 L23.5790615,0 Z M21.2619717,16.2196288 L21.2619717,3.47563474 L34.0059657,16.2196288 L21.2619717,16.2196288 L21.2619717,16.2196288 Z" id="Shape"></path>
                </g>
                <rect id="Rectangle" fill="#545658" x="0" y="26" width="28" height="13" rx="2"></rect>
                <path d="M5.40816947,36.2367146 C6.69032423,36.2367146 7.69026558,35.917918 8.40799351,35.2803247 C9.12572145,34.6427315 9.48458542,33.6933098 9.48458542,32.4320597 C9.48458542,31.6376812 9.32605813,30.9687309 9.00900356,30.4252088 C8.69194898,29.8816867 8.24598211,29.470561 7.67110294,29.1918317 C7.09622377,28.9131024 6.41856317,28.7737377 5.63812114,28.7737377 L5.63812114,28.7737377 L3.29679506,28.7737377 L3.29679506,36.2367146 L5.40816947,36.2367146 Z M5.55450235,34.930171 L4.87509969,34.930171 L4.87509969,30.069829 L5.72173993,30.069829 C6.41159493,30.069829 6.93769648,30.2649395 7.30004456,30.6551605 C7.66239265,31.0453815 7.84356669,31.6516177 7.84356669,32.4738691 C7.84356669,34.1114037 7.08054524,34.930171 5.55450235,34.930171 L5.55450235,34.930171 Z M14.2508564,36.3412381 C15.0591713,36.3412381 15.7263796,36.1809688 16.2524811,35.8604301 C16.7785827,35.5398914 17.1688037,35.0921824 17.4231442,34.5173033 C17.6774846,33.9424241 17.8046549,33.2682476 17.8046549,32.4947738 C17.8046549,31.7213 17.6774846,31.0471235 17.4231442,30.4722444 C17.1688037,29.8973652 16.7803247,29.4513983 16.2577073,29.1343438 C15.7350899,28.8172892 15.0696237,28.6587619 14.2613087,28.6587619 C13.4460255,28.6587619 12.7753332,28.8172892 12.2492316,29.1343438 C11.7231301,29.4513983 11.3329091,29.8956231 11.0785686,30.4670182 C10.8242281,31.0384133 10.6970579,31.7108477 10.6970579,32.4843215 C10.6970579,33.2577953 10.8242281,33.9337138 11.0785686,34.5120771 C11.3329091,35.0904404 11.7231301,35.5398914 12.2492316,35.8604301 C12.7753332,36.1809688 13.4425414,36.3412381 14.2508564,36.3412381 Z M14.2508564,35.0137898 C13.5888743,35.0137898 13.1080663,34.7890643 12.8084323,34.3396133 C12.5087983,33.8901624 12.3589813,33.2752159 12.3589813,32.4947738 C12.3589813,31.7143318 12.5087983,31.0993853 12.8084323,30.6499343 C13.1080663,30.2004833 13.5923584,29.9757578 14.2613087,29.9757578 C14.930259,29.9757578 15.4110671,30.2004833 15.7037328,30.6499343 C15.9963986,31.0993853 16.1427315,31.7143318 16.1427315,32.4947738 C16.1427315,33.2752159 15.9963986,33.8901624 15.7037328,34.3396133 C15.4110671,34.7890643 14.9267749,35.0137898 14.2508564,35.0137898 Z M22.3723312,36.3412381 C22.7695205,36.3412381 23.1283844,36.3098811 23.4489231,36.247167 C23.7694618,36.1844529 24.0934846,36.0868976 24.4209915,35.9545012 L24.4209915,35.9545012 L24.4209915,34.6270529 C24.0656117,34.7524811 23.7346206,34.8500364 23.4280184,34.9197187 C23.1214162,34.989401 22.8182981,35.0242422 22.5186641,35.0242422 C21.8636502,35.0242422 21.3880684,34.8064849 21.0919185,34.3709704 C20.7957686,33.9354559 20.6476937,33.3205094 20.6476937,32.5261309 C20.6476937,31.7387206 20.807963,31.1185479 21.1285017,30.6656128 C21.4490404,30.2126777 21.9124279,29.9862102 22.5186641,29.9862102 C22.7904252,29.9862102 23.0674124,30.0349878 23.3496258,30.132543 C23.6318392,30.2300983 23.9123106,30.3450741 24.1910399,30.4774706 L24.1910399,30.4774706 L24.7032049,29.1918317 C24.3617616,29.0315623 24.0046396,28.9043921 23.6318392,28.810321 C23.2590388,28.7162498 22.8879804,28.6692142 22.5186641,28.6692142 C21.766095,28.6692142 21.1302438,28.8329677 20.6111105,29.1604746 C20.0919772,29.4879816 19.69653,29.9409167 19.4247689,30.5192799 C19.1530078,31.0976432 19.0171273,31.7631094 19.0171273,32.5156785 C19.0171273,33.2821841 19.1355873,33.9528765 19.3725072,34.5277556 C19.6094271,35.1026348 19.9752593,35.5486017 20.4700038,35.8656562 C20.9647483,36.1827108 21.5988574,36.3412381 22.3723312,36.3412381 Z" id="DOC" fill="#FFFFFF" fill-rule="nonzero"></path>
            </g>
        </g>
    </g>
</svg>