<svg xmlns="http://www.w3.org/2000/svg" width="133.333" height="193.333" viewBox="0 0 100 145" fill="rgb(0%,0%,0%)" xmlns:v="https://vecta.io/nano"><path d="M81.977.06c-.242.23.133.938.883 1.676.383.37.516.445.816.48 1.066.098 1.066-.664.016-1.785L83.285 0h-.625c-.352 0-.66.023-.684.06zM12.8.746c-.402.375-.508.605-.594 1.336-.04.355-.098.516-.266.664-.434.406-.426.9.043 1.434l.242.273.06 2.44.172 2.613c.168.254.816.332 1.16.133l.258-.152.043-2.613.066-2.62a2.93 2.93 0 0 1 .281-.156c.242-.125.285-.125.52-.008.2.1.582.14 1.672.156l1.527.094c.074.047.098.406.098 1.3v1.254l-.242.238c-.406.406-.973.293-1.258-.254-.156-.316-.156-.352-.04-.6.098-.176.28-.316.605-.465.262-.117.5-.25.535-.3s.066-.273.066-.488c0-.53-.14-.605-1.035-.523-.758.066-1.016.168-1.34.56-.516.605-.684 1.508-.44 2.32.14.465.648 1.004 1.156 1.23.426.18.8.188 1.82.066.172-.027.215.03.34.422.082.238.2.473.266.512.06.043.3.078.535.078.707 0 .707.008.773-2.938l.05-2.504.234-.277c.273-.332.3-.762.06-1.004-.16-.156-.277-.164-2.145-.156l-2.773.066c-.75.06-.8.05-1.06-.14-.215-.156-.273-.266-.273-.473 0-.422.156-.496.797-.383.3.05.793.2 1.102.3.957.363 1.227.414 1.47.25.164-.1.215-.2.215-.457 0-.2-.06-.367-.14-.45-.086-.066-.66-.34-1.277-.605-1.1-.465-1.148-.48-2.016-.516l-.883-.03zM79.9 2.38c-.57.066-.895.723-.57 1.137l.168.22H82.9l.133.246c.098.184.105.293.04.414-.1.176-.25.22-1.492.332-.95.094-1.223.2-1.664.707C79.6 5.8 79.49 6.2 79.49 7c0 .523.043.758.2 1.078.383.84 1.016 1.254 1.875 1.238.477-.008.56-.035.734-.234.352-.406.227-.777-.375-1.078-.773-.398-1.016-1.137-.523-1.633.258-.25.4-.28 1.172-.25.3.02.492.066.566.16.066.1.102.473.102 1.2 0 .895.035 1.152.168 1.434l.156.355h.492c.398 0 .516-.03.668-.187.184-.2.184-.242.184-2.738l.1-2.55c.043 0 .176-.148.3-.324.242-.375.223-.715-.06-.97-.152-.133-.383-.152-2.602-.168-1.34-.008-2.566 0-2.73.023zm-30.127.183c-1.473.06-1.547.094-1.547.723 0 .348.023.406.34.672.3.25.352.332.352.613 0 .25-.06.4-.25.582-.52.54-.383 1.13.44 1.957.383.4.465.438.773.438.4 0 .56-.14.727-.63.117-.324.117-.324.617-.348.738-.035.8.05.84 1.4.043 1.07.05 1.102.273 1.328.277.273.594.297.96.074.398-.242.45-.605.45-3.12V4.047l.207-.246c.184-.22.258-.523.22-.898-.008-.066-.094-.2-.2-.273-.152-.125-.344-.14-1.56-.125l-2.652.06zm2.094 1.602c.176.242.168.555-.008.746-.102.1-.258.148-.625.148-.46 0-.492-.016-.574-.23-.06-.156-.06-.316.008-.54l.1-.3h.492c.4 0 .508.035.617.184zm0 0"/><path d="M61.543 2.695a.65.65 0 0 0-.21.45c0 .266.152.672.258.672.035 0 .176.098.32.215.4.324.355.715-.078 1.113-.242.215-.332.37-.332.54 0 .348.273.852.742 1.352.406.438.406.438.848.414.453-.023.453-.023.684-.465l.234-.43h.535c.617 0 .625.016.625.813a12.35 12.35 0 0 0 .059 1.129c.047.512.074.578.3.72.375.227.898.207 1.2-.04l.23-.2.027-2.473.023-2.465.242-.28c.285-.324.332-.738.117-1.062l-.133-.207h-5.492zm3.465 1.37c.117.066.16.172.16.453 0 .352-.02.375-.293.45-.34.1-.832.035-.957-.1-.043-.055-.094-.23-.102-.38-.016-.227.016-.3.184-.4.25-.125.785-.14 1.008-.023zm3.125-1.4c-.2.156-.223.223-.2.605.023.406.03.43.375.586.375.176.434.293.234.457-.086.066-.125.25-.125.508 0 .523.148.62 1.1.746.727.098.992.23.992.504 0 .2-.45.4-1.133.457-.766.074-.95.234-.95.84 0 .305.047.547.148.688l.36.547a3.22 3.22 0 0 0 .539.566c.293.223.387.246.875.238.3-.008.602-.03.652-.066.148-.1.1-.605-.074-.96l-.168-.324.184-.117.582-.332c.535-.305.734-.73.734-1.582 0-.758-.14-1.12-.566-1.445l-.457-.363c-.102-.074-.16-.16-.125-.2s.34-.1.7-.133c.398-.043.7-.125.8-.207.203-.176.2-.746.027-1.012-.125-.184-.152-.184-2.2-.184-1.977 0-2.074.008-2.293.176zm0 0"/><path d="M73.168 2.598c-.176.082-.22.172-.234.504-.023.324.008.44.156.598.184.2.2.2 1.75.2 1.527 0 1.57.008 1.695.184.297.414.1.887-.395.902l-1.64.066-1.367.05-.117.4c-.098.355-.1.414.074.738.102.2.367.547.594.797.676.703 1.258.695 1.566-.02.234-.527.84-.72 1.258-.387.168.14.2.273.293 1.25.125 1.37.2 1.504.8 1.504.8 0 .758.133.8-2.805l.04-2.562.277-.3c.14-.164.266-.355.266-.414 0-.234-.2-.64-.332-.715-.242-.133-5.242-.105-5.5.027zm-17.836.032c-.422.027-.574.066-.684.2-.207.242-.184.605.043.87l.2.223 1.66.066c1.426.06 1.664.086 1.758.2.316.438-.05.63-1.344.695-.988.05-1.04.066-1.406.332-.566.398-.75.836-.793 1.848-.03.738-.016.84.184 1.254a1.94 1.94 0 0 0 1.266 1.094c.8.234 1.375.05 1.492-.465.086-.363-.14-.695-.566-.86-.566-.22-.656-.36-.625-.973.027-.496.043-.53.316-.687.2-.117.44-.168.777-.176.723 0 .773.094.848 1.512.06 1.137.06 1.145.316 1.4.22.223.316.273.617.273.344 0 .375-.016.5-.316.133-.316.258-2.133.27-3.95l.008-.902.3-.316c.344-.38.402-.836.133-1.16l-.156-.2-2.285-.008c-1.25-.008-2.516.008-2.816.023zm-26.914.116c-.36.14-.5.332-.5.648 0 .164.03.348.074.414s.367.172.723.258c.367.074.684.188.727.266.16.238 0 .527-.375.68-.832.34-.773.246-.8 1.168-.023.98.094 1.38.55 1.824.477.473.9.625 1.75.625.398 0 .86-.043 1.016-.086.242-.066.3-.06.402.06.05.074.098.223.098.324s.078.273.176.398c.14.172.242.215.566.215.7 0 .66.125.727-2.777l.06-2.574.273-.312c.16-.168.285-.398.285-.516 0-.3-.168-.605-.367-.656-.3-.082-5.168-.04-5.383.043zm3.375 1.52c.14.098.164.246.2 1.02.03.785.008.953-.145 1.277-.305.645-1.016.852-1.598.465-.418-.285-.402-.418.125-.797.53-.4.656-.598.8-1.293.164-.797.28-.922.625-.672zm0 0"/><path d="M34.668 2.7a.78.78 0 0 0-.418.59c0 .234.227.68.34.68.234 0 .3.582.352 2.82.06 2.656.066 2.68.766 2.723.727.05.7.117.7-2.703V4.37l.3-.316c.352-.387.395-.828.117-1.184-.164-.207-.2-.215-1.098-.207l-1.06.047zm-13.618.2c-.176.14-.22.242-.22.54 0 .36.02.383.36.53a1.62 1.62 0 0 0 .56.168 1.75 1.75 0 0 1 .391.051c.176.047.168.055-.098.3-.395.34-.543.988-.367 1.55.125.383.117.398-.1.836-.484.922-.168 1.836.793 2.273.684.316 1.3.34 2.617.094.2-.043.324-.008.488.125.176.13.344.172.742.172.52 0 .527 0 .578-.258.023-.14.047-1.324.047-2.63V4.28l.27-.273c.215-.227.258-.332.258-.656 0-.63.1-.613-3.2-.613-2.793 0-2.895.008-3.1.172zm4.125 1.586c.06.215.082.813.06 1.527-.027 1.102-.043 1.184-.25 1.5-.3.457-.875.664-1.418.523C23.14 7.93 23 7.832 23 7.633c0-.16.523-.414.84-.414.195 0 .5-.152.594-.285.156-.23-.016-1.027-.227-1.05-.04-.012-.223-.02-.398-.027-.176-.016-.375-.082-.45-.148-.1-.117-.086-.14.258-.273.45-.176.574-.3.715-.746.145-.45.227-.54.508-.54.2 0 .25.04.336.348zm16.84-1.51c-.23.086-.516.227-.605.3-.652.57-.66 2.133-.027 2.695.094.074.652.406 1.242.73 1.234.68 1.316.738 1.316 1.035 0 .648-.926.84-2.2.465-.4-.113-.86-.105-.984.02-.164.164-.125.926.06 1.094.477.422 2.45.688 3.234.43 1.207-.398 1.773-1.316 1.523-2.488-.14-.672-.414-.945-1.6-1.56-1.094-.562-1.457-.863-1.375-1.13.074-.23.2-.258 1.2-.324 1.022-.054 1.2-.156 1.2-.672 0-.38-.148-.54-.625-.672-.535-.148-1.852-.105-2.36.066zm10.11 6.803a1.24 1.24 0 0 0-.633.813c-.176.598.133 1.277.7 1.574.47.234 1.457.133 1.66-.172.148-.22.06-.566-.203-.805-.2-.2-.23-.273-.164-.34.133-.133.125-1.004 0-1.13-.16-.16-1.066-.125-1.36.06zm24.925.025c-.176.242-.168.465.016.828l.16.3-.742.03c-.836.043-1.008.14-1.008.566a.97.97 0 0 0 .164.48c.168.223.176.223 1.285.25.875.016 1.2-.008 1.473-.117.492-.184.785-.6.836-1.145.04-.523-.1-.855-.508-1.16-.25-.2-.367-.22-.918-.22-.56 0-.648.027-.758.184zm-32.1 5.832c-3.117.297-5.156.672-8.656 1.594-1.77.453-4.7 1.426-6 1.973l-3.6 1.7-.64.32c-.043 0-.418.2-.836.44l-1.375.805-2.2 1.36a10.57 10.57 0 0 1-.684.48c-1.508 1.012-2.098 1.46-3.95 3.012-1.7 1.426-2.473 2.156-3.926 3.7l-1.8 1.94-.625.738c-.793.93-3.203 4.32-3.875 5.457-.56.938-1.984 3.72-2.578 5.012a55.88 55.88 0 0 0-1.59 4.055L1.16 53.38l-.3 1.285c-.2.863-.477 2.68-.742 4.977-.1.996-.125 1.762-.094 4.44.043 3.3.137 4.543.477 6.72.383 2.355 1.066 5.273 1.625 6.883l1.883 5.02 1.684 3.434c.035.05.234.4.44.754l.97 1.66c.44.762 1.8 2.664 2.824 3.98 4.117 5.262 8.957 9.465 14.8 12.86.965.563 3.34 1.766 4.223 2.14l1.46.62c1.34.582 3.78 1.453 4.914 1.758l1.336.375c1.06.316 3.3.8 3.723.8a6.17 6.17 0 0 1 .875.121c1.086.234 3.234.465 4.94.55 1.586.066 7.7-.035 7.875-.133.035-.027.55-.102 1.145-.168 2.133-.25 4.48-.656 5.566-.96l.875-.242c2.473-.605 5.94-1.832 7.9-2.77.242-.125.465-.215.5-.215.1 0 2.6-1.277 3.6-1.852 3.715-2.1 7.516-4.918 10.48-7.805.887-.855 3.102-3.234 3.102-3.328 0-.023.242-.34.543-.687 1.223-1.44 2.73-3.602 4.172-5.945.57-.93 2.145-4.06 2.617-5.203l.684-1.64c.785-1.883 1.926-5.684 2.117-7.012.027-.23.094-.48.133-.555.086-.168.484-2.637.742-4.63.22-1.617.316-7.027.168-8.504-.344-3.227-.477-4.172-.8-5.855-.2-1.027-.5-2.324-.66-2.863l-.914-2.984-.625-1.7a37.33 37.33 0 0 0-.977-2.402l-.734-1.602c-1.648-3.64-4.64-7.883-8.18-11.613-1.395-1.47-2.695-2.73-3.328-3.227-.633-.508-1.125-.988-1.125-1.113 0-.06-.066-.098-.156-.082-.102.016-.418-.2-.852-.555-.383-.324-.832-.672-.992-.8-2.422-1.7-4.7-3.152-4.9-3.152-.03 0-.117-.05-.184-.117-.074-.06-.543-.324-1.05-.6-.5-.254-1.008-.54-1.125-.613-.258-.18-2.398-1.176-3.25-1.516-4.875-1.95-9.105-3.027-14.082-3.602-1.625-.2-7.832-.23-9.55-.074zm6.926 4.023c1.676.105 3.44.305 4.5.496l1.918.332c.547.094 1.297.258 1.664.367s.785.223.918.254c1.043.2 5.324 1.703 6.918 2.406.797.36 2.957 1.445 3.414 1.727 3.2 1.95 5.234 3.676 6.984 5.95 2.3 2.977 4.023 7.05 4.566 10.78.152 1.012.176 1.445.133 2.738-.1 3.043-.508 4.945-1.617 7.465-1.047 2.383-2.855 4.645-5.023 6.28-1.617 1.2-2.86 1.867-5.148 2.7-1.176.434-1.4.465-1.676.184-.102-.102-.46-.895-.8-1.758-.758-1.902-1.383-3.203-2.285-4.777-.617-1.062-.7-1.246-.758-1.77-.184-1.602-.34-2.7-.457-3.234-.3-1.418-.492-2.125-.72-2.77-.125-.4-.23-.8-.23-.906 0-.105.242-.54.53-.953.918-1.32 1.375-2.38 1.594-3.723.23-1.453.133-2.848-.328-4.523-.14-.53-1.133-2.437-1.664-3.2-.2-.305-.766-.937-1.234-1.4-2.918-2.895-6.883-4.684-11.6-5.234-1.328-.156-3-.156-4.676.012-1.36.133-3.535.46-4 .613l-1.8.54c-1.766.54-3.082 1.043-3.477 1.336-.223.172-.273.266-.273.53 0 .586.418.578 2.234-.05 3.1-1.078 5.8-1.57 8.684-1.57 3.406 0 5.957.45 8.28 1.47.96.418 1.336.633 2.3 1.297 1.95 1.36 3.36 3.176 3.918 5.074.098.34.23.8.3.996.2.6.2 2.797-.012 3.44-.148.5-.406.87-.6.87-.06 0-.516-.496-1.023-1.1-.594-.715-1.176-1.32-1.637-1.684-.723-.582-2.44-1.57-3.23-1.86l-.6-.242c-.1-.042-.602-.172-1.125-.297-.75-.176-1.285-.23-2.457-.28-1.566-.06-3.617.016-4.336.156-1.516.3-3.184.914-4.172 1.543-1.293.82-2.586 2.258-3.22 3.574-.418.87-.56 1.38-.766 2.68-.066.426-.16.813-.2.855-.16.156-.418-.03-1.52-1.13-2.34-2.355-4.867-3.824-8.133-4.734-1.684-.473-2.273-.56-4.598-.598-3.586-.074-6.125.297-9.27 1.36-.875.297-3.23 1.36-4.172 1.898a9.25 9.25 0 0 1-.527.281c-.016 0-.434.242-.926.543-.5.3-.922.512-.94.496-.05-.05.977-1.965 1.5-2.82.535-.848 2.242-3.176 3.008-4.098a96.85 96.85 0 0 1 3.703-3.926 16.65 16.65 0 0 1 1.03-.9l1.4-1.172c1.527-1.3 4.06-3.094 6-4.23.867-.496 4.117-2.187 4.352-2.254.117-.035.25-.094.293-.125.105-.074 1.723-.746 2.5-1.027l2.664-.922c.277-.074.8-.223 1.168-.34 1.34-.398 1.867-.523 3.5-.855a46.74 46.74 0 0 1 5.582-.754c1.375-.082 4.352-.082 5.668 0zm.883 18.332c2.527.473 4.45 1.387 6.094 2.88 1.758 1.602 2.773 3.3 3.516 5.87.656 2.3.898 3.832 1.05 6.7.14 2.54-.043 4.88-.594 7.855-.383 2.1-1.242 4.87-1.75 5.684a11.26 11.26 0 0 0-1.242 2.813c-.207.828-.348 1.12-.56 1.12-.3 0-1.582-.45-2.23-.766-1.594-.797-3.06-2.03-4.06-3.434-1.027-1.434-2.117-3.566-2.2-4.32-.04-.293.027-.5.387-1.305.758-1.7 1.414-3.75 1.6-4.984.266-1.883-.1-5.184-.633-5.773-.22-.242-.668-.2-1.332.125-.32.156-1.012.406-1.535.555-.793.223-1.14.273-2.008.3-1.227.04-1.707-.043-2.543-.44-1.05-.504-1.973-1.508-2.566-2.797-.984-2.105-.633-5.125.8-7.05 1.14-1.516 3.418-2.72 5.727-3.008 2.008-.25 2.95-.258 4.098-.043zm35.508 3.484c1.117 1.84 1.926 3.47 2.94 5.9 2.184 5.242 3.3 11.074 3.184 16.63-.04 2.14-.133 3.426-.348 4.938l-.25 1.824c-.434 3.094-1.97 7.898-3.617 11.305l-.594 1.27c0 .02-.082.176-.2.352a4.81 4.81 0 0 0-.309.594c-.125.324-.273.574-1.598 2.656a52.26 52.26 0 0 1-3.441 4.688c-.902 1.07-3.16 3.4-4.3 4.402-1.3 1.164-4 3.262-4.883 3.8a22.62 22.62 0 0 0-.836.555c-.582.4-2.465 1.38-3.64 1.895-.367.156-.926.414-1.234.555-1.148.54-2.473.88-4.816 1.227-1.922.293-3.508.348-4.875.176-1.297-.168-3.56-.56-4.54-.8-2.8-.664-5.9-2.14-7.668-3.648-.957-.824-2.715-2.555-3.2-3.16-1.777-2.2-3.102-5.055-3.516-7.6-.184-1.113-.2-3.902-.043-5.102.125-.914.375-1.762.55-1.9.098-.082.367-.06 1.355.117l1.852.297a34.44 34.44 0 0 1 1.168.168c.297.04 1.516.105 2.707.133l2.168.047.707.316c1.324.6 1.543.68 2.332.953l1.043.367c.14.05.742.223 1.332.4 1.6.438 1.52.37 2.078 1.4 1.2 2.207 2.44 3.398 4.465 4.3a24.48 24.48 0 0 1 1.008.473c.168.086.676.246 1.14.363.7.184 1.027.215 2.06.215.734 0 1.46-.05 1.816-.117l1.145-.215c1.64-.28 3.465-1.035 5.266-2.164.516-.332 1.016-.637 1.117-.687.2-.1 1.36-1.137 2.4-2.125.734-.695 1.383-1.44 1.883-2.156.793-1.12 1.258-1.824 1.258-1.898 0-.043.027-.094.066-.1.3-.133 1.984-3.484 2.56-5.125.72-2.05 1.375-4.797 1.375-5.75 0-.6-.098-.723-.54-.723-.328 0-.383.035-.492.242-.074.133-.2.563-.258.97-.27 1.422-.883 3.766-1.285 4.863-.8 2.207-2.266 4.793-3.8 6.703-.25.313-.9 1.02-1.414 1.56a10.31 10.31 0 0 1-2.145 1.773c-1.613 1.078-1.773 1.164-3.156 1.676-1.777.664-2.707.84-4.45.832-2.184-.008-2.72-.22-5.078-1.926-.43-.316-1.074-1.062-1.023-1.203.043-.133.86-.297 1.477-.3 1.14-.008 3.03-.562 4.875-1.434 1.53-.723 1.773-.87 2.855-1.773 1.895-1.602 3.262-3.8 3.934-6.38.227-.848.27-1.187.3-2.355.06-1.687-.04-2.5-.434-3.7-.664-1.984-1.625-3.27-3.2-4.273-1.348-.863-1.36-.863 1.285-1.5 3.066-.738 5.883-2.348 8.398-4.797 1.398-1.36 2.273-2.52 3.242-4.3 2.125-3.893 3.065-7.842 3.065-12.8 0-.984.023-1.816.05-1.84.066-.066.234.148.715.938zm-60 1.36c2.242.48 4.117 1.277 6.277 2.672.922.6 2.492 1.973 2.582 2.28.066.2-.008.324-.867 1.516-1.207 1.676-1.867 2.7-2.55 3.95-.355.664-.766 1.32-.898 1.47-.14.148-.727.582-1.3.953l-1.133.758c-1.2.895-1.793 1.4-2.793 2.336l-1.207 1.137-.5-.047c-1.367-.152-2.102-.152-3-.008-1.3.207-2.215.488-3.1.97-1.3.688-2.164 1.477-3.148 2.805-1.207 1.633-1.457 2.1-1.992 3.6-.418 1.2-.676 3.426-.6 5.14.164 3.418.832 5.914 2.406 9.082.426.855 2.434 3.602 3.344 4.563.832.9 3.223 3.04 4.133 3.7 1.098.82 1.297.887 1.6.598.3-.3 0-.758-.965-1.445-.867-.62-3.668-3.523-4.602-4.77-1.965-2.63-3.258-5.332-3.898-8.2-.383-1.727-.46-2.953-.258-4.523.25-1.98.715-3.3 1.605-4.527 1.484-2.043 4.008-3.668 5.684-3.66.7.008.734.1.375.848A18.16 18.16 0 0 0 22.359 67c-.2.754-.227.973-.258 2.977-.035 2.027-.02 2.207.148 2.82.36 1.32.617 2.008 1.168 3.105 1.008 1.988 2.3 3.45 4.074 4.602.832.54 1.156.7 2.426 1.188.883.34 1.383.43 2.664.488 1.426.05 2.625-.14 3.602-.6.352-.164.7-.297.75-.297.066 0 .148-.035.2-.074.043-.043.2-.035.367.023.36.117.36.102-.016 1.504a54.75 54.75 0 0 0-.402 1.492c-.074.273-.125 1.188-.148 2.695-.035 2.074-.016 2.37.148 3.277.277 1.508.578 2.7.758 3.043.043.082.078.2.078.242 0 .082.2.54.7 1.7.53 1.234 1.824 3.227 3.207 4.945 2.016 2.504 4.934 4.95 7.684 6.445 1.734.938 1.766.96 1.566 1.035-.234.1-5.6.008-6.44-.098a87.79 87.79 0 0 1-1.668-.258l-1.8-.293c-.875-.133-1.16-.2-3.043-.672a45.42 45.42 0 0 1-18.375-9.398c-2.4-2.023-5.273-5.074-7.074-7.504-.625-.84-1.977-2.82-2.242-3.293L9.7 84.82c-2.1-3.578-3.573-7.492-4.6-12.238a58.19 58.19 0 0 1-.848-6.195c-.258-4.246.434-8.27 1.957-11.348a22.88 22.88 0 0 1 4.293-6.047c1.734-1.758 2.633-2.465 4.84-3.793 1.594-.96 2.8-1.492 4.46-1.95l.883-.238c.215-.06.742-.16 1.164-.22.434-.047.953-.12 1.16-.164.207-.03 1.258-.05 2.332-.03 1.72.023 2.086.055 2.934.238zm22.602 9.898c.523 1.027.34 3.707-.36 5.4-1.03 2.496-2.723 4.902-3.516 5.035l-1.492.215-1.324.215c-.066.025-.55.133-1.066.242-.977.207-2.4.723-3.367 1.203-.86.438-1.64 1.004-2.508 1.816-1.277 1.203-1.758 2.074-1.336 2.43.078.066.484.3.895.523 1.473.8 2.797 2.38 3.125 3.766.133.547.133 1.64 0 2.2-.05.23-.25.73-.434 1.117-1 2.05-3.824 3.66-6.44 3.684-1.777.016-3.594-.77-5.418-2.348-1.457-1.25-2.492-2.844-3.148-4.82-.36-1.078-.453-1.672-.527-3.266-.066-1.477.086-2.64.484-3.766.832-2.367 2.043-4.023 4.45-6.113.617-.53 1.117-1.004 1.117-1.04s.06-.074.125-.074c.06 0 .148-.05.184-.1.082-.133 2.258-1.56 3.273-2.148 1.094-.63 2.05-1.102 3.7-1.832 1.957-.855 2.316-1.004 3.125-1.254.4-.12.773-.254.848-.297.168-.1.543-.2 1.566-.422.8-.184 1.75-.215 3.918-.117 1.508.066 2.4-.023 3.215-.324.527-.2.762-.164.902.094zM49.64 65.48c.16.078.52.484.875.973.95 1.32 1.543 2.03 2.3 2.813 1.426 1.426 2.05 1.914 3.352 2.605 1.426.754 3.016 1.2 4.2 1.2.816 0 .832-.02.94-1.617.148-2.016.648-3.277 1.727-4.297.875-.832 1.648-1.164 2.922-1.277 1.152-.094 2.727.28 4.117.977.56.28.867.516 1.508 1.145.828.82.984 1.055 1.402 2.098.266.672.6 2.422.6 3.195 0 2.28-1.273 4.887-3.367 6.895-1.84 1.758-3.898 2.836-6.34 3.316-1.008.207-3.3.184-4.582-.043-2.97-.512-5.977-1.64-9.133-3.414-.66-.375-1.25-.758-1.32-.848-.055-.082-.156-.156-.215-.156-.207 0-2.535-1.63-3.434-2.398a10.55 10.55 0 0 0-.75-.605 30.09 30.09 0 0 1-1.406-1.285c-.887-.855-1.06-1.07-1.367-1.684-.367-.738-1.203-2.168-1.418-2.44a49.87 49.87 0 0 0-.918-1.02c-.434-.48-.797-.9-.816-.97-.098-.426 2.117-1.95 3.758-2.574 1.652-.63 2.8-.797 5.36-.762 1.4.023 1.8.06 2.008.164zm0 0"/><path d="M45.45 42.895c-.4.1-.758.574-.832 1.035-.1.75.293 1.422.973 1.63.676.2 1.484-.207 1.66-.84.36-1.285-.543-2.187-1.8-1.824zM33.523 74.8c-.273.066-.758.648-.824.988-.133.746.133 1.316.766 1.617a1.09 1.09 0 0 0 .762.133c.8-.1 1.2-.555 1.2-1.387a1.34 1.34 0 0 0-.602-1.176c-.227-.168-.898-.258-1.293-.176zM67.6 69.363c-.547.234-.758.566-.758 1.195 0 .53.234.895.75 1.18.86.453 1.8-.074 1.902-1.062.05-.555-.145-.996-.55-1.227-.492-.277-.832-.293-1.344-.086zm-20.475 47.012c-1.34.074-1.7.348-1.875 1.45-.117.723.082 1.246.66 1.734l.238.2-1.434.05-2.2.06c-.7 0-.773.016-.9.18-.074.102-.133.316-.133.48.008.914-.008.914 3.66.914h3.008v.664h-5.2l-.406.23c-.594.324-.875.898-.883 1.77 0 .836.258 1.383.816 1.715l.4.227 2.418.04c2.14.035 2.45.06 2.648.2.2.125.22.176.14.316-.14.258-.434.324-1.605.34-1.012.016-1.145 0-1.56-.184-.402-.184-.586-.207-1.352-.207-.773.008-.926.035-1.125.176l-.234.172-.023 1.57c-.016 1.234.008 1.6.1 1.73.102.125.277.168 1.066.22.844.06.977.04 1.262-.102l.316-.156v-.566c0-.945-.043-.926 1.898-.926 2.285 0 2.7-.05 3.168-.367a3.07 3.07 0 0 0 .656-.613c.27-.348.277-.383.277-1.168 0-.75-.02-.832-.242-1.18-.594-.914-.844-.988-3.383-.988-2.16 0-2.793-.06-2.793-.246 0-.207.45-.25 2.66-.258 2.258 0 2.922-.066 3.23-.3.418-.305.56-.652.594-1.484l.03-.754.3-.074c.3-.074.3-.074.324-.574.035-.77-.016-.812-1.2-.88l-.992-.05 1.008-.008c.652-.008 1.035-.047 1.102-.113.14-.14.125-.832-.016-1.03-.1-.14-.258-.156-1.75-.2-1.4-.03-1.652-.06-1.777-.18-.074-.086-.105-.176-.074-.207.086-.086 1.1-.184 2.008-.184.97-.008 1.328-.074 1.535-.273.215-.2.234-.723.03-.965-.14-.164-.266-.172-1.816-.207-.914-.023-2.074-.016-2.582.02zm0 0"/><path d="M91.852 117.336c-.2.06-.418.156-.492.223-.2.168-.45.78-.527 1.336-.047.324-.125.547-.215.613-.117.086-.86.1-3.168.1h-3.016l-.25.23c-.484.45-.426 1.254.102 1.47.18.074 1.164.125 3.297.168l3.152.14c.05.05.098.215.098.363 0 .492-.105.516-2.625.598l-2.492.176c-.6.238-1.04.672-1.348 1.3l-.3.625.035 1c.04 1.188.156 1.496.848 2.168.727.72.86.746 4.633.797l3.527-.1a.81.81 0 0 0 .273-1.277l-.2-.234-1.824-.047-2.742-.066c-.816-.008-.957-.035-1.207-.2-.418-.273-.684-.832-.617-1.305.082-.52.223-.762.605-.977.328-.176.395-.184 2.918-.184l2.8-.098c.34-.152.457-.473.516-1.43.027-.48.074-.9.1-.96.148-.242 1.324-.324 1.793-.133l.3.125v2.688l.06 3.336c.05.605.066.645.3.793.2.125.418.16.95.16.875 0 1.227-.133 1.3-.5.027-.148.05-1.7.05-3.44v-3.168l.4-.05c.488-.06.883-.238 1.008-.48.06-.098.074-.34.03-.62-.06-.508-.156-.6-.926-.78-.324-.082-.355-.117-.44-.437-.297-1.23-.44-1.47-1.03-1.8l-.426-.25-2.457.008-2.816.117zm-60.452.044c-.918.156-1.3.578-1.492 1.574-.16.902.184.828-4.05.828h-3.684l-.176.285c-.117.188-.176.414-.176.72 0 .367.043.48.227.672.215.227.25.234 1.117.234.824 0 .914.016 1.125.2.2.164.234.266.234.62.008.68-.125.762-1.418.887-1.227.125-1.367.207-1.367.82 0 .492.074.68.273.78l.652.297c.523.242.684.484.992 1.504.348 1.137.758 1.6 1.684 1.875.633.2 1.75.215 2.156.04.47-.2.684-.488.684-.918 0-.473-.102-.574-.727-.7-.3-.05-.574-.164-.7-.273-.223-.207-.605-.977-.605-1.203.008-.156.78-.77.98-.77.066 0 .27.133.46.3.316.273.375.3.926.3.922 0 1.2.066 1.3.324.043.117.1.754.133 1.418l.133 1.344c.152.285.535.398 1.3.398.586 0 .793-.03 1.008-.164l.285-.184c.008-.016.03-1.508.06-3.316l.156-3.402c.078-.074.36-.1.887-.1 1.23 0 1.133-.297 1.133 3.477v3.152l.223.234c.22.23.242.23 1.2.23h.973l.152-.273c.133-.242.156-.605.2-3.5l.04-3.227.2-.102a3.61 3.61 0 0 1 .559-.199c.54-.14.738-.664.516-1.3-.094-.258-.402-.434-.777-.434-.316 0-.53-.223-.6-.598-.14-.945-.4-1.332-1.035-1.633-.457-.215-.488-.215-2.633-.23-1.2-.008-2.34.016-2.547.06zm-1.703 4.402c.102.102.133.3.145.82.008.906 0 .914-1.25.914-1.066 0-1.176-.05-1.184-.547 0-.14-.06-.44-.125-.664-.227-.754-.293-.715 1.082-.68.957.016 1.234.05 1.332.156zm33.346-1.982c-.293.156-.375.332-.375.785 0 .367.03.465.223.64a1.96 1.96 0 0 0 .461.305c.23.094.23.102.23.832 0 .656-.016.738-.184.855-.223.156-.922.172-1.04.023-.05-.05-.1-.465-.133-.914-.05-.937-.2-1.285-.844-1.867-.44-.406-.934-.562-2.008-.63-.95-.066-2.676.066-3.06.223-.94.4-1.727 1.816-1.434 2.6.094.23.5.375 1.074.375.777 0 1.05-.145 1.367-.7.2-.363.324-.473.617-.586.484-.184.785-.168 1.227.047.3.16.4.25.45.508.2.77-.3 1.1-1.8 1.2-1.293.1-1.4.156-1.4.922 0 .586.2.7 1.223.777 1.395.102 1.543.133 1.844.434.605.605.06 1.465-.94 1.465-.47 0-.8-.2-1.152-.68-.348-.488-.523-.54-1.598-.496-.883.043-.992.133-.934.805.105 1.035.934 1.8 2.184 2.016.758.125 2.848.05 3.422-.125.477-.148 1.043-.598 1.4-1.12.207-.305.242-.453.324-1.36l.094-1.012.355-.023c.203-.02.527.03.734.113l.367.145.008 1.125c.008 1.95.094 2.1 1.22 2.117.816.008 1.156-.125 1.223-.465.027-.14.05-1.137.05-2.215l.06-3.145.05-1.195.3-.2c.516-.32.582-.43.582-.902 0-.348-.043-.473-.2-.613-.184-.176-.258-.184-2.023-.184-1.16 0-1.887.043-1.992.102zm4.597.098c-.074.117-.156.348-.2.53-.1.563.242.96.883 1.055.2.03.46.133.566.23l.184.168v3.074c0 2.906.008 3.098.168 3.344.2.324.457.383 1.45.348.6-.03.734-.055.918-.23l.215-.2v-3.262c0-3.16.008-3.266.168-3.348.102-.05.883-.086 2.043-.086 2.184 0 2.3.027 2.457.598.1.398.035.656-.266.848-.125.074-.594.148-1.285.2l-1.2.133c-.117.074-.125 1.004-.008 1.2.043.082.34.246.668.37.715.273.973.566 1.242 1.387.45 1.387.973 2.05 1.75 2.215.613.133 1.875.117 2.215-.023.367-.16.477-.375.44-.945l-.023-.477-.52-.164c-.672-.215-.855-.406-1.2-1.2l-.273-.672.34-.3c.637-.523.7-.73.75-2.027l.043-1.152.3-.04.758-.2c.418-.133.457-.168.523-.457.094-.383.02-.828-.164-.98-.1-.098-1.3-.12-6.484-.14l-6.352-.016zm0 0"/><path d="M10.418 120.023c-.395.1-.578 1.188-.25 1.484.156.14.383.168 2.598.215l2.586.14c.172.094.25.465.215 1.03-.016.332-.06.43-.215.504-.1.05-.97.117-2.078.148-1.797.06-1.906.078-2.238.266-.195.117-.46.367-.586.56-.223.313-.242.414-.242 1.07 0 .664.027.746.25 1.07.453.63 1.242.88 2.2.688.398-.082.78-.5 1-1.094.223-.617.434-.766 1.082-.766.816 0 .918.2.918 1.8 0 .762.03 1.195.117 1.387.113.273.133.28.75.34.855.074 1.266 0 1.45-.273.125-.2.148-.582.184-3.46l.04-3.234.52-.168c.758-.246.883-.387.84-.977-.06-.82.3-.766-4.633-.78-2.367-.008-4.398.016-4.516.05zm-10.028.2c-.164.133-.242.28-.273.57-.066.473.066.715.55 1.023l.332.207v5.773l.3.355a2.64 2.64 0 0 0 .707.547c.4.2.457.207 2.2.207H5.98l.348.414.352.426.934-.027.926-.023.156-.3c.2-.375.125-1.105-.14-1.504-.375-.555-.55-.598-2.684-.664l-2.102-.164c-.164-.102-.172-.184-.207-1.934v-2.48c.043-.855.1-.902 1.352-.9.766 0 .95.016 1.066.14.125.125.148.406.184 2.273l.04 2.12.2.1c.332.164 1.3.133 1.707-.06.617-.297.66-.45.7-2.555l.035-1.852.273-.207c.5-.37.582-.996.2-1.477l-.164-.215H.625zm47.36 12.715l-3.5.406c-1.215.133-2.66.434-3.207.656-.535.223-1.02.633-1.258 1.07-.22.383-.242.516-.234 1.137.008 1.13.332 1.72 1.215 2.164.258.133.492.273.527.316.023.05-.086.14-.242.207-.4.156-1.027.754-1.227 1.145-.383.746-.098 2.172.516 2.637.953.707 1.47.848 4.242 1.156l2.836.38c.297.066 1.44.234 2.54.375l2.5.332c.777.125 1.875.098 2.94-.074l1.895-.293 1.5-.258 1.164-.207c1.875-.266 2.2-.414 2.2-1.012a1.49 1.49 0 0 0-.125-.562l-.125-.25-.652.05a7.74 7.74 0 0 0-.973.125c-.184.05-1.043.2-1.918.324l-2.207.363c-1.227.234-2.344.316-2.703.2-.45-.148-.672-.473-.664-.97.008-.832.582-1.3 1.934-1.543l2.56-.418c.324-.03.723-.1.9-.133a49.1 49.1 0 0 1 2.523-.445c.867-.117 1.293-.54 1.176-1.164-.082-.414-.266-.488-1.168-.414-1.2.094-4.04.5-5.258.758a9.28 9.28 0 0 1-1.25.172c-.773.06-1.023-.03-1.45-.516-.406-.473-.316-1.117.242-1.656.273-.266.773-.383 2.375-.574l1.707-.246c.344-.078 1.2-.2 1.918-.3l2.758-.504c.207-.1.352-.53.293-.863-.043-.22-.133-.352-.316-.457-.285-.168-.27-.168-2.8-.414l-1.75-.2c-.035-.027-.902-.082-1.926-.133l-3.535-.258c-1.465-.14-3.375-.2-3.965-.1zm26.082 1.662v.953h2.75v8.13h2.668v-8.13h2.832v-1.906h-8.25zm0 0"/><path d="M64.25 138.738v5.016h3.082l.02-1.832c.023-1.633.04-1.848.164-1.934.234-.14.543.234 1.45 1.75l1.125 1.703.3.313h2.777v-.246c0-.4-.176-.73-1.152-2.223-1.016-1.55-1.28-2.027-1.2-2.14.035-.05.266-.242.516-.426.344-.238.543-.48.75-.86.277-.508.293-.574.293-1.363 0-1.02-.043-1.16-.465-1.7-.27-.34-.484-.496-.984-.738l-.633-.297-6.043-.05zm4.535-3.246c.766.45.988 1.363.508 2.05-.352.488-.7.656-1.395.656h-.566v-3.012l.543.04c.367.035.648.117.9.266zm-35.578-1.597c-.184.04-.406.105-.5.148s-.375.14-.625.223c-1.316.398-2.398 1.512-2.883 2.938-.242.7-.223 2.563.035 3.402.53 1.7 1.676 2.793 3.4 3.273.66.184 3.023.266 3.852.133.922-.14 1.164-.3 1.316-.785.14-.473.156-.863.04-1.047-.1-.14-.758-.156-.934-.023-.34.254-.965.387-1.773.387-.758-.008-.883-.03-1.332-.254-.668-.332-1.008-.7-1.344-1.402-.34-.738-.44-1.164-.45-1.9 0-1.3.4-2.3 1.215-2.977 1-.855 1.82-.922 3.203-.3l.9.37c.44.125.7-.316.7-1.2 0-.656-.1-.723-1.398-.977-.535-.1-2.918-.1-3.395 0zm-14.625 5.132v4.813H20.5v-1.727l.06-2.62.05-.887.742.73 2.422 2.496 1.9 1.9c.14.074.492.117.984.117h.75v-9.625h-1.75v5.188l-1.6-1.62-2.55-2.594-.94-.973h-1.984zm0 0"/></svg>