<svg height="40" viewBox="0 0 26 40" width="26" xmlns="http://www.w3.org/2000/svg"><path d="m11.0077655 20.3412849.2077942-.0439742-.0168699-.2303945.4134462-.206924.1285325-.1880403.1274614.2592634.2359107.0110591.4072874-.2004491.1371013-.4108809-.2511739-.0461324.1660212-.230665.1081815.2322823.1014871-.0048467-.1103237-.2835427.4394205-.813667-.1903888-.0946963-.2592072.1262591-.1226415-.1041355.3724765-.3369613.3055325.1362418-.0182088-.3488292.151829-.2409181-.0548941-.2503572-.4520059-.1543167-.00723-.1351626-.3807775-.0658274-.1089849.1392087.0835462-.1370504-.1440635-.1966708.0136565-.3167255.0988094-.0666388.1041649.1516202.041773-.1729325-.1483479-.0361497-.0211543-.302429-.2385885-.0399281.0200833-.2552146-.17459.1556662-.0875628-.1103425.182891-.0499107-.0524841-.2411859.2115431.2487398.0856883-.3008089.2029743-.0210472-.0168699.1071051.1531679.0633987.0760484-.2973011.3866686-.1529697.0278487-.3277847.1156793.1999082.2993736-.0385785.1269258.4756292.34918-.1392087.0361498-.1815656.2667049.0134959-.16736-.1939743.1997609-.2193353.0115144-.2357902.8788409-.3258995.3858653.0051413-.0664084-.5042277.2921436-.1286851.0176733-.1613324-.2254675-.1187024.0637307-.0903798.5152011-.0032401.0091044.0933467.3280257-.1348922.2843781.4408264h.2720605l-.0361498.1848029.1831588.0099881.3751543-.1988291.0318653-.4726622.3186535.0132281.2771482-.1400174.203242.0758101.2067232-.1284174.1379046.2490103.4362072-.1216721.0305265-.2589929.1890499.0275166.0064266.1966735.192531.1089929.1657533-.0542273-.013121-.4429846-.1595945-.0040435.1941376-.1551253.0005356-.1839943-.2830393-.446222.1911921-.2241874-.0125855-.3121412-.3023191-.2460434.0401664-.2295858-.1585235-.0439742-.0350786-.1947829.2088653-.0526073.1108593-.50395721.2351073.11519725.0763162.26681746.257065-.0544978.3660499.3043167.1255869-.3099802.2085976.2179831.1416535-.1853412.035882.3744607.2102042.1737411.6916655-.1775194.1354947.1424461.2380529-.2133987.2348396.1497296.0706929.2571052-.0192799-.3032376.4038063-.1521584.1764644.2595339.3797064-.1141208.0484675.2312059.16495-.0070158.1478124-.3383082-.2581361-.0337211.0626596-.3490996-.2214508.012398-.0160666-.21474832.2479606-.14541311-.1769999-.00511452.1269258-.16375844-.1462057-.11978426-.0468608-.30782195.4707503-.05503601.0731028-.23687201.3395401-.09577278-.0166021-.31132982.209133-.00998805.0002678-.25737294.2779516-.00648018-.0002678.34100743.2310907-.38956862.2731316.47400912.1534356.04667337.0425764-.27167219.1652179-.06447779-.0666763-.26438868.2637594-.03048363.1424569-.232285-.2841104-.18021596.017941-.24172411.3481089.17508804.6370392-.27598873.0069621-.69712013.2069909-.03804026-.0428441-.2012578.1191603-.13812959-.2562617-.1122303.177-.40602346.1893177-.02131498.2021709.15242616.0498063-.12463903.1392436.18561164.2870559-.00214221-.0747095-.25035989.3052646-.12706777.1151437-.38012416.199761.01727155-.0605174-.20557702.2782193-.34235435-.0270454-.22526928.4327261-.26708518.1384402.13920873.1545068-.10278851.0005356.27787656.2262707.07203175-.2875915.46052125.4348683.02455506.1625401.27545051.2511739-.10926334-.0040166-.16726631.2268063.090918.2972314.07904749-.2168986.45782206.187711.28731834.0157988.30971245-.3074069.26951391.2608139.25737295.3023191.10008933.0404342.14082878-.0527519.13543041-.113537-.06717698-.0401664.32374124-.1759289-.03156544.064534.22284055-.1341558-.01403147-.129068.32293256-.1330847-.05152815-.0846172.14972966-.035882.11115116.3446277.10845197-.0222254.10035979-.6260604.32886647-.0583751.64693889.280897.08930063.0650696.1494592.1445991-.19019865.1175537.1400201.2321618-.07850926.010711.177249.52618.15917143-.0091044.19289516-.2013676-.04909942.026242-.12976695-.0690862.16052103-.1652178.03588199-.0018744.1513497-.2096687-.05881433-.0034811.1451426-.3499832.013496.142189.1362417-.0420408.1880377-.1620045.106026-.2664372-.0963137-.0985416.4834535.114876.0728405-.4155885.330216.1033616.0644778-.2174342.2767975.575183.3380378.2061875.567894-.2578683.5767977.0996127.7618683-.1885143-.0237517-.0792617.4022478.2434084.0151026-.0099077.1972117-.2717927.0906476.0918472.1475713.2043131-.0542246-.0291876.3671745-.4075551.1111512.133888.2773356-.2029743.0415481-.0717639.1556636-.3904175-.042895-.0259743.1044058-.3183857.0326446.277416.3806651.3266867.1362418.3855976.0995484.4637881-.0766188.5443887.2239197-.00723.2964924-.1419213-.0633987-.1748578.2050361-.1826232-.0302158-.076584.105485.0066944.148921.123177.0056768-.1520968.3785068.0171377.2500894.1274614.0714909-.1047004.4259888.1084493.1656463-.0037489.4750883-1.4604506-.2155571-.5912495.100092-.4343327.2411859-.2450151.394153.2332329.050449-.115947.5171746.4581648.4397472-.0492708.1977526-.1949409-.1618707-.2924115.1108808-.0149954.7796754-.3066036-.0369611-.0085688.0898389.3194568.3245499.1914599.6596208.2696504-.0315655.0321332.2179858.1820877.0242873.0910438.1545871-.2426051.220144.2088653.1594419-.0026777.2608808-.143528.0364202.1229092.1289556-.4214795.700628-.2120786-.0315654.0329365-.1381269-.2589395-.0021422-.1057715.1116893-.5891073-.1065641-.447186-.3609702-.1271936.1127686.0578396.3180751-.1164826.2716722.3593555.1095311.2048486-.0755397-.0880983.9291347-.3834553.1435253.0993449.2592634-.2123464.7694224.2217186.4308436.1561134.0269784.239124.3167255.5783963-.0569238-.1660211.1923569-.0123177.2641156-.1595946-.0812031-.1678955.1348922-.0224932.2538651.3979152.303508-.1413858.1265269.0725673.1856116.626596.0032401.1440635.1748203.1668245-.0226539.0382919-.4300349.2254675-.2910967.447186.1545845.2758093-.1162764-.0088366.3188838.4463826.0393898-.0216898.2274276.159059.2212232.1788744-.1165469-.2281452-.482104.059714-.1721211.3178502.0876779.069354.2177154.2329651.0024099.0232966.6992784-.6204371-.0828231-.0728351.2066535-.1622723.0302158-.017941.1637585.2533161-.1303052.0321332.0874101-.3882753.465917.3205279.0901066-.0433797.2209527.3082102.0021422-.1285325.1888491.1105915.1553958-.1992253.169695-.0080333-.1030589-.2359107.0064801.0305265-.4961327-.2257353-.2455025-.931325.1920865-.1470091-.2924463-.5459953-.0642073-.0862239-.2595312.064534-.4319255-.4383494-.0957727-.026242.1354331-.2554584.039928-.0433797.161868.2428729.0221183.2691149.3585414-.2460862.2460433.5872329.5616897.0305264.1629498-.1344235.0234572-.2739349.4564725.1354947.414927.1057715.056656.0838139-.2236519.1890499.1883108.1973509-.1273382.3997897.035882-.0243677-.3814764-.2150241-.1656463.2166308-.0439742-.0366853-.2476607.1180892-.1017094.0099077.3329126.1464735-.1232894.0369531.1141181.1250514-.1937065.0931861.3205038.3165113-.1027885.0733706.1821038.221183-.1151973.364711.0609726-.0889016.2074622.2733993.0126926-.0431119.7006253.1861043-.0226539.0246354-.1564749.1397791.1219425.0412375-.3361526.2040454.1583654.2217185-.1567454.1437958.0936145.0867594-.0453238-.1472768-.1168146.2166308-.1178964.118357-.0097203-.0364175.1459514.1783388-.0528751.0739062.1656463.0230287-.3334535.3679243-.1292261-.0136566-.1330016.2897337-.1427166-.1196959-.2776061.066944-.1518907.385062.021315.1379047.1964004.3074069-.3083602.0650695.3307543-.1994931.0758074.0117821.3485614.1188926-.0013389.1087171-.2398363.2950892.0507195.0187443-.1958648.4059485.2649296.026242.3693327-.1866399.2511686.1371014.1343513-.0224932.1491914-.2316263-.0218505-.0321331.1224808.1255869.1829151.4204084-.0771597.0267776.145954.1874433.0418159-.0599819.3450536.2490317-.1777873.9141875.0523369-.199761 1.2868674.2367141.1311165-.1703056.0709526.1360302.0944232.1861044-.088757.064534.1195138.2005643-.055036.275006.3016176.1952087-.252786.1223736.2155571-.0492707.3331803-.1555779.0979337.1577201.1769759-.3382012.2125901.107646.1284173-.145938.0903771.0149955.1664576-.2972314.1222104.0356142.3930764-.1976187-.0307567.0736384.391186-.3221346.0315654-.1844977-.1893873-.2372496.4659143-.3475733-.0013389-.1146081.5455-.5604553-.1003571-.4145173-.4162766-.1783388-.0202439-.0752451.2902853-.1124659-.0010711-.2008321-.3091716-.1164826.2050362-.0872949-.0477525.1413857-.1961326-.0937216-.1286851-.7446852.2565616.0819395.2703252-.3815809.7068324-.1547745-.0561152-.1427247.1419053-.1349591-.1446044-.3585521.095505.0420408.2101613-.1558456.3625875.0473963.2927167.1561135.0415455-.1737867.1804864.2792904-.0509899-.028652.3955025-.0910439.314029-.3424855.4025156-.4064841.1254504-.0254387.3423544 1.4612539.2007195.2359107.3542276-.4429016.5487374-.1625401.4116896-.9870225.032915-.0420408.3234708-.1352269-.0720318.0195476.2835427-.2075264.5069215-.3349878-.1610593-.1871755.1135772-.2313585-.2258075-.241534-.0234839-.082475.1071024-.6964855.1181668.0364176.2881271-.2112753-.070144-.0846173-.2983801-.1917276.071223.0522163-.110072-.1526323-.1092606-.1775356.0110591-.0739061.2058448-.3357912-.103865-.3989863.7974799.1255869.2422651-.0763161.1564749-.1164826-.1300374-.3938986-.0763483-1.0435232.00241-.1103237-.3458622-.2029743-.1578246-.2961603.2457729-.1563812-.0240195-.1515612-.2392981.1261225-.0917266-.0629274-.2080031-.4072874.1300347-.3529288-.417894-.2999092.0199761-.1933343-.3652867-.4257639.0723023-.0008033-.6849792-.6359681.2714017-.6598002-.0998215-.2934825-.249819-.1384402-.4985588-.4632526.0520663-.0864917-.2193326-.2195763.0523368-.1531679-.2940636-.326419-.0480203-.5275188-.7775172-.3564099-.0013389.0125854-.4615977-.3127624-.2312059.0056233-.2562938.313298-.0482907-.0449864-.2107023-.4129107.2336346-.033472-.1966734-.301248-.1605211-.0240999-.2641182.2859849-.1208634-.2867882-.1521584-.3015158.2816549-.1202315-.3590823-.2369818.0464029-.090776-.0936145.0431119-.2473929-.3617654-.1232895-.0168699.1804837-.1978865.0364229.0104433-.3142994-.2385885.0315654.0283843-.0785066-.1537035-.0401985.1336203-.1758994-.0915795-.172662-.701841.2071944-.2584039-.5633071-.7053221-2.8537696-.1371013-1.6508072-.3580166-1.3448704-.205652-.4626795-.2166308-.1060232-.1678956-.3339918-.1713766-.9304842-.1636112-.2330937-.4935112-1.6173513.221183-.1642993-.1603979-.1303052-.0484675.1837238-.2600105.0080869-.0838139-.4686135-.1403146-.1467627.0856883-.0771569-.102826-.4335428-.1791422-.1918161-.1665567.1742794-.6134749-.4688839.1571845-.0356115.0420409-.2403772-.1060393-.0032401-.0824751-.2838132.2353752-.1440635.2019031.0669065-.0182087-.2444233.2225218.1721211.3266868-.2630391-.0471286-.1400174.2278775-.2854305-.1344236-.325629.0629273-.2749096.1810167-.2376781-.0851528-.227698-.2755416-.2004491.4715536-.2053066-.0744417-.4327314-.2562617-.1243713-.0008033-.3172637-.1467413-.2703253.1732511-.2125874-.1847655-.2320145.0797973-.2546765-.0744417-.2600721-.1328169-.0717613-.102826.1019772-.1293359-.1861499-.0937216.1686159-.2640272.0102558z" fill="#333" transform="translate(-10.580645 -4)"/></svg>